<svg width="265" height="582" viewBox="0 0 265 582" fill="none" xmlns="http://www.w3.org/2000/svg">
<g clip-path="url(#clip0_9_5626)">
<path d="M65.9989 452.514C89.1991 474.466 116.743 489.313 147.465 498.221C148.948 498.645 150.431 498.857 152.549 499.281C122.887 419.532 130.409 344.979 181.047 276.259C203.717 245.505 249.8 210.933 271.517 207.009C272.047 206.797 272.576 206.691 273.106 206.691V115.912C273 115.806 272.894 115.806 272.788 115.7C272.682 115.594 272.576 115.594 272.47 115.488C272.364 115.488 272.364 115.382 272.258 115.382C272.047 115.276 271.941 115.17 271.835 115.064C265.796 113.261 260.288 111.458 254.673 109.973C227.765 102.656 200.433 101.171 172.783 105.095C168.758 105.625 167.063 107.428 166.109 111.14C160.495 132.668 154.774 154.196 148.948 175.618C143.863 194.177 126.489 198.737 112.823 185.163C101.594 173.921 90.2585 162.786 79.1351 151.333C76.4866 148.682 74.7916 148.257 71.7195 150.909C30.5099 186.859 6.35626 231.93 1.80097 286.652C-3.49589 352.085 18.4331 407.549 65.9989 452.514Z" fill="white"/>
<path d="M267.491 579.349H267.597C269.08 579.985 270.352 580.833 271.835 581.47C272.258 581.682 272.576 581.788 273 581.894V240.096C272.258 240.414 271.517 240.732 270.881 241.157C269.822 241.793 268.868 242.535 267.809 242.96C267.703 243.066 267.597 243.172 267.385 243.172C235.922 260.564 211.027 284.743 192.7 315.816C152.549 384.005 160.389 474.042 211.874 534.278C227.765 552.73 246.092 568.001 267.491 579.349Z" fill="white"/>
<path d="M171.724 3.18359e-05C178.822 -0.106018 182.953 5.93881 181.047 13.0441C175.008 35.9508 168.864 58.7515 162.719 81.6582C154.668 111.882 146.511 142 138.46 172.225C135.494 183.254 127.972 185.163 119.921 177.103C81.6775 138.713 43.3283 100.323 5.08496 61.933C-3.0722 53.7672 -1.27127 46.2376 9.74619 43.2683C62.3969 29.0576 115.048 14.953 167.698 0.848428C169.182 0.53028 170.665 0.212131 171.724 3.18359e-05Z" fill="#F2C148"/>
</g>
<defs>
<clipPath id="clip0_9_5626">
<rect width="273" height="582" fill="white"/>
</clipPath>
</defs>
</svg>
