<svg width="16" height="16" viewBox="0 0 16 16" fill="none" xmlns="http://www.w3.org/2000/svg">
<g clip-path="url(#clip0_136_161)">
<path d="M11.603 15.4844C9.04288 15.4844 6.48279 15.4844 3.92271 15.4844C3.75754 15.4431 3.59238 15.4431 3.42721 15.4018C1.73425 15.0302 0.619375 13.9566 0.123875 12.3049C0.0412917 12.0572 0.0412917 11.8507 0 11.603C0 9.04287 0 6.48279 0 3.92271C0 3.88141 0.0412917 3.79883 0.0412917 3.75754C0.0825833 3.34462 0.165167 2.93171 0.371625 2.56008C1.15617 0.908415 2.43621 0.0412896 4.25304 0.0412896C6.60667 -2.04146e-06 8.96029 0.0412896 11.2726 0.0412896C12.0159 0.0412896 12.7178 0.206456 13.3372 0.578081C14.7411 1.40391 15.4844 2.68396 15.4844 4.29433C15.4844 6.60666 15.4844 8.919 15.4844 11.2313C15.4844 11.5204 15.4844 11.8094 15.4018 12.0985C15.0302 13.7914 13.9979 14.9063 12.3049 15.3605C12.0572 15.4431 11.8094 15.4431 11.603 15.4844ZM14.576 7.76283C14.576 6.60666 14.576 5.4505 14.576 4.29433C14.576 4.04658 14.576 3.75754 14.4934 3.50979C14.1217 1.94071 12.8417 0.908415 11.2313 0.908415C8.919 0.908415 6.56537 0.908415 4.25304 0.908415C4.00529 0.908415 3.75754 0.908415 3.50979 0.990998C1.94071 1.36262 0.908417 2.64266 0.908417 4.25304C0.908417 6.56537 0.908417 8.919 0.908417 11.2313C0.908417 11.4791 0.908417 11.7268 0.991 11.9746C1.32133 13.5024 2.64267 14.576 4.21175 14.576C6.56537 14.576 8.919 14.576 11.2726 14.576C11.7268 14.576 12.2223 14.4934 12.6353 14.2869C13.9153 13.6675 14.576 12.6352 14.576 11.2313C14.576 10.0752 14.576 8.919 14.576 7.76283Z" fill="#005898"/>
<line x1="3.51611" y1="5.52872" x2="12.1309" y2="5.52872" stroke="#005898" stroke-linecap="round"/>
<line x1="3.51611" y1="7.52933" x2="12.1309" y2="7.52933" stroke="#005898" stroke-linecap="round"/>
<line x1="3.51611" y1="9.52686" x2="8.5415" y2="9.52686" stroke="#005898" stroke-linecap="round"/>
</g>
<defs>
<clipPath id="clip0_136_161">
<rect width="15.4844" height="15.4844" fill="white"/>
</clipPath>
</defs>
</svg>
