<svg width="16" height="16" viewBox="0 0 16 16" fill="none" xmlns="http://www.w3.org/2000/svg">
<g clip-path="url(#clip0_136_130)">
<path d="M11.603 15.9687C9.04288 15.9687 6.48279 15.9687 3.92271 15.9687C3.75754 15.9275 3.59238 15.9275 3.42721 15.8862C1.73425 15.5145 0.619375 14.441 0.123875 12.7893C0.0412917 12.5415 0.0412917 12.3351 0 12.0873C0 9.52725 0 6.96716 0 4.40708C0 4.36579 0.0412917 4.28321 0.0412917 4.24191C0.0825833 3.829 0.165167 3.41608 0.371625 3.04446C1.15617 1.39279 2.43621 0.525665 4.25304 0.525665C6.60667 0.484373 8.96029 0.525665 11.2726 0.525665C12.0159 0.525665 12.7178 0.690831 13.3372 1.06246C14.7411 1.88829 15.4844 3.16833 15.4844 4.77871C15.4844 7.09104 15.4844 9.40337 15.4844 11.7157C15.4844 12.0047 15.4844 12.2938 15.4018 12.5828C15.0302 14.2758 13.9979 15.3907 12.3049 15.8449C12.0572 15.9275 11.8094 15.9275 11.603 15.9687ZM14.576 8.24721C14.576 7.09104 14.576 5.93487 14.576 4.77871C14.576 4.53096 14.576 4.24191 14.4934 3.99416C14.1217 2.42508 12.8417 1.39279 11.2313 1.39279C8.919 1.39279 6.56537 1.39279 4.25304 1.39279C4.00529 1.39279 3.75754 1.39279 3.50979 1.47537C1.94071 1.847 0.908417 3.12704 0.908417 4.73741C0.908417 7.04975 0.908417 9.40337 0.908417 11.7157C0.908417 11.9635 0.908417 12.2112 0.991 12.459C1.32133 13.9867 2.64267 15.0603 4.21175 15.0603C6.56537 15.0603 8.919 15.0603 11.2726 15.0603C11.7268 15.0603 12.2223 14.9777 12.6353 14.7713C13.9153 14.1519 14.576 13.1196 14.576 11.7157C14.576 10.5595 14.576 9.40337 14.576 8.24721Z" fill="#005898"/>
<line x1="4.82234" y1="5.40387" x2="10.9139" y2="11.4954" stroke="#005898" stroke-linecap="round"/>
<line x1="4.83154" y1="11.5339" x2="10.9231" y2="5.44231" stroke="#005898" stroke-linecap="round"/>
</g>
<defs>
<clipPath id="clip0_136_130">
<rect width="15.4844" height="15.4844" fill="white" transform="translate(0 0.484375)"/>
</clipPath>
</defs>
</svg>
