<svg width="30" height="31" viewBox="0 0 30 31" fill="none" xmlns="http://www.w3.org/2000/svg">
<g clip-path="url(#clip0_9_5581)">
<path d="M30 8.89262C30 8.41389 30 8.01496 29.9202 7.69581C29.2819 3.78624 26.0106 0.913895 22.0213 0.913895C17.3138 0.913895 12.6862 0.913895 7.97872 0.913895C7.5 0.913895 7.10106 0.913895 6.70213 0.993682C2.71277 1.71177 0 4.90326 0 8.97241C0 13.6001 0 18.2277 0 22.8554C0 23.3341 0 23.8128 0.0797872 24.132C0.638298 28.0416 3.90957 30.8341 7.89894 30.9139C9.65425 30.9139 11.4096 30.9139 13.2447 30.9139H15.3989C15.9574 30.9139 16.2766 30.5947 16.2766 30.0362C16.2766 26.6852 16.2766 23.3341 16.2766 19.9033C16.2766 19.265 15.9574 18.9458 15.3191 18.9458C14.7606 18.9458 14.2021 18.9458 13.6436 18.9458H12.766V16.5522H13.6436C14.2021 16.5522 14.7606 16.5522 15.3191 16.5522C15.9574 16.5522 16.2766 16.233 16.2766 15.5947V14.4777C16.2766 13.5203 16.2766 12.5628 16.2766 11.6054C16.2766 10.249 16.8351 9.29155 18.1915 8.73304C19.3085 8.25432 20.5851 8.01496 22.1011 8.17453C22.3404 8.17453 22.5798 8.25432 22.8989 8.25432H23.0585V10.4884H21.0638C19.7074 10.4884 18.9096 11.2064 18.8298 12.483C18.75 13.2011 18.8298 13.999 18.8298 14.7171C18.8298 15.0362 18.8298 15.2756 18.8298 15.5947C18.8298 16.233 19.1489 16.5522 19.7872 16.5522C20.4255 16.5522 21.0638 16.5522 21.7021 16.5522H22.6596L22.2606 18.9458H21.6223C20.984 18.9458 20.4255 18.9458 19.7872 18.9458C19.1489 18.9458 18.8298 19.265 18.8298 19.9033V20.1426V20.2224V30.0362C18.8298 30.2756 18.9096 30.515 19.0691 30.6745C19.2287 30.8341 19.4681 30.9139 19.7074 30.9139H20.4255C20.6649 30.9139 20.9043 30.9139 21.1436 30.9139C21.5426 30.9139 21.9415 30.9139 22.3404 30.9139C22.8191 30.9139 23.2979 30.8341 23.7766 30.7543C27.5266 29.9564 30.0798 26.8447 30.0798 22.9352C30 18.2277 30 13.6001 30 8.89262ZM20.4255 20.6213H21.2234C21.7021 20.6213 22.2606 20.6213 22.7394 20.6213C23.2979 20.6213 23.617 20.382 23.6968 19.9033C23.9362 18.5469 24.0957 17.2703 24.3351 15.9139C24.3351 15.6745 24.3351 15.4352 24.1755 15.2756C24.016 15.116 23.6968 14.9564 23.3777 14.9564C22.7394 14.9564 22.1011 14.9564 21.383 14.9564H20.4255V14.8767C20.4255 14.6373 20.4255 14.4777 20.4255 14.2384C20.4255 13.7596 20.4255 13.2011 20.4255 12.7224C20.4255 12.3235 20.5053 12.2437 20.984 12.2437H23.617C24.3351 12.2437 24.6543 11.9245 24.6543 11.2862C24.6543 10.1692 24.6543 8.97241 24.6543 7.85538C24.6543 7.21709 24.4149 6.97772 23.8564 6.89794C21.3032 6.41921 19.2287 6.57879 17.3936 7.37666C15.8777 8.01496 15 9.13198 14.6809 10.5682C14.6011 10.8873 14.6011 11.2064 14.6011 11.6054C14.6011 12.4033 14.6011 13.2011 14.6011 13.9192V15.0362H13.6436C13.0851 15.0362 12.5266 15.0362 11.9681 15.0362C11.3298 15.0362 11.0106 15.3554 11.0106 15.9139C11.0106 17.1905 11.0106 18.4671 11.0106 19.8235C11.0106 20.2224 11.1702 20.7011 11.9681 20.7011C12.6064 20.7011 13.2447 20.7011 13.883 20.7011H14.5213V29.3181H12.4468C10.9309 29.3181 9.49468 29.3181 7.97872 29.3181C4.78723 29.3181 2.31383 27.2437 1.67553 24.132C1.59574 23.8128 1.59574 23.4937 1.59574 23.0947C1.59574 18.3873 1.59574 13.6799 1.59574 8.97241C1.59574 5.8607 3.75 3.30751 6.8617 2.749C7.18085 2.58943 7.57979 2.58943 7.97872 2.58943C12.6064 2.58943 17.3138 2.58943 21.9415 2.58943C25.133 2.58943 27.6064 4.66389 28.1649 7.7756C28.2447 8.09475 28.2447 8.41389 28.2447 8.89262C28.2447 13.6001 28.2447 18.2277 28.2447 22.9352C28.2447 26.4458 25.4521 29.2384 21.9415 29.2384C21.5426 29.2384 21.1436 29.2384 20.7447 29.2384H20.4255V20.6213Z" fill="#005898"/>
</g>
<defs>
<clipPath id="clip0_9_5581">
<rect width="30" height="30" fill="white" transform="translate(0 0.913895)"/>
</clipPath>
</defs>
</svg>
