<svg width="1440" height="318" viewBox="0 0 1440 318" fill="none" xmlns="http://www.w3.org/2000/svg">
<path d="M966.933 162.885V169.672H963.167L966.933 162.885Z" fill="white"/>
<path d="M876.736 162.885L880.502 169.672H876.736V162.885Z" fill="white"/>
<path d="M1254.09 321.246H1452V293.156H1406.62C1411.89 289.197 1422.62 282.975 1437.12 282.975C1442.77 282.975 1447.67 283.918 1452 285.238V276.754H1449.18V267.516C1449.18 265.631 1450.31 264.123 1452 263.557V254.508H1451.81V252.623H1448.05V254.508H1445.41V252.623H1441.64V254.508H1439.01V252.623H1435.24V254.508H1432.6V252.623H1428.84V254.508H1426.2V252.623H1422.44V254.508H1419.8V252.623H1416.03V254.508H1413.4V252.623H1409.63V254.508H1407V252.623H1403.23V246.213H1403.04L1402.66 240.746L1401.35 246.213H1398.9V238.484H1391.93V246.213H1389.48L1388.17 240.746L1387.79 246.213H1387.6V293.344V254.508H1381.2V252.623H1377.43V254.508H1374.61V252.623H1370.84V254.508H1368.21V252.623H1364.44V254.508H1361.8V252.623H1358.04V254.508H1355.4V252.623H1351.63V254.508H1349V252.623H1345.23V254.508H1342.6V252.623H1338.83V254.508H1336.19V252.623H1332.43V254.508H1329.79V252.623H1326.03V254.508H1320.94V239.803L1325.08 235.656V224.344L1326.59 221.139L1318.68 216.803V198.516H1319.81V190.221H1318.12V192.107H1316.99V190.221H1314.92V192.107H1313.79L1307.2 162.885H1308.33V161.566H1305.31V162.885H1306.44L1299.85 192.107H1299.29V190.221H1297.22V192.107H1296.09V190.221H1294.58V198.516H1295.71V216.803L1287.99 221.139L1289.49 224.344V235.656L1293.64 239.803V253.566H1211.35V259.598H1239.41C1224.34 264.689 1212.1 274.303 1212.1 274.303H1211.35V278.262H1293.64V287.5H1291.75L1290.81 293.721H1213.42L1212.48 287.5H1210.97V240.18L1215.12 236.033V224.721L1216.62 221.516L1208.71 217.18V198.893H1209.84V190.598H1208.34V192.484H1207.21V190.598H1205.14V192.484H1204.01L1197.6 162.508H1198.73V161.189H1195.72V162.508H1196.85L1190.26 191.73H1189.13V189.844H1187.06V191.73H1186.31V189.844H1184.8V198.139H1185.93V216.426L1178.02 220.762L1179.53 223.967V235.279L1183.67 239.426V254.131H1178.58V252.246H1174.82V254.131H1172.18V252.246H1168.42V254.131H1165.78V252.246H1162.01V254.131H1159.38V252.246H1155.61V254.131H1152.98V252.246H1149.21V254.131H1146.57V252.246H1142.81V254.131H1140.17V252.246H1136.41V254.131H1133.58V252.246H1129.81V254.131H1127.18V252.246H1123.41V254.131H1117.01V245.648H1116.82L1116.45 240.18L1115.13 245.648H1112.68V237.918H1105.71V245.648H1103.26L1101.95 240.18L1101.57 245.648H1101.38V252.057H1097.61V253.943H1094.98V252.057H1091.21V253.943H1088.39V252.057H1084.62V253.943H1081.99V252.057H1078.22V253.943H1075.58V252.057H1071.82V253.943H1069.18V252.057H1065.42V253.943H1062.78V252.057H1059.01V253.943H1056.38V252.057H1052.61V253.943H1049.97V252.057H1046.21V253.943H1043.57V252.057H1039.81V253.943H1038.68L1038.86 253.754H1037.17V252.057H1034.53V223.967L1038.86 217.18H1026.25V209.262H1024.18V179.664H1026.25V162.885L1022.48 167.787V165.148C1022.48 155.533 1015.14 147.615 1005.53 146.672L1004.97 138.754C1006.29 138.377 1007.23 137.057 1007.23 135.738C1007.23 134.23 1006.1 132.91 1004.59 132.533L1003.84 122.541L1003.09 132.533C1001.58 132.91 1000.45 134.23 1000.45 135.738C1000.45 137.246 1001.39 138.377 1002.71 138.754L1002.15 146.672C992.73 147.426 985.198 155.344 985.198 165.148V167.787L981.432 162.885V179.664H983.504V209.451H981.432V217.369H967.875V173.82L970.322 169.861H962.602C962.225 149.689 947.161 133.098 927.766 130.27V118.205C927.766 118.205 924.753 115.566 922.682 111.23V106.328H924V102.746H922.682V101.803H920.799V102.746H919.481V106.328H920.799V111.23C918.728 115.754 915.715 118.205 915.715 118.205V130.27C896.131 133.098 881.255 149.689 880.879 169.861H873.158L875.606 173.82V217.557H861.86V209.639H859.789V179.664H861.86V162.885L858.094 167.787V165.148C858.094 155.533 850.75 147.615 841.147 146.672L840.582 138.754C841.9 138.377 842.842 137.057 842.842 135.738C842.842 134.23 841.712 132.91 840.206 132.533L839.452 122.541L838.699 132.533C837.193 132.91 836.063 134.23 836.063 135.738C836.063 137.246 837.004 138.377 838.322 138.754L837.758 146.672C828.342 147.426 820.81 155.344 820.81 165.148V167.787L817.044 162.885V179.664H819.116V209.451H817.044V217.369H804.616L808.947 224.156V254.131H804.616L808.947 260.918V293.156H783.338L777.124 136.115H777.877C779.76 136.115 781.267 134.607 781.267 132.91C781.267 131.025 779.76 129.705 777.877 129.705H776.936L776.748 124.803C784.845 123.295 791.059 116.32 791.059 107.836C791.059 100.295 786.163 93.8852 779.572 91.6229V76.1639H776.183V34.5H775.053V0H772.605V34.5H771.475V75.7869H768.086V91.2459C761.307 93.6967 756.599 99.918 756.599 107.459C756.599 115.943 762.813 122.918 770.91 124.426L770.722 129.328H769.78C767.897 129.328 766.391 130.836 766.391 132.533C766.391 134.418 767.897 135.738 769.78 135.738H770.534L764.32 292.779H738.146L734.191 173.82H737.016V167.598H742.665V148.557H746.431V143.844H748.502L753.21 137.057H746.431V132.344H742.665V118.393H746.431V113.68H644.936V104.254H639.663V101.049H622.716C622.904 100.295 623.469 99.3525 624.599 99.3525C627.047 99.1639 629.307 95.2049 629.307 95.2049C631.755 95.959 629.495 99.3525 629.495 99.3525L630.437 100.484C634.579 94.4508 630.437 92.1885 630.437 92.1885C630.437 92.1885 631.566 88.9836 630.813 86.7213C629.872 83.7049 630.06 82.7623 631.378 82.0082C632.508 81.2541 633.261 80.1229 633.261 78.8033L633.449 71.0738C623.469 66.7377 626.67 81.4426 618.573 89.1721C614.619 93.1311 616.314 98.2213 617.632 101.049H610.1C610.1 98.7869 610.1 94.6393 611.983 90.6803C614.619 84.8361 610.1 84.2705 610.1 80.3115C610.1 76.3525 613.678 72.582 612.736 70.1311C611.795 67.6803 607.652 62.7787 605.769 65.9836C604.074 69.1885 605.204 78.9918 603.698 80.3115C602.191 81.6311 601.815 71.4508 600.496 73.5246C599.367 75.7869 601.25 78.9918 599.367 78.4262C597.484 77.8607 599.367 69.1885 597.295 69C596.919 69 596.73 69 596.354 68.8115V58.0656C597.484 57.5 598.425 56.3689 598.425 55.0492C598.425 53.7295 597.484 52.5984 596.354 52.0328V49.959H597.484C598.613 49.959 599.555 49.2049 599.932 48.0738C600.12 47.5082 600.308 47.3197 600.685 46.9426C604.827 44.3033 605.392 39.9672 605.392 39.9672C605.392 39.9672 604.263 41.4754 600.873 41.6639C597.295 41.8525 597.295 47.1311 596.542 45.623C595.601 44.1148 595.789 44.3033 595.412 44.3033C595.036 44.3033 595.036 44.1148 594.282 45.623C593.341 47.1311 593.341 41.8525 589.951 41.6639C586.374 41.4754 585.432 39.9672 585.432 39.9672C585.432 39.9672 585.997 44.3033 590.14 46.9426C590.516 47.1311 590.705 47.5082 590.893 48.0738C591.081 49.2049 592.023 49.959 593.341 49.959H594.471V52.0328C593.341 52.5984 592.399 53.7295 592.399 55.0492C592.399 56.3689 593.341 57.5 594.471 58.0656V68.8115C594.283 68.8115 593.906 68.8115 593.529 69C591.458 69.1885 593.341 77.8607 591.458 78.4262C589.575 78.9918 591.458 75.5984 590.328 73.5246C589.198 71.2623 588.633 81.4426 587.127 80.3115C585.621 78.9918 586.75 69.1885 585.056 65.9836C583.361 62.7787 579.218 67.6803 578.089 70.1311C577.147 72.582 580.725 76.3525 580.725 80.3115C580.725 84.2705 576.205 84.8361 578.842 90.6803C580.536 94.6393 580.725 98.5984 580.725 101.049H573.381C574.699 98.2213 576.394 93.1311 572.439 89.1721C564.342 81.2541 567.544 66.7377 557.564 71.0738L557.752 78.8033C557.752 80.1229 558.505 81.4426 559.635 82.0082C560.765 82.7623 561.141 83.7049 560.2 86.7213C559.447 88.9836 560.576 92.1885 560.576 92.1885C560.576 92.1885 556.434 94.4508 560.576 100.484L561.518 99.3525C561.518 99.3525 559.258 96.1475 561.706 95.2049C561.706 95.2049 564.154 99.1639 566.414 99.3525C567.544 99.3525 568.108 100.295 568.297 101.049H551.349V104.254H546.077V113.68H444.582V118.393H448.348V132.344H444.582V137.057H437.803L442.511 143.844H444.582V148.557H448.348V167.975H453.997V174.197H456.822L452.867 293.156H433.472V279.016H438.556V274.68H421.044V266.574H417.843V224.533H421.044V220.197H410.688V214.918H406.922V209.262H400.896V125.369L403.909 122.164V106.705H394.682V103.689C396 102.934 396.942 102.18 396.942 102.18C396.942 102.18 389.974 93.1311 397.883 90.8689C405.792 88.6066 408.805 78.4262 408.805 78.4262C404.474 82.9508 395.247 84.8361 395.247 84.8361C395.247 84.8361 392.422 76.3525 390.163 77.2951C387.903 78.2377 388.845 84.2705 388.845 84.2705C385.267 79.9344 375.287 78.6148 375.287 78.6148C378.111 89.3607 387.338 85.9672 388.091 90.8689C388.845 95.7705 382.819 101.803 382.819 101.803C384.137 102.934 385.643 103.5 387.338 103.877V106.705H378.111V122.164L381.124 125.369V209.262H374.722V214.918H370.956V220.385H360.599V224.721H363.8V266.762H360.599V274.869H343.087V279.205H348.171V293.156H321.432V214.918L326.516 204.738H311.452V171.18L313.524 167.598H306.556V164.959C306.556 163.828 305.615 162.885 304.485 162.885C303.355 162.885 302.414 163.828 302.414 164.959V167.598H296.2V164.959C296.2 163.828 295.258 162.885 294.128 162.885C292.999 162.885 292.057 163.828 292.057 164.959V167.598H285.843V164.959C285.843 163.828 284.902 162.885 283.772 162.885C282.642 162.885 281.7 163.828 281.7 164.959V167.598H275.486V164.959C275.486 163.828 274.545 162.885 273.415 162.885C272.285 162.885 271.344 163.828 271.344 164.959V167.598H264.377L266.448 171.18V204.738H261.175V200.779C261.175 199.836 260.422 198.893 259.292 198.893C258.351 198.893 257.409 199.648 257.409 200.779V204.738H246.3V200.779C246.3 199.836 245.546 198.893 244.417 198.893C243.475 198.893 242.534 199.648 242.534 200.779V204.738H231.424V200.779C231.424 199.836 230.67 198.893 229.541 198.893C228.599 198.893 227.658 199.648 227.658 200.779V204.738H216.548V200.779C216.548 199.836 215.795 198.893 214.665 198.893C213.723 198.893 212.782 199.648 212.782 200.779V204.738H207.321V189.844L210.146 185.131H206.191L201.86 175.516V165.525H204.308L199.412 147.615L194.516 165.525H196.964V175.516L193.575 183.057C188.679 165.902 173.05 153.459 154.22 153.459C135.578 153.459 119.76 166.09 114.864 183.057L111.475 175.516V165.525H113.923L109.027 147.615L104.131 165.525H107.332V175.516L103.001 185.131H99.0471L101.872 189.844V204.738H96.4109V200.779C96.4109 199.836 95.6576 198.893 94.5278 198.893C93.398 198.893 92.6448 199.648 92.6448 200.779V204.738H81.535V200.779C81.535 199.836 80.7817 198.893 79.6519 198.893C78.7104 198.893 77.7689 199.648 77.7689 200.779V204.738H66.6591V200.779C66.6591 199.836 65.9059 198.893 64.776 198.893C63.8345 198.893 62.893 199.648 62.893 200.779V204.738H51.7832V200.779C51.7832 199.836 51.03 198.893 49.9001 198.893C48.9586 198.893 48.0171 199.648 48.0171 200.779V204.738H42.7447V171.18L44.816 167.598H37.8488V164.959C37.8488 163.828 36.9073 162.885 35.7775 162.885C34.6476 162.885 33.7061 163.828 33.7061 164.959V167.598H27.4922V164.959C27.4922 163.828 26.5506 162.885 25.4208 162.885C24.291 162.885 23.3495 163.828 23.3495 164.959V167.598H17.7004V164.959C17.7004 163.828 16.7589 162.885 15.6291 162.885C14.4993 162.885 13.5578 163.828 13.5578 164.959V167.598H7.7204V164.959C7.7204 163.828 6.77889 162.885 5.64907 162.885C4.51926 162.885 3.57775 163.828 3.57775 164.959V167.598H0V322H1254.09V321.246ZM1438.44 267.328C1438.44 265.066 1440.33 262.992 1442.77 262.992C1445.22 262.992 1447.1 264.877 1447.1 267.328V276.566H1438.63V267.328H1438.44ZM1427.52 267.328C1427.52 265.066 1429.4 262.992 1431.85 262.992C1434.11 262.992 1436.18 264.877 1436.18 267.328V276.566H1427.71V267.328H1427.52ZM1416.6 267.328C1416.6 265.066 1418.48 262.992 1420.93 262.992C1423.38 262.992 1425.26 264.877 1425.26 267.328V276.566L1416.79 276.377V267.328H1416.6ZM1405.87 267.328C1405.87 265.066 1407.75 262.992 1410.2 262.992C1412.46 262.992 1414.53 264.877 1414.53 267.328V276.189L1406.05 276V267.328H1405.87ZM1376.3 267.328C1376.3 265.066 1378.19 262.992 1380.63 262.992C1382.89 262.992 1384.96 264.877 1384.96 267.328V276.566H1376.49V267.328H1376.3ZM1365.57 267.328C1365.57 265.066 1367.45 262.992 1369.9 262.992C1372.35 262.992 1374.23 264.877 1374.23 267.328V276.566H1365.76V267.328H1365.57ZM1354.65 267.328C1354.65 265.066 1356.53 262.992 1358.98 262.992C1361.24 262.992 1363.31 264.877 1363.31 267.328V276.566H1354.84V267.328H1354.65ZM1343.91 267.328C1343.91 265.066 1345.8 262.992 1348.25 262.992C1350.69 262.992 1352.58 264.877 1352.58 267.328V276.566H1344.1V267.328H1343.91ZM1332.99 267.328C1332.99 265.066 1334.88 262.992 1337.32 262.992C1339.58 262.992 1341.65 264.877 1341.65 267.328V276.566L1333.18 276.377V267.328H1332.99ZM1353.52 282.787C1368.58 282.787 1379.69 289.385 1384.59 292.967H1323.39V292.779C1328.66 289.008 1339.21 282.787 1353.52 282.787ZM1322.26 267.328C1322.26 265.066 1324.14 262.992 1326.59 262.992C1329.04 262.992 1330.92 264.877 1330.92 267.328V276.189L1322.45 276V267.328H1322.26ZM1215.68 273.738C1218.51 272.041 1241.1 259.787 1255.6 259.787C1263.13 259.787 1286.86 272.041 1290.06 273.738H1215.68ZM1293.07 273.172C1293.07 273.172 1281.4 264.123 1268.97 259.221H1293.45V273.361L1293.07 273.172ZM596.542 53.7295C597.107 54.1066 597.484 54.6721 597.484 55.4262C597.484 56.1803 597.107 56.7459 596.542 57.123V53.7295ZM18.8302 185.131C18.8302 184 19.7718 183.057 20.9016 183.057C22.0314 183.057 22.9729 184 22.9729 185.131V192.107H18.8302V185.131ZM10.1683 192.107H6.21398V185.131C6.21398 184 7.15549 183.057 8.28531 183.057C9.41512 183.057 10.3566 184 10.3566 185.131V192.107H10.1683ZM27.8688 286.18H13.7461V245.271H27.8688V286.18ZM27.8688 236.975H13.7461V226.23C13.7461 222.27 16.9472 219.254 20.7133 219.254C24.4793 219.254 27.6805 222.459 27.6805 226.23V236.975H27.8688ZM35.5892 192.107H31.6348V185.131C31.6348 184 32.5763 183.057 33.7061 183.057C34.8359 183.057 35.7775 184 35.7775 185.131V192.107H35.5892ZM41.4265 237.918H50.2768V246.59H41.4265V237.918ZM51.2183 286.18H40.2967V261.861C40.2967 258.844 42.7447 256.393 45.7575 256.393C48.7703 256.393 51.2183 258.844 51.2183 261.861V286.18ZM77.204 237.918H86.0542V246.59H77.204V237.918ZM59.3153 237.918H68.1655V246.59H59.3153V237.918ZM69.107 286.18H58.1855V261.861C58.1855 258.844 60.6334 256.393 63.6462 256.393C66.6591 256.393 69.107 258.844 69.107 261.861V286.18ZM86.9957 286.18H76.0742V261.861C76.0742 258.844 78.5221 256.393 81.535 256.393C84.5478 256.393 86.9957 258.844 86.9957 261.861V286.18ZM95.0927 237.918H103.943V246.59H95.0927V237.918ZM104.884 286.18H93.9629V261.861C93.9629 258.844 96.4108 256.393 99.4237 256.393C102.437 256.393 104.884 258.844 104.884 261.861V286.18ZM205.815 237.918H214.665V246.59H205.815V237.918ZM215.795 286.18H204.873V261.861C204.873 258.844 207.321 256.393 210.334 256.393C213.347 256.393 215.795 258.844 215.795 261.861V286.18ZM259.481 237.918H268.331V246.59H259.481V237.918ZM241.592 237.918H250.442V246.59H241.592V237.918ZM223.703 237.918H232.554V246.59H223.703V237.918ZM233.683 286.18H222.762V261.861C222.762 258.844 225.21 256.393 228.223 256.393C231.235 256.393 233.683 258.844 233.683 261.861V286.18ZM251.384 286.18H240.462V261.861C240.462 258.844 242.91 256.393 245.923 256.393C248.936 256.393 251.384 258.844 251.384 261.861V286.18ZM269.272 286.18H258.351V261.861C258.351 258.844 260.799 256.393 263.812 256.393C266.825 256.393 269.272 258.844 269.272 261.861V286.18ZM287.35 185.131C287.35 184 288.291 183.057 289.421 183.057C290.551 183.057 291.492 184 291.492 185.131V192.107H287.538V185.131H287.35ZM278.688 192.107H274.733V185.131C274.733 184 275.675 183.057 276.805 183.057C277.934 183.057 278.876 184 278.876 185.131V192.107H278.688ZM296.388 286.18H282.265V245.271H296.388V286.18ZM296.388 236.975H282.265V226.23C282.265 222.27 285.466 219.254 289.233 219.254C293.187 219.254 296.2 222.459 296.2 226.23V236.975H296.388ZM304.108 192.107H300.154V185.131C300.154 184 301.096 183.057 302.225 183.057C303.355 183.057 304.297 184 304.297 185.131V192.107H304.108ZM367.943 266.574H365.872V224.533H367.943V266.574ZM372.274 266.574H370.203V224.533H372.274V266.574ZM376.981 266.574H374.534V224.533H376.981V266.574ZM406.545 266.574H404.097V224.533H406.545V266.574ZM411.064 266.574H408.993V224.533H411.064V266.574ZM415.395 266.574H413.324V224.533H415.395V266.574ZM645.124 119.713H714.419C714.984 119.713 715.361 120.09 715.361 120.656C715.361 121.221 714.984 121.598 714.419 121.598H645.124C644.559 121.598 644.183 121.221 644.183 120.656C644.183 120.09 644.559 119.713 645.124 119.713ZM593.153 55.2377C593.153 54.4836 593.529 53.918 594.094 53.541V56.7459C593.529 56.5574 593.153 55.9918 593.153 55.2377ZM556.434 113.115C556.434 112.172 557.187 111.418 558.128 111.418H632.131C633.073 111.418 633.826 112.172 633.826 113.115V128.008C633.826 128.951 633.073 129.705 632.131 129.705H558.128C557.187 129.705 556.434 128.951 556.434 128.008V113.115ZM455.88 120.467C455.88 119.902 456.257 119.525 456.822 119.525H545.512C546.077 119.525 546.454 119.902 546.454 120.467C546.454 121.033 546.077 121.41 545.512 121.41H456.822C456.257 121.41 455.88 121.033 455.88 120.467ZM546.454 126.877C546.454 127.443 546.077 127.82 545.512 127.82H476.217C475.652 127.82 475.275 127.443 475.275 126.877C475.275 126.311 475.652 125.934 476.217 125.934H545.512C545.889 126.123 546.454 126.5 546.454 126.877ZM461.718 161.943C461.718 162.508 461.341 162.885 460.776 162.885C460.211 162.885 459.835 162.508 459.835 161.943V151.197C459.835 150.631 460.211 150.254 460.776 150.254C461.341 150.254 461.718 150.631 461.718 151.197V161.943ZM465.86 161.943C465.86 162.508 465.484 162.885 464.919 162.885C464.354 162.885 463.977 162.508 463.977 161.943V151.197C463.977 150.631 464.354 150.254 464.919 150.254C465.484 150.254 465.86 150.631 465.86 151.197V161.943ZM470.191 161.943C470.191 162.508 469.815 162.885 469.25 162.885C468.685 162.885 468.308 162.508 468.308 161.943V151.197C468.308 150.631 468.685 150.254 469.25 150.254C469.815 150.254 470.191 150.631 470.191 151.197V161.943ZM504.462 293.156H477.535L473.581 174.197H476.405V167.975H505.592V174.197H508.417L504.462 293.156ZM513.877 161.943C513.877 162.508 513.501 162.885 512.936 162.885C512.371 162.885 511.994 162.508 511.994 161.943V151.197C511.994 150.631 512.371 150.254 512.936 150.254C513.501 150.254 513.877 150.631 513.877 151.197V161.943ZM518.02 161.943C518.02 162.508 517.643 162.885 517.078 162.885C516.514 162.885 516.137 162.508 516.137 161.943V151.197C516.137 150.631 516.514 150.254 517.078 150.254C517.643 150.254 518.02 150.631 518.02 151.197V161.943ZM522.163 161.943C522.163 162.508 521.786 162.885 521.221 162.885C520.656 162.885 520.28 162.508 520.28 161.943V151.197C520.28 150.631 520.656 150.254 521.221 150.254C521.786 150.254 522.163 150.631 522.163 151.197V161.943ZM556.622 293.156H529.695L525.74 174.197H528.565V167.975H557.752V174.197H560.576L556.622 293.156ZM565.849 161.943C565.849 162.508 565.472 162.885 564.907 162.885C564.342 162.885 563.966 162.508 563.966 161.943V151.197C563.966 150.631 564.342 150.254 564.907 150.254C565.472 150.254 565.849 150.631 565.849 151.197V161.943ZM570.18 161.943C570.18 162.508 569.803 162.885 569.238 162.885C568.673 162.885 568.297 162.508 568.297 161.943V151.197C568.297 150.631 568.673 150.254 569.238 150.254C569.803 150.254 570.18 150.631 570.18 151.197V161.943ZM574.322 161.943C574.322 162.508 573.946 162.885 573.381 162.885C572.816 162.885 572.439 162.508 572.439 161.943V151.197C572.439 150.631 572.816 150.254 573.381 150.254C573.946 150.254 574.322 150.631 574.322 151.197V161.943ZM608.782 293.156H581.854L577.9 174.197H580.725V167.975H609.912V174.197H612.736L608.782 293.156ZM618.009 161.943C618.009 162.508 617.632 162.885 617.067 162.885C616.502 162.885 616.126 162.508 616.126 161.943V151.197C616.126 150.631 616.502 150.254 617.067 150.254C617.632 150.254 618.009 150.631 618.009 151.197V161.943ZM622.151 161.943C622.151 162.508 621.775 162.885 621.21 162.885C620.645 162.885 620.268 162.508 620.268 161.943V151.197C620.268 150.631 620.645 150.254 621.21 150.254C621.775 150.254 622.151 150.631 622.151 151.197V161.943ZM626.482 161.943C626.482 162.508 626.106 162.885 625.541 162.885C624.976 162.885 624.599 162.508 624.599 161.943V151.197C624.599 150.631 624.976 150.254 625.541 150.254C626.106 150.254 626.482 150.631 626.482 151.197V161.943ZM660.753 293.156H633.826L629.872 174.197H632.696V167.975H661.883V174.197H664.708L660.753 293.156ZM670.168 161.943C670.168 162.508 669.792 162.885 669.227 162.885C668.662 162.885 668.285 162.508 668.285 161.943V151.197C668.285 150.631 668.662 150.254 669.227 150.254C669.792 150.254 670.168 150.631 670.168 151.197V161.943ZM674.311 161.943C674.311 162.508 673.934 162.885 673.37 162.885C672.805 162.885 672.428 162.508 672.428 161.943V151.197C672.428 150.631 672.805 150.254 673.37 150.254C673.934 150.254 674.311 150.631 674.311 151.197V161.943ZM678.454 161.943C678.454 162.508 678.077 162.885 677.512 162.885C676.947 162.885 676.571 162.508 676.571 161.943V151.197C676.571 150.631 676.947 150.254 677.512 150.254C678.077 150.254 678.454 150.631 678.454 151.197V161.943ZM712.913 293.156H685.986L682.031 174.197H684.856V167.975H714.043V174.197H716.867L712.913 293.156ZM722.14 161.943C722.14 162.508 721.763 162.885 721.198 162.885C720.633 162.885 720.257 162.508 720.257 161.943V151.197C720.257 150.631 720.633 150.254 721.198 150.254C721.763 150.254 722.14 150.631 722.14 151.197V161.943ZM726.471 161.943C726.471 162.508 726.094 162.885 725.529 162.885C724.964 162.885 724.588 162.508 724.588 161.943V151.197C724.588 150.631 724.964 150.254 725.529 150.254C726.094 150.254 726.471 150.631 726.471 151.197V161.943ZM730.613 161.943C730.613 162.508 730.237 162.885 729.672 162.885C729.107 162.885 728.73 162.508 728.73 161.943V151.197C728.73 150.631 729.107 150.254 729.672 150.254C730.237 150.254 730.613 150.631 730.613 151.197V161.943ZM645.124 127.82C644.559 127.82 644.183 127.443 644.183 126.877C644.183 126.311 644.559 125.934 645.124 125.934H733.815C734.38 125.934 734.756 126.311 734.756 126.877C734.756 127.443 734.38 127.82 733.815 127.82H645.124ZM833.05 248.664H826.459V234.525H833.05V248.664ZM845.101 201.91H834.18V187.205H845.101V201.91ZM853.763 248.664H847.173V234.525H853.763V248.664ZM874.477 248.664H868.074V234.525H874.665V248.664H874.477ZM914.397 203.418C914.397 199.27 917.786 196.066 921.74 196.066C925.883 196.066 929.084 199.459 929.084 203.418V218.123H914.208V203.418H914.397ZM895.19 218.123H887.281V194.557H895.19V218.123ZM944.148 293.156H941.701V255.639C941.701 244.705 932.85 235.844 921.74 235.844C910.819 235.844 901.78 244.705 901.78 255.639V293.156H899.332V255.639C899.332 243.385 909.312 233.393 921.74 233.393C933.98 233.393 944.148 243.385 944.148 255.639V293.156ZM956.2 218.123H948.291V194.557H956.2V218.123ZM975.595 248.664H969.004V234.525H975.595V248.664ZM996.308 248.664H989.718V234.525H996.308V248.664ZM1009.49 201.91H998.568V187.205H1009.49V201.91ZM1017.02 248.664H1010.43V234.525H1017.02V248.664ZM1079.16 267.328C1079.16 265.066 1081.04 262.992 1083.49 262.992C1085.94 262.992 1087.82 264.877 1087.82 267.328V276.189L1079.35 276.377V267.328H1079.16ZM1068.43 267.328C1068.43 265.066 1070.31 262.992 1072.76 262.992C1075.02 262.992 1077.09 264.877 1077.09 267.328V276.566H1068.62V267.328H1068.43ZM1057.51 267.328C1057.51 265.066 1059.39 262.992 1061.84 262.992C1064.29 262.992 1066.17 264.877 1066.17 267.328V276.566H1057.69V267.328H1057.51ZM1046.77 267.328C1046.77 265.066 1048.66 262.992 1051.1 262.992C1053.36 262.992 1055.44 264.877 1055.44 267.328V276.566H1046.96V267.328H1046.77ZM1035.85 267.328C1035.85 265.066 1037.73 262.992 1040.18 262.992C1042.63 262.992 1044.51 264.877 1044.51 267.328V276.566H1036.04V267.328H1035.85ZM1036.23 293.156C1041.12 289.574 1052.23 282.975 1067.3 282.975C1081.8 282.975 1092.53 289.385 1097.8 293.156H1036.23ZM1098.56 276L1090.08 276.189V267.328C1090.08 265.066 1091.97 262.992 1094.41 262.992C1096.67 262.992 1098.74 264.877 1098.74 267.328V276H1098.56ZM1162.77 267.328C1162.77 265.066 1164.65 262.992 1167.1 262.992C1169.36 262.992 1171.43 264.877 1171.43 267.328V276.189L1162.96 276.377V267.328H1162.77ZM1152.03 267.328C1152.03 265.066 1153.92 262.992 1156.37 262.992C1158.81 262.992 1160.7 264.877 1160.7 267.328V276.566H1152.22V267.328H1152.03ZM1141.11 267.328C1141.11 265.066 1143 262.992 1145.44 262.992C1147.7 262.992 1149.77 264.877 1149.77 267.328V276.566H1141.11V267.328ZM1130.38 267.328C1130.38 265.066 1132.26 262.992 1134.71 262.992C1137.16 262.992 1139.04 264.877 1139.04 267.328V276.566H1130.57V267.328H1130.38ZM1119.46 267.328C1119.46 265.066 1121.34 262.992 1123.79 262.992C1126.05 262.992 1128.12 264.877 1128.12 267.328V276.566H1119.65V267.328H1119.46ZM1181.03 293.156H1119.83C1124.73 289.574 1135.84 282.975 1150.9 282.975C1165.03 282.975 1175.76 289.197 1181.03 292.967V293.156ZM1182.16 276L1173.69 276.189V267.328C1173.69 265.066 1175.57 262.992 1178.02 262.992C1180.47 262.992 1182.35 264.877 1182.35 267.328V276H1182.16Z" fill="white"/>
<path d="M1101.95 294.286L1099.12 290.139H1088.39L1085.56 294.286V295.417H1101.95V294.286Z" fill="#1F4E9D"/>
<path d="M500.508 217.368C502.767 217.368 504.65 215.672 504.65 213.409C504.65 211.147 502.767 209.45 500.508 209.45C498.248 209.45 496.365 211.147 496.365 213.409C496.365 215.672 498.248 217.368 500.508 217.368Z" fill="#1F4E9D"/>
<path d="M1278.76 322V321.057H1452V303.713H1412.46C1411.52 301.828 1409.44 300.508 1407 300.508C1407 300.508 1407 300.508 1406.81 300.508L1398.15 262.992L1394.57 247.344L1394 247.533V247.344H1391.55V244.705H1397.02V236.975H1391.55V205.492H1394.19V202.852H1391.55V141.77L1397.02 130.082V123.483H1386.28V89.549H1387.6V86.9096H1380.82V65.6063H1379.5V46.7539H1380.82V44.1145H1379.5V26.5818H1380.82V23.9424H1379.5V8.4834H1376.87V24.1309H1375.55V26.7703H1376.87V44.3031H1375.55V46.9424H1376.87V65.7949H1375.55V87.2867H1368.77V89.926H1370.09V123.86H1359.36V130.082L1364.82 141.77V202.852H1362.18V205.492H1364.82V236.787H1359.36V244.516H1364.82V247.156H1362.18L1350.13 299C1349 297.492 1347.3 296.549 1345.23 296.549C1342.6 296.549 1340.34 298.246 1339.58 300.508C1338.64 299.754 1337.32 299.188 1335.82 299.188C1333.93 299.188 1332.24 300.131 1331.11 301.451V290.139H1293.26V303.713H1289.12V260.164H1270.1V296.549H1265.96V269.213H1236.21V303.713H1225.1V288.631H1226.79V285.426H1223.59V272.983H1225.28V269.778H1222.08V262.049H1223.78V258.844H1220.58V247.533C1220.2 241.877 1215.87 244.516 1212.48 236.221V233.77H1215.68V230.565H1212.48V227.36H1209.28V230.565H1205.14V233.77H1208.34V236.41C1204.95 244.705 1200.43 242.065 1200.24 247.721V259.033H1197.04V262.237H1198.73V270.156H1195.53V273.36H1197.23V285.803H1193.84V289.008H1195.53V304.09H1187.25C1187.06 301.262 1185.36 298.811 1182.73 297.68C1183.48 297.115 1184.05 296.172 1184.05 295.229C1184.05 294.664 1183.86 294.098 1183.48 293.533C1183.67 293.533 1183.86 293.721 1184.05 293.721C1184.99 293.721 1185.74 293.156 1185.74 292.213C1185.74 291.27 1185.18 290.705 1184.05 290.705C1183.1 290.705 1182.35 291.27 1182.35 292.213C1182.35 292.401 1182.35 292.59 1182.54 292.778C1181.97 292.401 1181.41 292.213 1180.84 292.213V290.328C1180.84 289.385 1180.28 288.819 1179.15 288.819C1178.21 288.819 1177.46 289.385 1177.46 290.328V291.836C1175.57 291.836 1174.25 293.156 1174.25 295.041C1174.25 295.983 1174.82 296.926 1175.57 297.492C1173.12 298.623 1171.43 301.074 1171.05 303.901H1166.91V287.688L1164.27 282.41H1150.53L1147.89 287.688V289.008V298.057H1143.75V292.778V291.459L1141.11 286.18H1130.38L1127.74 291.459V303.901H1123.6V294.098H1118.33V243.197H1120.02L1121.72 239.803H1118.14C1118.14 239.615 1118.14 239.615 1118.14 239.426V234.336C1121.15 227.549 1122.09 223.59 1120.96 222.836C1120.4 222.459 1119.83 222.836 1119.08 223.59C1118.14 222.082 1116.45 221.139 1114.56 221.139C1112.49 221.139 1110.8 222.27 1109.85 223.967C1109.1 223.024 1108.35 222.459 1107.78 222.836C1106.65 223.401 1107.78 227.36 1111.17 234.336V239.237C1111.17 239.426 1111.17 239.426 1111.17 239.615H1107.59L1109.29 243.008H1110.98V293.721H1105.71V303.524H1101.57V295.041H1085.38V303.524H1082.74V288.631L1080.1 283.352H1061.08L1058.45 288.631V303.524H1054.49V170.426H1049.03V165.147H1034.16V161.188H1007.04V165.147H1002.9V170.426H998.756V303.901H993.295V281.09H983.88V170.426H962.225V162.697H932.474V170.426H928.331V281.09H918.916V303.901H911.384L905.358 295.041L913.078 270.721L898.203 252.057H895.378L896.508 253.754H889.729L888.599 252.057H886.34L887.281 253.754H879.749L878.996 252.057H876.736L877.301 253.754H866.38L865.815 252.057H863.743L864.308 253.754H852.633L852.257 252.057H849.997L850.374 253.754H838.887V252.057H836.816V253.754H825.518L825.894 252.057H823.823L823.447 253.754H811.583L812.148 252.057H810.265L809.7 253.754H798.591L799.156 252.057H797.084L796.331 253.754H788.611L789.552 252.057H787.104L785.974 253.754H779.195L780.325 252.057H777.501L762.625 270.721L770.345 295.041L764.32 303.901H754.151V279.77H735.133V296.737H730.99V262.992H726.283C725.341 262.992 724.588 262.426 724.399 261.483C722.705 253.754 715.738 248.664 707.829 248.475C701.05 248.287 695.213 251.68 692.2 256.77C691.258 258.278 689.375 259.033 687.68 258.467C686.174 257.901 684.668 257.713 683.161 257.713C678.642 257.713 674.876 259.975 672.616 263.18C671.863 264.311 670.545 264.877 669.227 264.688C668.285 264.5 667.532 264.5 666.402 264.688C660.753 265.065 656.611 269.59 656.611 274.869V280.147H633.638V304.278H629.495V277.131H620.08V282.41H597.107V303.901H592.964C592.964 301.828 591.835 300.131 590.328 299V292.778H580.913V289.385C581.666 289.008 582.231 288.442 582.796 288.065C583.926 286.934 583.926 285.237 582.796 284.106C581.666 282.975 579.971 282.975 578.842 284.106C577.9 285.049 574.699 286.557 568.297 286.557C561.894 286.557 558.693 285.049 557.752 284.106C556.622 282.975 554.927 282.975 553.797 284.106C552.668 285.237 552.668 286.934 553.797 288.065C554.174 288.442 554.739 288.819 555.116 289.196V292.967H552.291C552.103 289.574 549.655 286.746 546.454 285.615C546.83 284.86 547.019 284.106 547.019 283.164C547.019 279.959 544.382 277.319 540.993 277.319C539.486 277.319 538.357 277.885 537.227 278.639C536.474 276.377 534.214 274.68 531.578 274.68C528.942 274.68 526.682 276.377 525.74 278.639C525.364 278.639 524.987 278.451 524.799 278.451C523.857 278.451 523.104 278.639 522.351 278.828C521.221 277.696 519.715 277.131 518.02 277.131C517.267 277.131 516.514 277.319 515.949 277.508L514.631 273.36H511.806L509.735 226.041C509.735 225.287 509.546 224.344 509.358 223.59L520.468 207.942C521.786 207.565 522.916 206.434 522.916 204.926C522.916 203.795 522.163 202.852 521.221 202.287V176.836H517.832V202.098C516.89 202.664 516.137 203.606 516.137 204.737C516.137 205.303 516.325 205.869 516.702 206.434L505.215 218.5C503.897 217.746 502.203 217.18 500.508 217.18C499.001 217.18 497.495 217.557 496.177 218.311L489.021 210.205C489.586 208.885 489.963 207.754 489.963 207.754V195.311C489.963 195.311 487.327 193.803 483.372 193.803C479.983 193.803 476.782 195.311 476.782 195.311V207.754C476.782 207.754 479.795 216.992 483.372 216.992C484.502 216.992 485.632 216.049 486.573 214.729L492.034 222.836C491.658 223.59 491.469 224.533 491.469 225.475L489.21 272.983H486.573L484.879 278.262C484.69 278.262 484.314 278.262 484.126 278.262C481.489 278.262 479.23 279.959 478.477 282.221C477.535 281.467 476.217 280.901 474.71 280.901C473.769 280.901 472.827 281.09 472.074 281.467C471.133 279.582 469.061 278.262 466.613 278.262C464.73 278.262 462.847 279.205 461.906 280.524C460.964 279.959 459.835 279.582 458.516 279.582C457.575 279.582 456.633 279.77 455.88 280.147C454.939 278.451 453.244 277.131 451.173 276.942V274.303L447.03 267.705H436.297V263.746H437.615L434.979 259.787H433.661V246.778H434.979L432.342 242.819H431.024V227.172H431.966L433.661 225.852L431.024 221.893H429.33C429.141 218.311 427.07 215.295 423.869 214.541V211.713H426.505V209.074H423.869V206.434H421.233V209.074H418.596V211.713H421.233V214.541C418.22 215.295 415.96 218.311 415.772 221.893H414.454L411.817 225.852L413.136 227.172H414.454V242.819H413.136L410.499 246.778H411.817V259.787H410.499L407.863 263.746H409.181V274.115H404.85C404.474 270.721 401.461 268.082 397.695 267.705V265.442H399.389V263.934H397.695V262.426H396V263.934H394.117V265.442H396V267.516C392.234 267.893 389.033 270.533 388.845 273.926V269.59C389.598 268.647 390.163 267.516 390.163 266.197C390.163 263.746 387.526 264.123 385.643 262.237V260.164H387.338V258.656H385.643V257.147H383.949V258.656H382.066V260.164H383.949V262.237C383.195 263.18 382.254 263.557 381.312 263.934C381.689 262.992 382.066 262.049 382.066 261.106C382.066 257.901 378.488 258.656 376.228 256.016V253.377H377.923V251.492H376.228V249.606H374.534V251.492H372.651V253.377H374.534V256.016C372.274 258.844 368.508 257.901 368.508 261.295C368.508 262.803 369.073 264.123 369.826 265.254V270.533H366.625C367.755 269.59 368.508 268.27 368.508 266.574C368.508 264.123 365.872 264.5 363.989 262.615V260.541H365.683V259.033H363.989V257.524H362.294V259.033H360.411V260.541H362.294V262.615C360.411 264.688 357.775 264.123 357.775 266.574C357.775 267.893 358.34 269.024 359.093 269.967V270.533H356.457L352.126 277.131H354.762V279.77C354.573 279.77 354.385 279.77 354.009 279.77C352.69 279.77 351.561 280.147 350.619 280.713C349.489 279.393 347.795 278.451 345.912 278.451C343.652 278.451 341.769 279.582 340.639 281.278C340.074 281.09 339.698 281.09 339.133 281.09C335.932 281.09 333.484 283.352 333.107 286.369C329.529 286.746 326.516 289.574 326.328 293.156C323.88 293.91 322.185 296.172 322.185 298.623C322.185 298.811 322.185 298.811 322.185 299C320.491 300.131 319.361 301.828 319.361 303.901V304.467H270.214L206.379 234.524L205.626 232.828H205.061L204.308 232.262L204.12 232.074L203.555 231.697L202.425 233.016H201.672L201.107 234.336L136.519 304.278H132.942C131.812 302.77 130.117 302.016 128.046 302.016C126.539 302.016 125.409 302.582 124.28 303.336C123.526 301.074 121.267 299.377 118.631 299.377C116.748 299.377 114.864 300.319 113.923 301.639C112.981 301.074 111.852 300.697 110.534 300.697C108.651 300.697 106.767 301.639 105.826 302.959C104.884 302.393 103.755 302.016 102.437 302.016C101.118 302.016 99.9886 302.393 99.0471 302.959C99.0471 302.77 99.0471 302.77 99.0471 302.582C99.0471 299.565 96.5992 297.115 93.5863 296.737V257.713H71.9315V266.762H63.8345V251.115H42.1797V266.762H19.2068V304.278H0V322.188H138.967V311.065H143.675V308.426H150.454V311.065H153.09V322.188H157.233V311.065H160.057V308.426H166.836V311.065H169.472V322.188H173.615V311.065H176.251V308.426H183.03V311.065H185.666V322.188H189.809V311.065H192.445V308.426H199.224V322.188H208.639V308.426H215.418V311.065H218.054V322.188H222.197V311.065H224.833V308.426H232.93V311.065H235.566V322.188H239.709V311.065H242.345V308.426H249.124V311.065H251.76V322.188H255.903V311.065H258.539V308.426H265.318V311.065H267.954V322.188H272.097V311.065H274.733V308.426H281.512V311.065H284.148V322.188H288.291V311.065H290.927V308.426H299.024V311.065H301.66V322.188H305.803V311.065H308.439V308.426H315.218V311.065H319.361V322.188H1278.76V322ZM1399.09 278.451L1402.85 294.664L1397.39 280.901L1399.09 278.451ZM1400.41 295.983L1393.63 285.992V285.615L1395.32 283.352L1400.41 295.983ZM1398.33 275.057L1396.26 277.885L1393.06 269.967L1396.26 265.819L1398.33 275.057ZM1391.55 249.795H1392.5L1395.51 262.615L1391.93 267.328L1391.55 266.385V249.795ZM1391.55 273.737L1394.19 280.524L1391.55 284.106V273.737ZM1391.55 287.5L1398.9 298.434C1398.15 298.057 1397.2 297.869 1396.26 297.869C1394.38 297.869 1392.68 298.811 1391.55 300.131V287.5ZM1388.73 287.877V301.074C1388.35 301.262 1387.98 301.451 1387.6 301.639L1385.91 296.36L1388.73 287.877ZM1386.09 287.5L1384.59 291.836L1383.08 287.5H1386.09ZM1380.63 288.631L1383.08 296.172L1382.89 296.926C1382.33 296.737 1381.95 296.737 1381.39 296.737C1381.2 296.737 1381.01 296.737 1380.63 296.737V288.631ZM1375.17 299.377C1374.61 299.377 1374.04 299.565 1373.67 299.754L1372.54 296.172L1375.36 287.877V299.377H1375.17ZM1372.54 287.5L1371.03 291.836L1369.52 287.5H1372.54ZM1367.08 288.631L1369.52 296.172L1369.15 297.492C1368.58 297.115 1367.83 296.926 1367.08 296.926V288.631ZM1364.44 287.877V296.926C1362.74 297.492 1361.24 298.811 1360.67 300.508C1360.3 300.508 1359.92 300.319 1359.73 300.319C1358.23 300.319 1356.72 300.885 1355.59 301.828C1355.4 301.639 1355.21 301.639 1355.02 301.451L1364.44 287.877ZM1362.18 286.18L1355.78 295.795L1360.67 283.918L1362.18 286.18ZM1361.8 281.09L1364.44 274.68V284.483L1364.25 284.295L1361.8 281.09ZM1363.87 249.795H1364.44V267.328L1364.25 267.516L1360.86 262.992L1363.87 249.795ZM1360.11 266.385L1363.12 270.533L1359.92 278.639L1357.85 276L1360.11 266.385ZM1357.1 279.205L1358.79 281.278L1353.89 293.344L1357.1 279.205ZM898.014 255.639L907.994 270.533H906.488C905.923 270.344 905.546 269.778 904.417 269.778C903.287 269.778 902.722 270.344 902.157 270.533H900.651L891.235 255.639H898.014ZM888.411 255.639L896.32 270.533H893.872C893.307 270.156 892.554 269.59 891.424 269.59C890.294 269.59 889.541 270.156 888.976 270.533H887.281L880.502 255.639H888.411ZM878.054 255.639L883.515 270.533H882.009C881.255 270.156 880.126 269.024 878.054 269.024C875.983 269.024 875.041 270.156 874.288 270.533H871.84L866.944 255.639H878.054ZM864.685 255.639L868.827 270.533H866.38C865.438 270.156 864.308 269.024 862.425 269.024C860.354 269.024 859.224 270.156 858.471 270.533H856.211L853.01 255.639H864.685ZM838.699 255.639H850.75L853.763 270.533H851.127C850.185 270.156 848.867 268.647 846.419 268.647C843.971 268.647 842.653 270.156 841.712 270.533H838.887V255.639H838.699ZM824.765 255.639H836.439V270.533H834.18C833.238 270.156 831.92 268.647 829.472 268.647C827.024 268.647 825.706 270.156 824.765 270.533H821.94L824.765 255.639ZM810.83 255.639H822.693L819.304 270.533H817.044C816.103 270.156 814.973 269.024 813.09 269.024C811.019 269.024 809.889 270.156 809.136 270.533H806.688L810.83 255.639ZM797.461 255.639H808.759L803.863 270.533H801.227C800.474 270.156 799.344 269.024 797.461 269.024C795.389 269.024 794.448 270.156 793.506 270.533H792L797.461 255.639ZM787.104 255.639H795.013L788.234 270.533H786.539C785.974 270.156 785.221 269.59 784.091 269.59C782.961 269.59 782.208 270.156 781.643 270.533H779.007L787.104 255.639ZM769.215 270.533H767.709L777.689 255.639H784.468L775.053 270.533H773.358C772.793 270.344 772.417 269.778 771.287 269.778C770.157 269.778 769.592 270.344 769.215 270.533ZM199.224 304.467H189.244L199.224 276.942V304.467ZM199.224 269.024L186.231 304.467H171.732L199.036 263.18V269.024H199.224ZM199.224 258.278L168.719 304.467H156.668L199.412 250.737V258.278H199.224ZM199.224 246.401L153.278 304.09L153.655 304.278H139.909L199.036 240.18V246.401H199.224ZM208.639 304.467V277.319L218.431 304.467H208.639ZM221.255 304.467L208.639 269.401V263.557L235.378 304.467H221.255ZM238.767 304.467L208.827 258.656V251.115L250.819 304.467H238.767ZM254.02 304.467L208.639 246.778V240.746L266.825 304.656H254.02V304.467Z" fill="#1F4E9D"/>
</svg>
