<svg width="89" height="82" viewBox="0 0 89 82" fill="none" xmlns="http://www.w3.org/2000/svg">
<g clip-path="url(#clip0_18_2981)">
<path d="M0 72.8977C0.194493 71.7549 0.27229 70.5728 0.583479 69.4301C1.86713 65.0168 4.70673 62.0615 9.02448 60.5248C9.18007 60.4854 9.33566 60.4065 9.53016 60.3277C3.53977 55.4416 4.43444 47.7184 8.51879 43.8568C12.7976 39.7982 19.3326 39.9164 23.417 44.1326C27.4624 48.3095 27.8125 55.6781 22.1333 60.3277C22.4056 60.446 22.639 60.5248 22.8724 60.6036C27.9292 62.3768 31.3912 67.1052 31.5468 72.5036C31.5857 73.804 31.5468 75.1043 31.5857 76.3652C31.6246 77.1139 31.3134 77.6262 30.6521 78.0202C27.1123 80.148 23.3392 81.3695 19.2548 81.803C12.8754 82.4729 6.84615 81.409 1.24476 78.1384C0.739073 77.8232 0.427885 77.2321 0 76.7593C0 75.4983 0 74.198 0 72.8977ZM15.8317 62.2191C15.8317 62.2585 15.8317 62.2979 15.8317 62.3768C14.8593 62.3768 13.8479 62.3374 12.8754 62.3768C8.3632 62.495 4.43444 65.2927 3.15079 69.6665C2.64511 71.3609 2.7618 73.2523 2.52841 75.0255C2.41171 75.853 2.8007 76.2864 3.50087 76.641C11.4362 80.5027 19.3715 80.5421 27.4235 77.0351C28.7072 76.4834 29.4073 75.8136 29.1351 74.3162C29.0184 73.7645 29.1351 73.2129 29.0962 72.6612C28.9406 67.8539 25.712 63.7953 21.083 62.7314C19.3715 62.3373 17.5822 62.3768 15.8317 62.2191ZM15.7928 59.8943C20.3051 59.8943 24.0004 56.1903 24.0004 51.6194C24.0004 47.088 20.3051 43.384 15.8706 43.384C11.3973 43.3446 7.70192 47.0879 7.70192 51.58C7.62413 56.1509 11.2806 59.8943 15.7928 59.8943Z" fill="#1F4E9D"/>
<path d="M51.424 62.7313C50.9183 66.9476 48.4677 69.3512 44.8501 69.3512C41.1936 69.3512 38.7041 66.8293 38.2762 62.7313C38.0817 62.6919 37.8483 62.6919 37.6149 62.6525C35.4366 62.4161 33.9974 60.8399 33.9585 58.5939C33.9585 57.6876 33.9196 56.7813 33.9585 55.875C33.9974 55.3627 33.8418 55.0475 33.3361 54.7717C32.2469 54.1806 31.6635 53.2349 31.6635 51.974C31.6246 50.122 31.0022 48.5458 29.8741 47.1273C29.174 46.2604 28.4738 45.3935 27.7736 44.5266C24.7784 40.7832 23.8059 36.4094 24.2727 31.7203C25.2452 21.8692 31.9747 14.6583 41.6993 13.0821C52.163 11.3877 62.3156 18.047 64.8829 28.4497C65.1552 29.5136 64.844 30.1835 64.066 30.3805C63.3658 30.5775 62.7823 30.1047 62.549 29.0802C60.2539 20.6083 52.9021 15.0523 44.2277 15.2887C33.6473 15.5646 25.5564 24.9033 26.7233 35.5425C27.0734 38.616 28.2404 41.2955 30.1853 43.6203C30.8855 44.4478 31.5468 45.3147 32.1691 46.1816C33.3361 47.7577 33.9196 49.5309 34.0363 51.5011C34.0752 52.5256 34.3864 52.8015 35.3588 52.8015C41.6604 52.8015 47.9231 52.8015 54.2246 52.8015C55.1971 52.8015 55.5861 52.4862 55.5861 51.6194C55.5861 49.2945 56.4808 47.3637 57.8811 45.5905C58.5035 44.8024 59.1648 43.975 59.7872 43.1869C61.771 40.7438 62.8212 37.9461 62.9379 34.7938C62.9379 34.3603 62.9768 33.9269 63.0157 33.4935C63.0935 32.5872 63.5603 32.1143 64.2994 32.1537C64.9996 32.1931 65.5052 32.7054 65.4274 33.5329C65.233 35.3454 65.1163 37.158 64.7273 38.9312C64.2216 41.3349 62.8601 43.3445 61.3431 45.1965C60.6818 45.9846 60.0594 46.7726 59.4371 47.6001C58.5424 48.8217 58.0367 50.1614 58.0367 51.6982C58.0367 53.1167 57.4143 54.22 56.1307 54.9293C55.8973 55.0475 55.7028 55.4416 55.7028 55.7174C55.6639 56.6631 55.7028 57.6088 55.6639 58.5545C55.6639 60.9581 54.2247 62.4949 51.8518 62.6919C51.7351 62.6919 51.6184 62.6919 51.424 62.7313ZM53.2522 55.3233C47.6119 55.3233 42.0494 55.3233 36.3702 55.3233C36.3702 56.3873 36.3702 57.4118 36.3702 58.4363C36.3702 59.6578 36.8759 60.2095 38.0817 60.2095C39.2876 60.2095 40.4545 60.2095 41.6604 60.2095C44.9279 60.2095 48.1954 60.2095 51.4629 60.2095C52.5131 60.2095 53.1744 59.8154 53.2133 59.0273C53.2911 57.8058 53.2522 56.5843 53.2522 55.3233ZM40.7268 62.6919C40.6879 64.3863 41.3881 65.6078 42.7885 66.3565C44.3833 67.184 45.9781 67.0658 47.4563 65.9625C48.5066 65.1744 49.0511 64.1105 48.8566 62.6919C46.1337 62.6919 43.4886 62.6919 40.7268 62.6919Z" fill="#A8285D"/>
<path d="M66.9445 60.3276C61.3042 55.7173 61.6154 48.27 65.7386 44.0931C69.9397 39.8375 76.7858 39.8769 80.8702 44.2113C84.9545 48.5064 85.1101 55.8356 79.5476 60.3276C79.6643 60.4064 79.781 60.4852 79.8977 60.5246C85.6158 62.6131 88.8055 66.9869 88.9611 73.0552C89 74.1585 88.9611 75.3012 88.9611 76.4045C89 77.1926 88.6499 77.7048 87.9497 78.0989C82.9707 81.0542 77.6027 82.2363 71.8846 81.9999C67.1779 81.8029 62.7434 80.5813 58.6202 78.2171C57.8033 77.7442 57.4143 77.1532 57.4921 76.1681C57.6866 73.9615 57.4921 71.6366 58.0367 69.5482C59.1647 65.0561 62.121 62.1008 66.4777 60.6035C66.5555 60.564 66.6333 60.564 66.7111 60.5246C66.7889 60.4458 66.8278 60.4064 66.9445 60.3276ZM73.3238 62.219C73.3238 62.2584 73.3238 62.2978 73.3238 62.3766C72.2736 62.3766 71.2233 62.3372 70.212 62.3766C65.8164 62.6525 62.7045 64.7803 60.8374 68.8389C59.9038 70.8879 60.0205 73.0552 59.9816 75.2224C59.9816 75.9317 60.215 76.2469 60.7985 76.5621C64.3383 78.4141 68.0725 79.3598 72.0402 79.5174C76.9025 79.7145 81.5314 78.7688 85.8881 76.4833C86.4327 76.2075 86.6272 75.8529 86.5883 75.2618C86.5105 74.2373 86.5883 73.2128 86.5105 72.1883C86.1604 67.578 83.0096 63.7164 78.5362 62.7313C76.8247 62.3372 75.0743 62.3766 73.3238 62.219ZM73.246 59.8942C77.7194 59.8942 81.4147 56.2296 81.4147 51.6981C81.4536 47.1272 77.7972 43.3838 73.2849 43.3838C68.8116 43.3838 65.0773 47.1272 65.1162 51.6981C65.1162 56.1902 68.7338 59.8942 73.246 59.8942Z" fill="#1F4E9D"/>
<path d="M48.74 42.8716C48.5455 43.7779 48.351 44.5266 48.1565 45.2753C47.8842 46.5362 47.573 46.7726 46.3282 46.7726C45.2391 46.7726 44.111 46.7726 43.0219 46.7726C42.205 46.7726 41.7382 46.3786 41.5437 45.5905C41.3492 44.7236 41.1547 43.8961 40.9213 42.8716C40.1045 43.3839 39.4043 43.8567 38.7041 44.2902C37.7706 44.8418 37.4205 44.8024 36.6425 44.0538C35.8256 43.2657 35.0476 42.4382 34.2308 41.6107C33.5695 40.9802 33.5306 40.3104 34.0363 39.5617C34.5031 38.8524 34.931 38.1431 35.4366 37.2762C34.5031 37.0792 33.7251 36.8822 32.9471 36.6852C31.858 36.4094 31.6246 36.1335 31.6246 34.9908C31.6246 33.8875 31.6246 32.7448 31.6246 31.6415C31.6246 30.5381 31.858 30.2623 32.9082 29.9865C33.6473 29.7895 34.3864 29.6318 35.0865 29.4348C35.1254 29.4348 35.1643 29.356 35.3977 29.2378C35.0087 28.6073 34.5809 27.9375 34.1919 27.307C33.4917 26.1643 33.4917 25.8096 34.4642 24.8639C35.2032 24.0759 35.9812 23.3272 36.7203 22.5391C37.3038 21.9086 37.965 21.8692 38.6652 22.3421C39.3654 22.8149 40.0656 23.2484 40.9213 23.7606C41.1547 22.8149 41.3881 21.9874 41.5437 21.1206C41.6993 20.2537 42.205 19.8596 43.0608 19.8596C44.2666 19.8596 45.4336 19.8596 46.6394 19.8596C47.4952 19.8596 48.0009 20.2537 48.1565 21.1206C48.3121 21.948 48.5066 22.7755 48.74 23.7606C49.5568 23.2484 50.2181 22.8149 50.8794 22.4209C51.8518 21.7904 52.2797 21.8298 53.0966 22.6573C53.9135 23.4454 54.6914 24.2729 55.5083 25.1004C56.0918 25.6914 56.1696 26.2825 55.7417 26.9918C55.2749 27.701 54.847 28.4497 54.3025 29.356C55.3138 29.5924 56.1307 29.8289 56.9476 29.9865C57.7644 30.1441 58.1534 30.6169 58.1534 31.4444C58.1534 32.666 58.1534 33.9269 58.1534 35.1484C58.1534 35.9365 57.8033 36.4094 57.0254 36.6064C56.1696 36.8034 55.3138 37.0398 54.3025 37.2762C54.8081 38.1037 55.236 38.7736 55.6639 39.4829C56.2474 40.4286 56.2085 40.8226 55.4305 41.6501C54.6525 42.4776 53.8357 43.2657 53.0188 44.0932C52.4353 44.7236 51.8129 44.8024 51.0739 44.2902C50.3348 43.8567 49.5957 43.4233 48.74 42.8716ZM53.2133 26.4401C53.1355 26.3219 53.0966 26.2431 53.0188 26.1643C51.8129 24.8245 51.8129 24.8245 50.257 25.8096C48.6233 26.8736 46.6783 26.0461 46.2893 24.1547C46.2115 23.8788 46.1337 23.603 46.0949 23.2878C46.056 22.5785 45.7059 22.3815 45.0057 22.4209C43.7609 22.4603 43.7609 22.4209 43.4497 23.7212C43.3719 23.9971 43.3719 24.3123 43.2553 24.5881C43.0608 24.9822 42.8663 25.455 42.5162 25.6914C41.3492 26.4401 40.1434 26.7159 38.9764 25.5732C38.7819 25.3762 38.5485 25.258 38.3151 25.1792C38.1206 25.1004 37.8095 25.1004 37.6539 25.2186C37.1871 25.5338 36.7592 25.9279 36.2924 26.2825C36.7981 26.9918 37.1093 27.504 37.4205 28.0163C38.3929 29.553 37.5761 31.5232 35.7867 31.9173C33.9196 32.3507 33.9196 32.3507 34.0363 34.2815C34.0363 34.3209 34.0752 34.3997 34.1141 34.4391C35.281 35.0302 36.837 34.6362 37.5761 36.4094C38.354 38.2613 36.9148 39.0888 36.5258 40.2316C37.0315 40.8226 37.4594 41.3743 37.8872 41.9259C38.4707 41.5713 38.9375 41.2561 39.4432 40.9408C40.9991 39.9557 42.9052 40.7832 43.3331 42.5958C43.7609 44.4872 43.7609 44.4872 45.667 44.4084C45.7059 44.4084 45.7837 44.369 45.8226 44.369C46.4449 43.1475 46.0171 41.5319 47.8453 40.7832C49.6735 40.0345 50.4515 41.5319 51.6962 41.8865C52.2019 41.4137 52.7076 40.9408 53.1355 40.5074C52.6687 39.1676 51.2684 38.3402 52.0463 36.4882C52.7854 34.6756 54.4191 35.1484 55.5861 34.4786C55.7417 32.4295 55.7417 32.4295 53.8746 31.9961C53.6412 31.9567 53.4078 31.9567 53.2133 31.8385C52.9021 31.6415 52.5909 31.405 52.3964 31.1292C51.6962 29.9471 51.4629 28.7255 52.552 27.5828C52.8243 27.1888 52.9799 26.7947 53.2133 26.4401Z" fill="#A8285D"/>
<path d="M76.2024 32.7447C76.9804 31.9172 77.6027 31.208 78.3029 30.4987C78.9642 29.7894 79.6644 29.75 80.2089 30.3017C80.7535 30.8533 80.6757 31.5626 80.0144 32.2325C78.6141 33.651 77.2526 35.0696 75.8523 36.4487C75.1132 37.1974 74.4908 37.1974 73.7518 36.4487C72.3125 35.0302 70.9122 33.6116 69.5118 32.1537C68.9283 31.5232 68.8895 30.7745 69.3562 30.2623C69.8619 29.75 70.5621 29.75 71.1845 30.3805C71.9624 31.1292 72.6626 31.9172 73.4017 32.7053C73.5184 32.6659 73.6351 32.6265 73.7129 32.5871C73.4795 30.8139 73.3628 29.0013 72.9738 27.2676C71.3012 19.7414 67.2557 13.8307 60.9541 9.49629C60.8763 9.41749 60.7596 9.37808 60.6818 9.29927C59.8261 8.70821 59.6316 8.03834 60.0595 7.40788C60.4873 6.77741 61.1875 6.6986 61.9655 7.25026C69.2006 12.097 73.7518 18.7957 75.4633 27.4252C75.8134 29.1196 75.9301 30.8139 76.2024 32.7447Z" fill="#1F4E9D"/>
<path d="M16.2985 32.7842C17.0376 31.9961 17.7767 31.1687 18.5546 30.3806C19.177 29.7501 19.8772 29.7501 20.3829 30.3412C20.8886 30.9322 20.8108 31.5233 20.3051 32.075C18.8269 33.6117 17.3488 35.1091 15.8317 36.6064C15.2872 37.1581 14.6259 37.1581 14.0424 36.6064C12.5254 35.1091 11.0472 33.5723 9.56907 32.075C9.06339 31.5233 9.02449 30.9322 9.49127 30.3412C9.95806 29.7895 10.6582 29.7895 11.2806 30.3412C12.0197 31.0505 12.7199 31.8385 13.5756 32.7448C13.7701 31.0504 13.8868 29.6319 14.1202 28.174C15.6373 19.2686 20.2273 12.3335 27.618 7.32916C28.4738 6.7381 29.174 6.77751 29.6018 7.40797C30.0686 8.07784 29.8352 8.78712 28.9406 9.37818C22.4445 13.7914 18.2824 19.8597 16.6097 27.6223C16.4152 28.5286 16.2985 29.3955 16.1818 30.3018C16.104 31.0505 16.0651 31.8385 16.0262 32.5872C16.1429 32.666 16.2207 32.7054 16.2985 32.7842Z" fill="#1F4E9D"/>
<path d="M58.1923 4.13736C57.92 4.5708 57.7644 4.92544 57.5311 5.20127C55.8973 6.85624 54.2636 8.55062 52.6298 10.1662C52.0075 10.7967 51.3073 10.8361 50.8016 10.3238C50.2959 9.81155 50.2959 9.06287 50.9183 8.47181C52.552 6.77743 54.2247 5.12246 55.8973 3.42808C56.3252 2.99464 56.8309 2.71881 57.3755 3.11285C57.6867 3.34927 57.8811 3.78272 58.1923 4.13736Z" fill="#1F4E9D"/>
<path d="M39.4432 9.53573C39.132 9.89036 38.8986 10.442 38.5485 10.5208C38.1206 10.639 37.4593 10.5208 37.1482 10.245C36.059 9.2599 35.0476 8.15658 33.9974 7.09267C33.375 6.4622 32.7137 5.83174 32.0913 5.16187C31.5079 4.5314 31.5079 3.82213 32.0524 3.30987C32.5581 2.79762 33.2194 2.83702 33.8418 3.42809C35.5533 5.12246 37.226 6.81684 38.8597 8.55062C39.0931 8.78705 39.2098 9.10228 39.4432 9.53573Z" fill="#1F4E9D"/>
<path d="M43.6442 4.92552C43.6442 3.74339 43.6442 2.56127 43.6442 1.41855C43.6442 0.551658 44.1499 0 44.8501 0C45.5503 0 46.0559 0.551658 46.0559 1.41855C46.0559 3.7828 46.0948 6.18645 46.0559 8.5507C46.0559 9.41759 45.5114 9.96924 44.8112 9.92984C44.1499 9.89044 43.6831 9.37818 43.6442 8.5507C43.6442 7.36857 43.6442 6.14704 43.6442 4.92552Z" fill="#1F4E9D"/>
<path d="M50.9961 33.454C50.9572 36.9216 48.1954 39.6404 44.7334 39.6404C41.3881 39.601 38.6263 36.7639 38.6263 33.3752C38.6652 29.947 41.4659 27.1099 44.8501 27.1493C48.3121 27.1493 51.035 29.947 50.9961 33.454ZM48.5844 33.3752C48.5844 31.2474 46.9117 29.553 44.8112 29.553C42.7496 29.553 41.0381 31.3262 41.077 33.4146C41.1159 35.503 42.7496 37.158 44.8112 37.158C46.9117 37.158 48.5844 35.503 48.5844 33.3752Z" fill="#A8285D"/>
</g>
<defs>
<clipPath id="clip0_18_2981">
<rect width="89" height="82" fill="white"/>
</clipPath>
</defs>
</svg>
