<svg width="80" height="80" viewBox="0 0 80 80" fill="none" xmlns="http://www.w3.org/2000/svg">
<g clip-path="url(#clip0_18_2918)">
<path d="M56.19 21.3233C54.7368 21.3233 53.5445 21.3233 52.3521 21.3233C50.8617 21.3233 50.3027 20.3541 51.048 19.0493C54.5133 13.0102 57.9413 6.93378 61.4066 0.894639C62.0773 -0.260999 63.3069 -0.260999 63.9776 0.857361C67.4802 6.93378 70.9455 13.0475 74.4108 19.1612C75.0815 20.3168 74.4853 21.2861 73.1439 21.3233C71.9143 21.3606 70.6847 21.3233 69.3433 21.3233C69.3433 21.6216 69.3433 21.8825 69.3433 22.1435C69.3433 24.0074 69.3433 25.8713 69.3433 27.7353C69.3433 28.7045 68.8216 29.3383 68.0391 29.3383C67.2194 29.3383 66.6977 28.7418 66.6977 27.7726C66.6977 25.2749 66.6977 22.7772 66.6977 20.2795C66.6977 19.1985 67.1821 18.7138 68.2627 18.6766C69.157 18.6766 70.014 18.6766 71.0573 18.6766C68.2627 13.7558 65.5054 8.98411 62.6735 4.02605C59.8789 8.94683 57.1216 13.7185 54.2897 18.6766C55.2585 18.6766 56.0783 18.6766 56.9353 18.6766C58.2394 18.6766 58.6865 19.1239 58.6865 20.4287C58.6493 24.1565 58.7611 27.8844 58.5375 31.575C57.7923 42.9077 53.6563 52.9356 46.3531 61.5843C40.3167 68.7045 32.8645 73.849 24.1081 77.0177C23.9218 77.0922 23.7727 77.1668 23.6237 77.3159C30.8524 77.3159 38.0438 77.3159 45.3843 77.3159C45.3843 76.9431 45.3843 76.6076 45.3843 76.2721C45.3843 74.4827 45.3843 72.6561 45.3843 70.8667C45.3843 69.9347 45.9432 69.3755 46.7257 69.3755C47.5082 69.3755 48.0671 69.9347 48.0671 70.8667C48.0671 72.9916 48.0671 75.1537 48.0671 77.3159C50.7499 77.3159 53.3582 77.3159 56.0783 77.3159C56.0783 76.9804 56.0783 76.6822 56.0783 76.3839C56.0783 71.1649 56.0783 65.9459 56.0783 60.7269C56.0783 60.4659 56.0783 60.2423 56.0783 59.9813C56.1528 59.2357 56.6744 58.7138 57.3824 58.7138C58.0904 58.7138 58.6865 59.2357 58.7238 60.0186C58.7611 60.2795 58.7238 60.5032 58.7238 60.7642C58.7238 65.9459 58.7238 71.1649 58.7238 76.3466C58.7238 76.6449 58.7238 76.9431 58.7238 77.3159C61.3694 77.3159 64.0149 77.3159 66.735 77.3159C66.735 76.9804 66.735 76.6822 66.735 76.3466C66.735 65.8713 66.735 55.396 66.735 44.9207C66.735 44.6971 66.735 44.4734 66.735 44.2497C66.7722 43.2805 67.2939 42.684 68.1136 42.7213C68.8961 42.7586 69.4178 43.3177 69.4178 44.2497C69.4178 45.2935 69.4178 46.3746 69.4178 47.4184C69.4178 57.0363 69.4178 66.6542 69.4178 76.2721C69.4178 76.6076 69.4178 76.9431 69.4178 77.3532C72.0633 77.3532 74.6716 77.3532 77.429 77.3532C77.429 77.0177 77.429 76.6822 77.429 76.3466C77.429 57.8564 77.429 39.3289 77.429 20.8387C77.429 20.5405 77.3917 20.205 77.4662 19.9068C77.578 19.1985 78.0251 18.7511 78.7704 18.7511C79.5156 18.7511 79.9627 19.1985 80.0745 19.9068C80.1118 20.1677 80.1118 20.3914 80.1118 20.6523C80.1118 39.8136 80.1118 59.0121 80.1118 78.1733C80.1118 79.7017 79.7392 80.0745 78.2115 80.0745C52.8365 80.0745 27.4243 80.0745 2.04937 80.0745C1.86306 80.0745 1.67676 80.0745 1.45319 80.0745C0.521658 79.9254 0 79.4035 0 78.6952C0 77.9123 0.521658 77.3904 1.37867 77.3532C1.67676 77.3532 1.97485 77.3532 2.3102 77.3532C5.99907 77.2041 9.7252 77.2786 13.3768 76.8313C23.5491 75.5638 32.4173 71.314 39.9441 64.4175C48.8496 56.2534 54.1779 46.1137 55.6311 34.0726C56.1155 29.8974 56.0037 25.6477 56.19 21.3233Z" fill="#1F4E9D"/>
<path d="M34.6903 42.6839C31.9702 42.6839 29.3619 42.6839 26.6791 42.6839C26.6791 43.0567 26.6791 43.3549 26.6791 43.6904C26.6791 51.929 26.6791 60.2049 26.6791 68.4434C26.6791 68.6298 26.6791 68.8162 26.6791 69.0399C26.6791 70.0837 26.1574 70.6802 25.3004 70.6802C24.5179 70.6429 23.9963 70.0464 23.9963 69.0772C23.9963 64.4174 23.9963 59.7575 23.9963 55.0977C23.9963 50.6988 23.9963 46.2626 23.9963 41.8638C23.9963 40.4845 24.4061 40.0371 25.7476 40.0371C29.0266 40.0371 32.3055 40.0371 35.5845 40.0371C36.8514 40.0371 37.3358 40.4845 37.3358 41.7146C37.3358 48.6112 37.3358 55.5078 37.3358 62.367C37.3358 62.4789 37.3358 62.5907 37.3358 62.7025C37.2613 63.4854 36.7396 64.0446 35.9944 64.0446C35.2864 64.0446 34.6903 63.5227 34.6903 62.7025C34.653 61.5469 34.6903 60.4285 34.6903 59.2729C34.6903 54.0912 34.6903 48.8721 34.6903 43.6904C34.6903 43.3549 34.6903 43.0567 34.6903 42.6839Z" fill="#A8285D"/>
<path d="M13.3395 53.3456C10.6567 53.3456 8.04844 53.3456 5.32837 53.3456C5.32837 53.6438 5.32837 53.9421 5.32837 54.2403C5.32837 60.3913 5.32837 66.505 5.32837 72.6559C5.32837 72.9169 5.36563 73.2151 5.29111 73.4761C5.14206 74.1844 4.73219 74.6317 3.98696 74.6317C3.24173 74.6317 2.7946 74.1844 2.68281 73.4761C2.64555 73.2524 2.64555 73.0287 2.64555 72.8051C2.64555 66.0204 2.64555 59.2356 2.64555 52.4882C2.64555 51.0716 3.05543 50.6243 4.47136 50.6243C7.71309 50.6243 10.9548 50.6243 14.2338 50.6243C15.538 50.6243 16.0224 51.0716 16.0224 52.3391C16.0224 58.751 16.0224 65.1629 16.0224 71.5749C16.0224 71.7613 16.0224 71.9849 15.9851 72.1713C15.8361 72.8796 15.3517 73.2897 14.6437 73.2897C13.9357 73.2524 13.5259 72.8423 13.3768 72.1713C13.3395 71.9104 13.3395 71.6121 13.3395 71.3512C13.3395 65.3866 13.3395 59.422 13.3395 53.3456Z" fill="#A8285D"/>
<path d="M47.9926 31.9849C47.9926 34.3335 47.9926 36.5329 47.9926 38.7696C47.9926 42.1993 47.9926 45.6662 47.9926 49.0958C47.9926 50.1023 47.3964 50.7361 46.5766 50.6615C45.8314 50.6242 45.347 50.0278 45.347 49.1704C45.347 46.8218 45.347 44.436 45.347 42.0874C45.347 38.4341 45.347 34.7435 45.347 31.0902C45.347 29.7855 45.7941 29.3381 47.0983 29.3381C48.6633 29.3381 50.191 29.3381 51.7559 29.3381C52.7247 29.3381 53.3209 29.86 53.3582 30.6429C53.3582 31.463 52.762 31.9849 51.7932 31.9849C50.5636 31.9849 49.334 31.9849 47.9926 31.9849Z" fill="#A8285D"/>
<path d="M68.0391 31.9851C68.7471 32.0223 69.3433 32.6188 69.3433 33.3644C69.306 34.0727 68.7098 34.6691 67.9646 34.6691C67.2566 34.6318 66.6605 34.0354 66.6605 33.2898C66.6977 32.5442 67.3312 31.9478 68.0391 31.9851Z" fill="#1F4E9D"/>
</g>
<defs>
<clipPath id="clip0_18_2918">
<rect width="80" height="80" fill="white"/>
</clipPath>
</defs>
</svg>
