<svg width="89" height="88" viewBox="0 0 89 88" fill="none" xmlns="http://www.w3.org/2000/svg">
<g clip-path="url(#clip0_18_2950)">
<path d="M-2.95341e-05 67.0027C0.544075 66.3342 1.01045 65.5871 1.59342 64.958C3.18687 63.2672 4.85805 61.6157 6.49036 59.9643C8.04495 58.3914 9.17202 58.3128 10.9987 59.6104C12.1646 58.588 12.8253 57.3298 12.8642 55.7569C12.903 54.1448 12.8642 52.5326 12.9419 50.9205C13.0585 49.1904 13.7969 47.6962 15.0017 46.4772C16.9838 44.4325 19.0048 42.4272 21.0257 40.3825C22.2305 39.1636 23.7463 38.5344 25.534 38.2985C24.6401 36.6077 24.7956 34.8383 24.7956 33.1081C24.7956 30.9848 24.7956 28.8222 24.7956 26.6989C24.7956 24.6148 25.534 22.8061 26.972 21.3119C27.827 20.4075 28.7209 19.5425 29.6148 18.6381C30.703 17.4978 31.2083 16.0822 31.0917 14.4308C30.8973 14.3914 30.703 14.3128 30.5087 14.2735C29.1096 13.9589 28.1768 12.9759 28.1768 11.521C28.138 8.57195 28.138 5.66221 28.1768 2.71315C28.2157 1.101 29.3816 -0.0393066 30.9751 -0.0393066C39.0589 -0.0393066 47.1428 -0.0393066 55.2266 -0.0393066C56.8589 -0.0393066 58.0249 1.14032 58.0249 2.79179C58.0637 5.38697 58.0249 8.02146 58.0249 10.6166C58.0249 13.0545 57.5973 13.6837 55.2655 14.3914C55.0711 16.0036 55.3043 17.4978 56.3925 18.756C57.8305 20.4468 58.3746 22.3736 58.3746 24.5755C58.3358 29.1367 58.3358 33.6586 58.3746 38.2198C58.3746 38.6524 58.6078 39.0849 58.7244 39.5174C59.8126 39.1242 60.7065 38.6917 61.6781 38.4951C63.9711 37.9839 66.0698 38.6131 67.7799 40.2252C69.9563 42.3092 72.055 44.5112 74.1537 46.6738C75.3585 47.9321 75.9026 49.4656 76.0969 51.1564C76.2135 51.6676 76.2135 53.5157 76.1746 53.8302C75.9415 56.0322 76.2135 58.0375 78.0013 59.5317C80.0611 58.2341 80.955 58.3521 82.665 60.0429C84.4528 61.8517 86.2406 63.6604 87.9895 65.4692C89.3886 66.8847 89.3497 68.4576 87.9895 69.8731C82.4318 75.5353 76.8742 81.1582 71.2777 86.7811C69.762 88.3146 68.324 88.2753 66.8083 86.7811C64.9816 84.933 63.1161 83.0456 61.2895 81.1975C59.8904 79.782 59.8126 78.563 60.9786 76.8722C59.9292 75.496 58.569 74.6703 56.8201 74.513C54.9546 74.3557 53.3611 73.5693 52.0397 72.2717C50.7183 70.9348 49.3969 69.6372 48.1144 68.3003C47.3759 67.5532 47.2982 66.8454 47.8423 66.2163C48.4253 65.6265 49.2026 65.7051 49.9799 66.4522C51.2624 67.7498 52.5838 69.0474 53.8663 70.345C54.7214 71.2493 55.7707 71.7605 57.0144 71.8785C59.3851 72.0751 61.3284 73.1367 62.7663 74.8669C67.2358 70.345 71.6663 65.9017 76.1358 61.3798C74.7755 60.0822 73.8039 58.5094 73.6096 56.5827C73.4541 55.2851 73.493 53.9482 73.5318 52.6506C73.6484 50.6059 72.9489 48.9938 71.4332 47.5782C69.6065 45.8481 67.8965 44 66.1476 42.2699C64.6707 40.815 62.7275 40.5398 60.9397 41.5621C61.7947 42.4272 62.6109 43.2529 63.427 44.118C63.6602 44.3539 63.9323 44.5898 64.1655 44.8651C64.7096 45.4942 64.7484 46.2413 64.2432 46.7525C63.738 47.303 62.9218 47.303 62.3 46.6738C61.2506 45.6515 60.2401 44.5898 59.2297 43.5675C58.9965 43.3316 58.7633 43.135 58.4524 42.8204C58.4135 43.2136 58.4135 43.4888 58.4135 43.7641C58.4135 46.2806 58.3358 48.7972 58.4135 51.3137C58.569 55.0492 55.3821 57.2118 52.4283 56.1895C52.3506 56.1501 52.2729 56.1895 52.0786 56.1895C52.0786 56.9366 52.0397 57.6443 52.0786 58.3914C52.3506 61.9696 49.4358 64.6041 45.7436 63.3459C45.2384 64.958 44.2668 66.1376 42.5956 66.6881C42.3624 66.7668 42.207 67.0027 42.0126 67.1993C40.3803 68.8508 38.7869 70.4629 37.1546 72.1144C35.7554 73.5693 34.1231 74.4343 32.1021 74.5916C30.431 74.7096 29.1096 75.5746 28.0602 76.8722C29.2262 78.9169 29.1096 79.8213 27.4773 81.5121C25.6895 83.3208 23.9017 85.1296 22.1139 86.9384C20.7148 88.3539 19.1991 88.3539 17.7611 86.9384C14.1467 83.2815 10.5323 79.5854 6.87901 75.9285C6.68469 75.7319 6.41263 75.5353 6.37377 75.3387C6.3349 74.8275 6.29604 74.2377 6.52923 73.8052C6.84015 73.2547 7.50084 73.1761 8.08381 73.53C8.35587 73.6872 8.58905 73.9232 8.82224 74.1591C12.2812 77.6586 15.7401 81.1582 19.1991 84.6577C19.4323 84.8937 19.5877 85.1689 19.7432 85.4048C21.9585 83.1636 24.0183 81.0402 26.0393 78.9955C20.365 73.2547 14.5742 67.4352 8.86111 61.6944C6.91787 63.6604 4.81918 65.7444 2.6039 67.9857C3.14801 68.4969 3.84757 69.126 4.4694 69.7551C5.16897 70.4629 5.2467 71.2493 4.66373 71.8392C4.08076 72.429 3.30346 72.3896 2.6039 71.6032C1.67115 70.5809 0.816128 69.4799 -0.0777588 68.4182C-2.95341e-05 67.9464 -2.95341e-05 67.4745 -2.95341e-05 67.0027ZM52.5449 14.3521C52.1563 14.3521 51.8454 14.3521 51.5345 14.3521C48.7362 14.3521 45.8991 14.3521 43.1008 14.3521C42.7511 14.3521 42.4013 14.3521 42.0904 14.2342C41.4685 14.0375 41.041 13.5264 41.2353 12.8972C41.3519 12.4647 41.8572 12.0715 42.2458 11.7569C42.479 11.5997 42.8677 11.6783 43.1786 11.6783C46.9096 11.6783 50.6406 11.6783 54.3716 11.6783C54.7214 11.6783 55.0323 11.639 55.3432 11.639C55.3432 8.57195 55.3432 5.66221 55.3432 2.67383C47.1428 2.67383 38.9812 2.67383 30.7808 2.67383C30.7808 5.66221 30.7808 8.61127 30.7808 11.639C31.1305 11.639 31.4415 11.6783 31.7524 11.6783C33.1904 11.6783 34.5895 11.6783 36.0275 11.6783C37.038 11.6783 37.6598 12.1895 37.6598 12.9759C37.6598 13.7623 37.038 14.2735 36.0663 14.3128C35.3279 14.3128 34.5895 14.3128 33.8122 14.3128C33.7733 14.5487 33.7345 14.706 33.7345 14.824C33.7345 17.2619 32.7629 19.2279 31.0528 20.8794C30.3144 21.6265 29.5759 22.3736 28.8375 23.1207C28.0214 23.9464 27.4773 24.9294 27.4773 26.0697C27.4384 29.2154 27.3995 32.4004 27.4773 35.546C27.5161 37.2762 28.9541 38.9276 30.5476 39.2029C30.5476 38.8883 30.5864 38.5737 30.5864 38.2592C30.5864 37.0402 30.5476 35.782 30.6253 34.563C30.6642 33.7373 31.2471 33.2261 31.9856 33.2654C32.6851 33.3047 33.1515 33.7766 33.2292 34.563C33.2292 34.8383 33.2292 35.0742 33.2292 35.3494C33.2292 43.017 33.2292 50.6846 33.2292 58.3914C33.2292 58.7846 33.2292 59.1778 33.307 59.5317C33.5401 60.4754 34.3174 60.9866 35.2502 60.908C36.1441 60.8293 36.7659 60.2002 36.8825 59.2565C36.9214 58.9026 36.9214 58.5487 36.9214 58.1948C36.9214 51.353 36.9214 44.4719 36.9214 37.63C36.9214 36.4504 37.3877 35.8213 38.2039 35.782C39.0589 35.7426 39.5253 36.4111 39.5253 37.5514C39.5253 37.7873 39.5253 38.0232 39.5253 38.2592C39.5253 46.0054 39.5253 53.7123 39.5253 61.4585C39.5253 61.8517 39.5253 62.2842 39.6419 62.6774C39.8362 63.5425 40.5358 64.0536 41.4297 64.0536C42.2847 64.0536 42.9842 63.4638 43.1397 62.5988C43.2174 62.2449 43.2174 61.8517 43.2174 61.4585C43.2174 55.5603 43.1786 49.6622 43.1786 43.8034C43.1786 41.6801 43.1786 39.5174 43.1786 37.3941C43.1786 36.3718 43.7227 35.782 44.5388 35.782C45.3161 35.782 45.7825 36.3718 45.8214 37.3548C45.8214 37.5907 45.8214 37.8266 45.8214 38.0626C45.8214 44.8258 45.8214 51.5889 45.8214 58.3521C45.8214 58.6274 45.8214 58.9419 45.8214 59.2172C45.8991 60.1216 46.5598 60.79 47.4537 60.8686C48.3864 60.9473 49.2026 60.3968 49.358 59.4531C49.4358 59.0599 49.4358 58.6274 49.4358 58.2342C49.4358 51.471 49.4358 44.7078 49.4358 37.9446C49.4358 37.5907 49.4358 37.2368 49.4746 36.8829C49.5912 36.2145 49.9799 35.8213 50.6406 35.8213C51.3401 35.782 51.8065 36.1358 51.962 36.8436C52.0397 37.1975 52.0397 37.5514 52.0397 37.9053C52.0397 42.3092 52.0397 46.7132 52.0397 51.0778C52.0397 51.4316 52.0397 51.7855 52.0786 52.1394C52.1952 53.0045 52.8559 53.6336 53.7109 53.6729C54.5659 53.7123 55.3432 53.2404 55.5764 52.4147C55.693 52.0608 55.693 51.6676 55.693 51.2744C55.693 42.2306 55.693 33.1475 55.693 24.1037C55.693 22.7274 55.3043 21.5085 54.4104 20.4468C53.4777 19.3459 52.8559 18.0483 52.6227 16.5934C52.5838 16.0429 52.6227 15.2565 52.5449 14.3521ZM26.2336 75.0241C27.827 73.0188 30.0035 72.1144 32.5685 71.8785C33.2292 71.8392 33.9677 71.4853 34.434 71.0527C36.0275 69.5192 37.4655 67.8678 38.9035 66.3736C38.2428 65.4692 37.5043 64.4468 36.7659 63.4245C33.2681 64.5255 30.6253 62.4808 30.6253 58.6274C30.6253 53.7516 30.6253 48.8365 30.6253 43.9607C30.6253 43.6461 30.6253 43.3316 30.6253 42.7811C29.4205 44.0393 28.3711 45.101 27.3607 46.1233C27.1275 46.3593 26.9332 46.5952 26.6611 46.7918C26.0393 47.3423 25.3008 47.3423 24.7956 46.8311C24.2904 46.2806 24.2904 45.5335 24.8345 44.9437C25.8838 43.8427 27.0109 42.7811 28.0991 41.6801C26.3113 40.6184 24.2904 40.8937 22.8135 42.3879C20.8314 44.3539 18.8882 46.3593 16.9061 48.3646C15.9345 49.3476 15.4681 50.5666 15.4681 51.9428C15.4681 53.2404 15.4681 54.538 15.4681 55.7963C15.4292 57.8016 14.7297 59.4924 13.4083 60.9866C13.2139 61.1832 13.0196 61.4191 12.8642 61.6157C17.3336 66.0197 21.7253 70.4629 26.2336 75.0241ZM68.9847 85.1296C74.7366 79.3101 80.5275 73.4906 86.2406 67.7498C84.1807 65.6658 82.1209 63.5818 80.1777 61.6551C74.4257 67.4352 68.6349 73.2547 62.8829 79.0349C64.9039 81.0402 66.9637 83.1242 68.9847 85.1296Z" fill="#1F4E9D"/>
<path d="M20.3261 80.7256C19.5489 80.7256 18.9659 80.0964 18.9659 79.31C18.9659 78.5629 19.6266 77.8945 20.365 77.9338C21.1034 77.9338 21.7253 78.6022 21.7253 79.3493C21.6864 80.1357 21.0646 80.7256 20.3261 80.7256Z" fill="#1F4E9D"/>
<path d="M72.638 26.227C72.638 26.9348 72.0939 27.5246 71.3943 27.5639C70.6948 27.6033 70.0341 26.9741 70.0341 26.2664C70.0341 25.5586 70.5782 24.9688 71.2777 24.9294C72.0162 24.9294 72.638 25.5193 72.638 26.227Z" fill="#A8285D"/>
<path d="M22.386 16.7113C23.1244 16.7113 23.6685 17.3405 23.6685 18.0482C23.6297 18.756 23.0467 19.3065 22.386 19.3458C21.6864 19.3458 21.0646 18.7167 21.0646 18.0089C21.0257 17.2618 21.6476 16.672 22.386 16.7113Z" fill="#A8285D"/>
<path d="M13.5637 30.041C13.5637 30.7881 12.9807 31.3779 12.2423 31.3386C11.5427 31.3386 10.9598 30.7488 10.9598 30.041C10.9598 29.3332 11.6205 28.7041 12.32 28.7041C13.0196 28.7434 13.5637 29.2939 13.5637 30.041Z" fill="#A8285D"/>
<path d="M41.4686 81.9838C40.7301 81.9838 40.1472 81.3547 40.1472 80.6469C40.186 79.9785 40.769 79.3887 41.4297 79.3887C42.1681 79.3887 42.7511 80.0178 42.7122 80.7649C42.7511 81.4334 42.1681 81.9838 41.4686 81.9838Z" fill="#A8285D"/>
<path d="M16.3231 25.5192C16.3231 26.2269 15.7013 26.8561 15.0017 26.8561C14.3021 26.8561 13.758 26.2663 13.7192 25.5585C13.7192 24.8114 14.3021 24.2216 15.0406 24.2609C15.779 24.2216 16.3231 24.8114 16.3231 25.5192Z" fill="#A8285D"/>
<path d="M74.0371 29.7266C74.7366 29.7266 75.3585 30.3557 75.3585 31.0635C75.3585 31.7712 74.7755 32.3611 74.0759 32.3611C73.3375 32.3611 72.7545 31.7712 72.7934 31.0242C72.7934 30.2771 73.3375 29.7266 74.0371 29.7266Z" fill="#A8285D"/>
<path d="M10.2991 36.2146C9.59951 36.2146 9.01655 35.6641 9.01655 34.9563C8.97768 34.2092 9.56065 33.5801 10.2991 33.5801C10.9986 33.5801 11.5816 34.1306 11.6205 34.8383C11.6205 35.5854 10.9986 36.2146 10.2991 36.2146Z" fill="#A8285D"/>
<path d="M47.9589 80.4896C47.9589 81.2367 47.3371 81.8265 46.5987 81.7872C45.8991 81.7479 45.355 81.1974 45.355 80.4896C45.355 79.7425 45.9768 79.1527 46.7152 79.192C47.4148 79.192 47.9589 79.8212 47.9589 80.4896Z" fill="#A8285D"/>
<path d="M63.8934 19.5818C63.155 19.5818 62.572 18.9919 62.572 18.2449C62.572 17.5371 63.155 16.9473 63.8546 16.9473C64.5541 16.9473 65.176 17.5764 65.176 18.2842C65.1371 18.9919 64.593 19.5424 63.8934 19.5818Z" fill="#A8285D"/>
<path d="M67.8965 23.2781C67.1581 23.2781 66.5751 22.6096 66.614 21.9018C66.6528 21.2334 67.2747 20.6436 67.9354 20.6436C68.6738 20.6436 69.2179 21.2727 69.2179 22.0198C69.179 22.7669 68.5961 23.2781 67.8965 23.2781Z" fill="#A8285D"/>
<path d="M74.6978 36.1359C74.6978 35.4281 75.2807 34.8383 75.9803 34.8776C76.6799 34.8776 77.3017 35.546 77.2628 36.2538C77.224 36.9616 76.6799 37.5121 75.9803 37.5121C75.2419 37.5121 74.6978 36.9223 74.6978 36.1359Z" fill="#A8285D"/>
<path d="M10.2991 40.0679C10.2991 40.815 9.75499 41.3655 9.05543 41.3655C8.317 41.3655 7.69516 40.7757 7.73403 40.0679C7.73403 39.3995 8.317 38.7703 9.01656 38.731C9.67726 38.6917 10.2991 39.3208 10.2991 40.0679Z" fill="#A8285D"/>
<path d="M77.0685 40.2646C77.7681 40.2646 78.3899 40.8545 78.3899 41.6016C78.3899 42.3093 77.8458 42.8598 77.1463 42.8991C76.4079 42.9385 75.8249 42.3487 75.786 41.6409C75.7472 40.8938 76.3301 40.304 77.0685 40.2646Z" fill="#A8285D"/>
<path d="M8.82223 49.269C9.52179 49.269 10.1048 49.8195 10.1436 50.5273C10.1825 51.3137 9.63838 51.9035 8.89996 51.9035C8.20039 51.9035 7.61742 51.3924 7.57856 50.6846C7.50083 49.9768 8.0838 49.3084 8.82223 49.269Z" fill="#A8285D"/>
<path d="M9.94934 57.094C9.21091 57.094 8.66681 56.4648 8.66681 55.7177C8.66681 54.9706 9.21091 54.4595 9.94934 54.4595C10.6878 54.4595 11.2707 55.0886 11.2319 55.7964C11.193 56.5042 10.61 57.094 9.94934 57.094Z" fill="#A8285D"/>
<path d="M57.986 77.8158C57.986 78.5236 57.3642 79.1527 56.6257 79.1134C55.9262 79.0741 55.3821 78.5236 55.3821 77.7765C55.3821 77.0294 55.965 76.4396 56.7035 76.4789C57.403 76.5182 57.986 77.108 57.986 77.8158Z" fill="#A8285D"/>
<path d="M51.7288 80.8436C51.0681 80.8043 50.4851 80.2145 50.4851 79.5067C50.4851 78.7596 51.1069 78.1698 51.8454 78.2091C52.5838 78.2485 53.1279 78.8383 53.089 79.5854C53.0113 80.3325 52.4283 80.883 51.7288 80.8436Z" fill="#A8285D"/>
<path d="M8.51131 43.9999C9.17201 43.9606 9.79384 44.5504 9.83271 45.2582C9.87157 46.0053 9.32747 46.6344 8.58904 46.6344C7.85061 46.6737 7.30651 46.1232 7.26764 45.4155C7.22878 44.629 7.77288 43.9999 8.51131 43.9999Z" fill="#A8285D"/>
<path d="M32.6074 78.681C32.6074 79.3495 32.0245 79.9786 31.3638 80.0179C30.6642 80.0573 30.0424 79.4281 30.0424 78.681C30.0424 77.9733 30.5865 77.3834 31.286 77.3834C31.9856 77.3441 32.6074 77.9339 32.6074 78.681Z" fill="#A8285D"/>
<path d="M37.5821 80.0571C37.5821 80.7649 36.9991 81.3547 36.3384 81.3547C35.6388 81.3547 34.9782 80.7256 35.017 80.0178C35.017 79.31 35.6 78.7595 36.2995 78.7202C37.038 78.7595 37.6209 79.31 37.5821 80.0571Z" fill="#A8285D"/>
<path d="M59.2686 13.959C59.9681 13.959 60.59 14.5881 60.59 15.2959C60.59 16.0037 60.0459 16.5542 59.3074 16.5935C58.569 16.5935 57.986 16.043 57.986 15.2959C57.986 14.5488 58.569 13.959 59.2686 13.959Z" fill="#A8285D"/>
<path d="M19.7043 21.4691C19.7043 22.2162 19.0825 22.806 18.383 22.806C17.6834 22.7667 17.1393 22.1769 17.1393 21.4691C17.1393 20.722 17.7611 20.1322 18.4995 20.1715C19.1602 20.2109 19.7043 20.7613 19.7043 21.4691Z" fill="#A8285D"/>
<path d="M78.5842 47.1457C78.5842 47.8927 78.0401 48.4039 77.3406 48.4432C76.6021 48.4432 76.0192 47.8534 76.0192 47.1063C76.0192 46.3592 76.641 45.7694 77.3794 45.8087C78.079 45.8481 78.5842 46.3986 78.5842 47.1457Z" fill="#A8285D"/>
<path d="M28.0602 15.1385C28.0602 15.8856 27.4773 16.4755 26.7388 16.4755C26.0393 16.4755 25.4952 15.8856 25.4563 15.1779C25.4563 14.4308 26.0004 13.841 26.7777 13.8803C27.5161 13.8803 28.0602 14.4308 28.0602 15.1385Z" fill="#A8285D"/>
<path d="M35.0559 8.57205C34.3175 8.57205 33.6956 7.9036 33.6956 7.1565C33.6956 6.37009 34.3175 5.78027 35.0947 5.78027C35.872 5.78027 36.4939 6.40941 36.455 7.19582C36.455 7.94292 35.7943 8.61137 35.0559 8.57205Z" fill="#1F4E9D"/>
<path d="M81.8878 67.3172C81.8878 68.1036 81.2659 68.7327 80.5275 68.7327C79.7891 68.7327 79.1672 68.0643 79.1672 67.3172C79.1672 66.5308 79.7891 65.941 80.5275 65.941C81.3048 65.9016 81.8878 66.5308 81.8878 67.3172Z" fill="#1F4E9D"/>
</g>
<defs>
<clipPath id="clip0_18_2950">
<rect width="89" height="88" fill="white"/>
</clipPath>
</defs>
</svg>
