<svg width="79" height="79" viewBox="0 0 79 79" fill="none" xmlns="http://www.w3.org/2000/svg">
<g clip-path="url(#clip0_18_2938)">
<path d="M12.7987 0C13.4541 0.206987 14.1441 0.344978 14.7651 0.586463C19.5948 2.51834 21.3886 8.31397 18.5253 12.6607C18.3873 12.8332 18.2838 13.0402 18.2148 13.1437C19.2153 13.9716 20.2502 14.6961 21.0782 15.6275C22.7686 17.4214 23.5275 19.6293 23.562 22.0786C23.5965 23.2515 23.5965 24.39 23.562 25.5629C23.5275 27.1843 22.5271 28.2192 20.9057 28.2192C14.7996 28.2192 8.72795 28.2192 2.62183 28.2192C1.00044 28.1847 -4.32134e-07 27.1843 -4.32134e-07 25.5284C-4.32134e-07 23.8725 -0.0689961 22.1821 0.137991 20.5262C0.517467 17.5594 2.10437 15.2825 4.6572 13.6956C4.89869 13.5576 5.14017 13.4197 5.41616 13.2472C4.20873 11.6258 3.55327 9.86637 3.65677 7.8655C3.79476 4.07074 6.45109 0.931441 10.1424 0.172489C10.3148 0.137991 10.4873 0.0689956 10.6253 0C11.3498 0 12.0742 0 12.7987 0ZM21.0092 25.7009C21.0092 24.114 21.1472 22.6306 20.9747 21.1472C20.6642 18.3873 19.1118 16.49 16.5934 15.3515C16.283 15.2135 15.8 15.248 15.455 15.386C13.2127 16.421 10.9013 16.6624 8.65895 15.593C7.48602 15.041 6.69257 15.2825 5.79563 15.9035C4.58821 16.6969 3.69127 17.7664 3.0703 19.0773C2.10437 21.2162 2.55284 23.4585 2.44934 25.6664C3.51878 25.6664 4.45022 25.6664 5.48515 25.6664C5.48515 24.5279 5.45065 23.424 5.48515 22.3201C5.51965 21.6301 6.00262 21.1472 6.65808 21.1127C7.27904 21.0782 7.831 21.5266 7.9345 22.2166C8.00349 22.7686 7.96899 23.355 7.96899 23.907C7.96899 24.4935 7.96899 25.0454 7.96899 25.7009C9.34891 25.7009 10.5563 25.7009 11.7983 25.7009C13.0402 25.7009 14.2821 25.7009 15.593 25.7009C15.593 24.5969 15.593 23.631 15.593 22.6651C15.593 21.6991 16.076 21.1472 16.8349 21.1472C17.5939 21.1472 18.0424 21.6991 18.0769 22.6996C18.0769 23.7 18.0769 24.7004 18.0769 25.7009C19.1118 25.7009 20.0432 25.7009 21.0092 25.7009ZM11.7983 13.7646C14.9376 13.7301 17.4559 11.2118 17.4214 8.03799C17.4214 4.96769 14.8341 2.44934 11.7293 2.48384C8.58996 2.48384 6.07161 5.07118 6.10611 8.21048C6.17511 11.3153 8.69345 13.7991 11.7983 13.7646Z" fill="#1F4E9D"/>
<path d="M79 26.3909C78.379 27.8053 77.2751 28.2193 75.7917 28.2193C69.9961 28.1848 64.1659 28.1848 58.3703 28.1848C56.3349 28.1848 55.4035 27.2533 55.438 25.218C55.4725 23.5621 55.369 21.8717 55.645 20.2158C56.1625 17.0765 58.0253 14.8341 60.8542 13.2817C60.7507 13.1092 60.6472 12.9368 60.5437 12.7643C57.1629 7.79658 59.9227 1.242 65.8218 0.103567C65.9598 0.0690696 66.0633 0.0345718 66.1668 -0.0344238C66.8913 -0.0344238 67.6157 -0.0344238 68.3402 -0.0344238C68.4782 7.3988e-05 68.6162 0.103567 68.7542 0.103567C73.3079 1.03501 76.1712 5.45073 75.1018 9.96994C74.8258 11.1084 74.2048 12.1778 73.7218 13.3162C73.8253 13.3852 73.9978 13.4887 74.2048 13.5922C76.1367 14.7306 77.5166 16.352 78.31 18.4219C78.586 19.1809 78.793 19.9743 79 20.7678C79 22.6651 79 24.528 79 26.3909ZM76.5162 25.7009C76.5162 24.39 76.5507 23.1481 76.5162 21.9062C76.3782 18.8359 74.8258 16.628 72.0314 15.3516C71.721 15.2136 71.238 15.2481 70.893 15.4206C68.4437 16.559 65.9598 16.5935 63.545 15.3861C63.0965 15.1791 62.7515 15.1446 62.3376 15.3516C60.6127 16.1451 59.3362 17.387 58.5428 19.1119C57.5769 21.2507 57.9563 23.4586 57.9218 25.6664C58.9913 25.6664 59.9227 25.6664 60.9576 25.6664C60.9576 24.5625 60.9231 23.4586 60.9576 22.3892C60.9921 21.4232 61.8546 20.8713 62.648 21.2162C63.2 21.4577 63.407 21.9407 63.407 22.5271C63.407 23.5621 63.407 24.597 63.407 25.632C65.9943 25.632 68.4782 25.632 71.031 25.632C71.031 25.218 71.031 24.9075 71.031 24.5625C71.031 23.8036 70.9965 23.0791 71.0655 22.3202C71.1 21.5957 71.652 21.0782 72.3074 21.1127C72.9629 21.1127 73.4804 21.5957 73.5149 22.3547C73.5494 22.6996 73.5149 23.0101 73.5149 23.3551C73.5149 24.114 73.5149 24.873 73.5149 25.6664C74.5498 25.7009 75.4812 25.7009 76.5162 25.7009ZM72.8594 8.14156C72.8594 5.03676 70.3756 2.48392 67.2707 2.44942C64.1314 2.41492 61.5786 4.96776 61.5441 8.07256C61.5441 11.2119 64.0625 13.7647 67.2018 13.7302C70.3411 13.7647 72.8249 11.2809 72.8594 8.14156Z" fill="#1F4E9D"/>
<path d="M79 77.1371C78.4135 78.517 77.4131 79.0345 75.8952 79C69.9961 78.931 64.1314 78.9655 58.2323 78.9655C56.3349 78.9655 55.4035 78.0341 55.4035 76.1022C55.438 74.4463 55.3345 72.7559 55.6105 71.1C56.059 68.2022 57.6804 65.9598 60.2332 64.4074C60.4402 64.3039 60.6127 64.1659 60.8542 64.0279C59.3018 61.9236 58.6808 59.5777 59.3018 57.0249C59.7502 55.1275 60.7507 53.5751 62.3031 52.4022C65.4769 50.0218 69.7546 50.2288 72.7214 52.9196C75.3432 55.3 76.5852 59.8537 73.5839 64.0279C73.6873 64.0969 73.8253 64.2004 73.9288 64.2694C76.6542 65.8563 78.3101 68.1677 78.862 71.2725C78.8965 71.4105 78.9655 71.5485 79 71.7209C79 73.5493 79 75.3432 79 77.1371ZM58.0253 76.4816C58.9568 76.4816 59.9227 76.4816 60.9232 76.4816C60.9232 75.4467 60.9232 74.4808 60.9232 73.5148C60.9232 72.5489 61.3716 71.9624 62.1306 71.9624C62.8895 71.9624 63.3725 72.5489 63.3725 73.5148C63.3725 74.5153 63.3725 75.5157 63.3725 76.5161C65.9253 76.5161 68.4092 76.5161 70.9965 76.5161C70.9965 76.1367 70.9965 75.8262 70.9965 75.4812C70.9965 74.6878 70.962 73.8943 71.031 73.1009C71.1 72.4109 71.652 71.9624 72.2729 71.9624C72.9284 71.9624 73.4114 72.4454 73.4459 73.1354C73.4804 73.4803 73.4459 73.7908 73.4459 74.1358C73.4459 74.9292 73.4459 75.7227 73.4459 76.4816C74.5498 76.4816 75.4812 76.4816 76.4817 76.4816C76.4817 75.1017 76.5852 73.7563 76.4472 72.4109C76.2057 69.4441 74.6533 67.3397 71.928 66.1323C71.652 66.0288 71.2725 66.0288 70.9965 66.1323C68.4437 67.4087 65.9253 67.4087 63.3725 66.1668C63.131 66.0288 62.717 65.9943 62.4411 66.0978C60.0262 67.1327 58.4048 68.9266 58.0253 71.514C57.8183 73.1009 58.0253 74.7913 58.0253 76.4816ZM72.8594 58.9568C72.8594 55.8175 70.3066 53.2646 67.1673 53.2646C64.0625 53.2991 61.5441 55.8175 61.5441 58.9223C61.5441 62.0616 64.0969 64.6144 67.2362 64.6144C70.3411 64.5799 72.8594 62.0616 72.8594 58.9568Z" fill="#1F4E9D"/>
<path d="M39.5 23.5967C50.8498 23.5967 60.0607 32.8766 59.9917 44.1919C59.9572 55.4382 50.6773 64.6491 39.4655 64.6146C28.1157 64.5801 18.9393 55.3347 18.9738 44.0194C19.0083 32.7731 28.2192 23.5967 39.5 23.5967ZM54.2996 33.946C54.2651 33.808 54.2651 33.7735 54.2306 33.739C54.1271 33.601 54.0236 33.4286 53.9201 33.2906C51.6432 30.2893 48.6764 28.1849 45.1231 26.9775C44.5712 26.7705 44.2262 26.8395 43.8467 27.3569C41.6734 30.1858 39.1895 32.7041 35.8777 34.1185C32.6004 35.5329 29.9096 37.4648 28.2537 40.7076C27.7362 41.708 26.7703 42.398 25.6319 42.536C24.6314 42.674 23.5965 42.605 22.5616 42.6395C22.2511 42.6395 21.9061 42.605 21.3886 42.5705C21.5611 44.6059 21.6991 46.4687 21.8716 48.3661C21.9751 48.3661 22.0441 48.3661 22.1476 48.4006C22.2856 48.1936 22.4236 47.9866 22.5616 47.7796C23.1825 46.8827 23.7345 45.9513 24.39 45.1233C25.4594 43.7089 26.7703 43.6054 28.1157 44.7438C28.6332 45.1923 29.0817 45.6753 29.5646 46.1238C30.5306 47.0897 31.669 47.6417 33.0489 47.7451C34.5668 47.8486 36.0502 48.1591 37.3956 48.9526C39.224 50.022 39.8795 51.8159 39.0515 53.7478C38.741 54.4722 38.3616 55.2312 37.8096 55.7486C36.5332 56.9906 35.1188 58.0945 33.7389 59.2674C33.2559 59.6814 32.7729 60.0954 32.29 60.5093C32.4624 60.6473 32.5314 60.7163 32.5659 60.7508C39.0515 63.3037 45.0886 62.4757 50.6773 58.336C50.8498 58.2325 50.9188 57.853 50.8843 57.646C50.6428 56.6111 50.2633 55.5762 50.0218 54.5412C49.6079 52.7128 49.2629 50.8845 48.8834 49.0216C48.7109 49.2631 48.5729 49.4355 48.4004 49.6425C47.2965 51.0914 46.4341 51.3674 44.7092 50.712C42.7428 49.9185 41.0524 48.7111 39.776 47.0207C37.8786 44.5369 38.4996 42.5015 41.3629 41.3631C41.3974 41.3631 41.3974 41.3286 41.4319 41.3286C41.9148 41.1561 42.1908 40.8456 42.1908 40.2936C42.1563 38.7412 42.9153 37.5683 44.2262 36.9128C45.4681 36.2919 46.8135 35.7744 48.159 35.3949C50.1253 34.8085 52.1952 34.429 54.2996 33.946ZM52.7817 55.9901C52.8852 55.9901 52.9541 55.9901 53.0576 55.9901C54.3686 54.5067 55.438 52.8508 56.1624 50.9879C58.0253 46.3307 57.9908 41.6735 56.0934 37.0508C55.852 36.4299 55.576 36.1884 54.8515 36.3609C53.1266 36.8093 51.3327 37.0508 49.5734 37.4993C48.2624 37.8443 46.986 38.2927 45.7096 38.7757C45.0886 39.0172 44.5712 39.5002 44.5712 40.2591C44.5712 42.053 43.6052 43.0879 41.9838 43.6399C41.0179 43.9849 40.8799 44.2954 41.4664 45.1578C42.4668 46.6067 43.8467 47.5382 45.3991 48.2626C45.8821 48.4696 46.1581 48.3661 46.4341 47.9521C46.8135 47.3657 47.193 46.7792 47.676 46.2962C48.8834 44.9508 50.3323 45.2268 50.9188 46.9517C51.2293 47.8831 51.3327 48.9181 51.5397 49.884C51.9537 51.9194 52.3677 53.9548 52.7817 55.9901ZM22.0096 40.0176C24.7694 40.6386 25.6664 40.2936 27.0808 37.9478C28.4607 35.6364 30.3926 33.9115 32.8764 32.8076C33.8424 32.3591 34.8428 31.8762 35.7742 31.3587C38.0511 30.0823 39.8795 28.3229 41.5009 26.2875C33.2214 24.9421 23.769 30.9792 22.0096 40.0176ZM29.9441 59.4054C30.4616 58.8189 30.91 58.267 31.4275 57.784C31.9795 57.301 32.6694 56.9561 33.2559 56.4731C34.2218 55.6451 35.2568 54.8172 36.0502 53.8513C37.3956 52.1954 37.0507 51.2294 35.0153 50.6085C34.2908 50.4015 33.4974 50.1945 32.7384 50.16C30.7721 50.0565 29.1162 49.2286 27.7362 47.8486C27.2878 47.4002 26.9083 46.8827 26.4943 46.3997C26.3563 46.4342 26.2528 46.4687 26.1148 46.5032C25.1489 48.1936 24.183 49.8495 23.217 51.5399C23.148 51.6779 23.1825 51.8849 23.2515 52.0229C24.8384 55.1277 27.0463 57.577 29.9441 59.4054Z" fill="#A8285D"/>
<path d="M5.38166 64.0969C2.17336 59.5777 3.89825 54.955 6.45109 52.7816C9.4179 50.2633 13.7646 50.1598 16.8349 52.6091C18.5943 54.0235 19.5603 55.8519 19.8707 58.0598C20.1122 59.8537 19.7673 60.9921 18.1804 64.0969C18.2838 64.1659 18.3873 64.2349 18.4908 64.3039C21.8716 66.2703 23.5275 69.2371 23.562 73.1353C23.562 74.2048 23.562 75.3087 23.562 76.3781C23.5275 78.034 22.5271 79 20.9057 79C14.7996 79 8.72795 79 2.62183 79C1.00044 79 -4.30271e-07 77.9995 -4.30271e-07 76.3436C-4.30271e-07 74.6877 -0.0689961 72.9973 0.137991 71.3414C0.517467 68.3401 2.17336 66.0633 4.7262 64.4764C4.96769 64.3384 5.17467 64.2004 5.38166 64.0969ZM15.593 76.4816C15.593 75.4467 15.593 74.4462 15.593 73.4803C15.593 72.5144 16.076 71.9279 16.8004 71.9279C17.5594 71.9279 18.0424 72.4799 18.0424 73.4458C18.0424 74.4462 18.0424 75.4467 18.0424 76.4471C19.0773 76.4471 20.0432 76.4471 21.0092 76.4471C21.0092 74.9292 21.1472 73.4113 20.9747 71.9624C20.6642 69.1681 19.1118 67.2362 16.559 66.1323C16.283 65.9943 15.8345 66.0288 15.593 66.1323C13.0747 67.3742 10.5563 67.3742 8.03799 66.1668C7.76201 66.0288 7.27904 66.0288 7.00306 66.1323C4.86419 67.0292 3.31179 68.5816 2.82882 70.8585C2.44934 72.6524 2.51834 74.5497 2.34585 76.4471C3.51878 76.4471 4.48472 76.4471 5.48515 76.4471C5.48515 76.1711 5.51965 75.8952 5.51965 75.6537C5.51965 74.7912 5.51965 73.8943 5.55415 73.0318C5.58865 72.3419 6.03712 71.9624 6.69258 71.9279C7.31354 71.8934 7.79651 72.2384 7.9 72.8938C7.969 73.2043 7.969 73.5493 7.969 73.8943C7.969 74.7567 7.969 75.6192 7.969 76.4816C10.5563 76.4816 13.0057 76.4816 15.593 76.4816ZM17.4214 58.9567C17.4214 55.8174 14.8686 53.2646 11.7638 53.2646C8.65895 53.2646 6.14061 55.7829 6.14061 58.9222C6.14061 62.0615 8.65895 64.6144 11.7983 64.6144C14.8686 64.6144 17.4214 62.0615 17.4214 58.9567Z" fill="#1F4E9D"/>
<path d="M39.5 75.1709C37.4301 75.1709 35.3948 75.1709 33.3249 75.1709C32.3934 75.1709 31.8415 74.7224 31.8415 73.9634C31.807 73.2045 32.3934 72.687 33.3594 72.687C37.4301 72.687 41.5354 72.687 45.6061 72.687C46.572 72.687 47.1585 73.17 47.124 73.9289C47.124 74.6879 46.5721 75.1364 45.5716 75.1364C43.5707 75.1709 41.5354 75.1709 39.5 75.1709Z" fill="#1F4E9D"/>
<path d="M39.431 15.5586C37.4646 15.5586 35.5327 15.5586 33.5664 15.5586C33.2214 15.5586 32.8764 15.5241 32.6004 15.4206C32.0485 15.2136 31.807 14.7651 31.8415 14.2131C31.9105 13.6612 32.221 13.2472 32.7729 13.1437C33.0489 13.0747 33.3249 13.1092 33.6009 13.1092C37.4991 13.1092 41.4319 13.1092 45.3301 13.1092C45.5716 13.1092 45.7786 13.1092 46.0201 13.1437C46.6755 13.2127 47.055 13.6267 47.0895 14.2476C47.124 14.8686 46.8135 15.3516 46.1926 15.4896C45.9166 15.5586 45.6406 15.5586 45.3646 15.5586C43.3982 15.5586 41.4319 15.5586 39.431 15.5586Z" fill="#1F4E9D"/>
<path d="M9.14192 39.5002C9.14192 37.5338 9.14192 35.5329 9.14192 33.5666C9.14192 33.2561 9.14192 32.9456 9.24542 32.6696C9.4179 32.1177 9.86638 31.8417 10.4183 31.8762C10.9703 31.9107 11.3843 32.1867 11.5223 32.7731C11.5913 33.0491 11.5913 33.3251 11.5913 33.6011C11.5913 37.5338 11.5913 41.4666 11.5913 45.3993C11.5913 45.6408 11.5913 45.8478 11.5568 46.0893C11.4533 46.7447 11.0393 47.1242 10.4183 47.1242C9.76288 47.1587 9.27991 46.8137 9.17642 46.1238C9.14192 45.8823 9.14192 45.6063 9.14192 45.3648C9.14192 43.3984 9.14192 41.4666 9.14192 39.5002Z" fill="#1F4E9D"/>
<path d="M67.3397 39.4656C67.3397 37.3958 67.3397 35.3604 67.3397 33.2905C67.3397 32.6351 67.5122 32.1176 68.2022 31.9106C68.9611 31.6691 69.6856 32.1176 69.7546 32.9456C69.8236 33.532 69.7891 34.1185 69.7891 34.7049C69.7891 38.1892 69.7891 41.708 69.7891 45.1923C69.7891 45.4338 69.7891 45.6408 69.7891 45.8822C69.7201 46.6412 69.2371 47.1242 68.5817 47.1587C67.8917 47.1587 67.3397 46.6757 67.3397 45.8822C67.3052 44.3643 67.3397 42.8464 67.3397 41.3285C67.3397 40.7076 67.3397 40.0866 67.3397 39.4656Z" fill="#1F4E9D"/>
</g>
<defs>
<clipPath id="clip0_18_2938">
<rect width="79" height="79" fill="white"/>
</clipPath>
</defs>
</svg>
