<svg width="1440" height="323" viewBox="0 0 1440 323" fill="none" xmlns="http://www.w3.org/2000/svg">
<g clip-path="url(#clip0_9_4177)">
<path d="M966.933 163.837V170.623H963.167L966.933 163.837Z" fill="#F2C148"/>
<path d="M876.736 163.837L880.502 170.623H876.736V163.837Z" fill="#F2C148"/>
<path d="M1254.09 322.197H1452V294.107H1406.62C1411.89 290.148 1422.62 283.927 1437.12 283.927C1442.77 283.927 1447.67 284.869 1452 286.189V277.705H1449.18V268.468C1449.18 266.582 1450.31 265.074 1452 264.509V255.46H1451.81V253.574H1448.05V255.46H1445.41V253.574H1441.64V255.46H1439.01V253.574H1435.24V255.46H1432.6V253.574H1428.84V255.46H1426.2V253.574H1422.44V255.46H1419.8V253.574H1416.03V255.46H1413.4V253.574H1409.63V255.46H1407V253.574H1403.23V247.164H1403.04L1402.66 241.697L1401.35 247.164H1398.9V239.435H1391.93V247.164H1389.48L1388.17 241.697L1387.79 247.164H1387.6V294.296V255.46H1381.2V253.574H1377.43V255.46H1374.61V253.574H1370.84V255.46H1368.21V253.574H1364.44V255.46H1361.8V253.574H1358.04V255.46H1355.4V253.574H1351.63V255.46H1349V253.574H1345.23V255.46H1342.6V253.574H1338.83V255.46H1336.19V253.574H1332.43V255.46H1329.79V253.574H1326.03V255.46H1320.94V240.755L1325.08 236.607V225.296L1326.59 222.091L1318.68 217.755V199.468H1319.81V191.173H1318.12V193.058H1316.99V191.173H1314.92V193.058H1313.79L1307.2 163.837H1308.33V162.517H1305.31V163.837H1306.44L1299.85 193.058H1299.29V191.173H1297.22V193.058H1296.09V191.173H1294.58V199.468H1295.71V217.755L1287.99 222.091L1289.49 225.296V236.607L1293.64 240.755V254.517H1211.35V260.55H1239.41C1224.34 265.64 1212.1 275.255 1212.1 275.255H1211.35V279.214H1293.64V288.451H1291.75L1290.81 294.673H1213.42L1212.48 288.451H1210.97V241.132L1215.12 236.984V225.673L1216.62 222.468L1208.71 218.132V199.845H1209.84V191.55H1208.34V193.435H1207.21V191.55H1205.14V193.435H1204.01L1197.6 163.46H1198.73V162.14H1195.72V163.46H1196.85L1190.26 192.681H1189.13V190.796H1187.06V192.681H1186.31V190.796H1184.8V199.091H1185.93V217.378L1178.02 221.714L1179.53 224.919V236.23L1183.67 240.378V255.083H1178.58V253.197H1174.82V255.083H1172.18V253.197H1168.42V255.083H1165.78V253.197H1162.01V255.083H1159.38V253.197H1155.61V255.083H1152.98V253.197H1149.21V255.083H1146.57V253.197H1142.81V255.083H1140.17V253.197H1136.41V255.083H1133.58V253.197H1129.81V255.083H1127.18V253.197H1123.41V255.083H1117.01V246.599H1116.82L1116.45 241.132L1115.13 246.599H1112.68V238.869H1105.71V246.599H1103.26L1101.95 241.132L1101.57 246.599H1101.38V253.009H1097.61V254.894H1094.98V253.009H1091.21V254.894H1088.39V253.009H1084.62V254.894H1081.99V253.009H1078.22V254.894H1075.58V253.009H1071.82V254.894H1069.18V253.009H1065.42V254.894H1062.78V253.009H1059.01V254.894H1056.38V253.009H1052.61V254.894H1049.97V253.009H1046.21V254.894H1043.57V253.009H1039.81V254.894H1038.68L1038.86 254.705H1037.17V253.009H1034.53V224.919L1038.86 218.132H1026.25V210.214H1024.18V180.615H1026.25V163.837L1022.48 168.738V166.099C1022.48 156.484 1015.14 148.566 1005.53 147.623L1004.97 139.705C1006.29 139.328 1007.23 138.009 1007.23 136.689C1007.23 135.181 1006.1 133.861 1004.59 133.484L1003.84 123.492L1003.09 133.484C1001.58 133.861 1000.45 135.181 1000.45 136.689C1000.45 138.197 1001.39 139.328 1002.71 139.705L1002.15 147.623C992.73 148.378 985.198 156.296 985.198 166.099V168.738L981.432 163.837V180.615H983.504V210.402H981.432V218.32H967.875V174.771L970.322 170.812H962.602C962.225 150.64 947.161 134.05 927.766 131.222V119.156C927.766 119.156 924.753 116.517 922.682 112.181V107.279H924V103.697H922.682V102.755H920.799V103.697H919.481V107.279H920.799V112.181C918.728 116.705 915.715 119.156 915.715 119.156V131.222C896.131 134.05 881.255 150.64 880.879 170.812H873.158L875.606 174.771V218.509H861.86V210.591H859.789V180.615H861.86V163.837L858.094 168.738V166.099C858.094 156.484 850.75 148.566 841.147 147.623L840.582 139.705C841.9 139.328 842.842 138.009 842.842 136.689C842.842 135.181 841.712 133.861 840.206 133.484L839.452 123.492L838.699 133.484C837.193 133.861 836.063 135.181 836.063 136.689C836.063 138.197 837.004 139.328 838.322 139.705L837.758 147.623C828.342 148.378 820.81 156.296 820.81 166.099V168.738L817.044 163.837V180.615H819.116V210.402H817.044V218.32H804.616L808.947 225.107V255.083H804.616L808.947 261.869V294.107H783.338L777.124 137.066H777.877C779.76 137.066 781.267 135.558 781.267 133.861C781.267 131.976 779.76 130.656 777.877 130.656H776.936L776.748 125.755C784.845 124.246 791.059 117.271 791.059 108.787C791.059 101.246 786.163 94.8366 779.572 92.5743V77.1153H776.183V35.4514H775.053V0.951355H772.605V35.4514H771.475V76.7382H768.086V92.1973C761.307 94.6481 756.599 100.869 756.599 108.41C756.599 116.894 762.813 123.869 770.91 125.378L770.722 130.279H769.78C767.897 130.279 766.391 131.787 766.391 133.484C766.391 135.369 767.897 136.689 769.78 136.689H770.534L764.32 293.73H738.146L734.191 174.771H737.016V168.55H742.665V149.509H746.431V144.796H748.502L753.21 138.009H746.431V133.296H742.665V119.345H746.431V114.632H644.936V105.205H639.663V102.001H622.716C622.904 101.246 623.469 100.304 624.599 100.304C627.047 100.115 629.307 96.1563 629.307 96.1563C631.755 96.9104 629.495 100.304 629.495 100.304L630.437 101.435C634.579 95.4022 630.437 93.1399 630.437 93.1399C630.437 93.1399 631.566 89.935 630.813 87.6727C629.872 84.6563 630.06 83.7137 631.378 82.9595C632.508 82.2055 633.261 81.0743 633.261 79.7546L633.449 72.0251C623.469 67.6891 626.67 82.394 618.573 90.1235C614.619 94.0825 616.314 99.1727 617.632 102.001H610.1C610.1 99.7382 610.1 95.5907 611.983 91.6317C614.619 85.7874 610.1 85.2218 610.1 81.2628C610.1 77.3038 613.678 73.5333 612.736 71.0825C611.795 68.6317 607.652 63.73 605.769 66.935C604.074 70.1399 605.204 79.9432 603.698 81.2628C602.191 82.5825 601.815 72.4022 600.496 74.4759C599.367 76.7382 601.25 79.9432 599.367 79.3776C597.484 78.812 599.367 70.1399 597.295 69.9514C596.919 69.9514 596.73 69.9514 596.354 69.7628V59.0169C597.484 58.4514 598.425 57.3202 598.425 56.0005C598.425 54.6809 597.484 53.5497 596.354 52.9841V50.9104H597.484C598.613 50.9104 599.555 50.1563 599.932 49.0251C600.12 48.4596 600.308 48.271 600.685 47.894C604.827 45.2546 605.392 40.9186 605.392 40.9186C605.392 40.9186 604.263 42.4268 600.873 42.6153C597.295 42.8038 597.295 48.0825 596.542 46.5743C595.601 45.0661 595.789 45.2546 595.412 45.2546C595.036 45.2546 595.036 45.0661 594.282 46.5743C593.341 48.0825 593.341 42.8038 589.951 42.6153C586.374 42.4268 585.432 40.9186 585.432 40.9186C585.432 40.9186 585.997 45.2546 590.14 47.894C590.516 48.0825 590.705 48.4596 590.893 49.0251C591.081 50.1563 592.023 50.9104 593.341 50.9104H594.471V52.9841C593.341 53.5497 592.399 54.6809 592.399 56.0005C592.399 57.3202 593.341 58.4514 594.471 59.0169V69.7628C594.283 69.7628 593.906 69.7628 593.529 69.9514C591.458 70.1399 593.341 78.812 591.458 79.3776C589.575 79.9432 591.458 76.5497 590.328 74.4759C589.198 72.2137 588.633 82.394 587.127 81.2628C585.621 79.9432 586.75 70.1399 585.056 66.935C583.361 63.73 579.218 68.6317 578.089 71.0825C577.147 73.5333 580.725 77.3038 580.725 81.2628C580.725 85.2218 576.205 85.7874 578.842 91.6317C580.536 95.5907 580.725 99.5497 580.725 102.001H573.381C574.699 99.1727 576.394 94.0825 572.439 90.1235C564.342 82.2055 567.544 67.6891 557.564 72.0251L557.752 79.7546C557.752 81.0743 558.505 82.394 559.635 82.9595C560.765 83.7137 561.141 84.6563 560.2 87.6727C559.447 89.935 560.576 93.1399 560.576 93.1399C560.576 93.1399 556.434 95.4022 560.576 101.435L561.518 100.304C561.518 100.304 559.258 97.0989 561.706 96.1563C561.706 96.1563 564.154 100.115 566.414 100.304C567.544 100.304 568.108 101.246 568.297 102.001H551.349V105.205H546.077V114.632H444.582V119.345H448.348V133.296H444.582V138.009H437.803L442.511 144.796H444.582V149.509H448.348V168.927H453.997V175.148H456.822L452.867 294.107H433.472V279.968H438.556V275.632H421.044V267.525H417.843V225.484H421.044V221.148H410.688V215.869H406.922V210.214H400.896V126.32L403.909 123.115V107.656H394.682V104.64C396 103.886 396.942 103.132 396.942 103.132C396.942 103.132 389.974 94.0825 397.883 91.8202C405.792 89.5579 408.805 79.3776 408.805 79.3776C404.474 83.9022 395.247 85.7874 395.247 85.7874C395.247 85.7874 392.422 77.3038 390.163 78.2464C387.903 79.1891 388.845 85.2218 388.845 85.2218C385.267 80.8858 375.287 79.5661 375.287 79.5661C378.111 90.312 387.338 86.9186 388.091 91.8202C388.845 96.7218 382.819 102.755 382.819 102.755C384.137 103.886 385.643 104.451 387.338 104.828V107.656H378.111V123.115L381.124 126.32V210.214H374.722V215.869H370.956V221.337H360.599V225.673H363.8V267.714H360.599V275.82H343.087V280.156H348.171V294.107H321.432V215.869L326.516 205.689H311.452V172.132L313.524 168.55H306.556V165.91C306.556 164.779 305.615 163.837 304.485 163.837C303.355 163.837 302.414 164.779 302.414 165.91V168.55H296.2V165.91C296.2 164.779 295.258 163.837 294.128 163.837C292.999 163.837 292.057 164.779 292.057 165.91V168.55H285.843V165.91C285.843 164.779 284.902 163.837 283.772 163.837C282.642 163.837 281.7 164.779 281.7 165.91V168.55H275.486V165.91C275.486 164.779 274.545 163.837 273.415 163.837C272.285 163.837 271.344 164.779 271.344 165.91V168.55H264.377L266.448 172.132V205.689H261.175V201.73C261.175 200.787 260.422 199.845 259.292 199.845C258.351 199.845 257.409 200.599 257.409 201.73V205.689H246.3V201.73C246.3 200.787 245.546 199.845 244.417 199.845C243.475 199.845 242.534 200.599 242.534 201.73V205.689H231.424V201.73C231.424 200.787 230.67 199.845 229.541 199.845C228.599 199.845 227.658 200.599 227.658 201.73V205.689H216.548V201.73C216.548 200.787 215.795 199.845 214.665 199.845C213.723 199.845 212.782 200.599 212.782 201.73V205.689H207.321V190.796L210.146 186.083H206.191L201.86 176.468V166.476H204.308L199.412 148.566L194.516 166.476H196.964V176.468L193.575 184.009C188.679 166.853 173.05 154.41 154.22 154.41C135.578 154.41 119.76 167.042 114.864 184.009L111.475 176.468V166.476H113.923L109.027 148.566L104.131 166.476H107.332V176.468L103.001 186.083H99.0471L101.872 190.796V205.689H96.4109V201.73C96.4109 200.787 95.6576 199.845 94.5278 199.845C93.398 199.845 92.6448 200.599 92.6448 201.73V205.689H81.535V201.73C81.535 200.787 80.7817 199.845 79.6519 199.845C78.7104 199.845 77.7689 200.599 77.7689 201.73V205.689H66.6591V201.73C66.6591 200.787 65.9059 199.845 64.776 199.845C63.8345 199.845 62.893 200.599 62.893 201.73V205.689H51.7832V201.73C51.7832 200.787 51.03 199.845 49.9001 199.845C48.9586 199.845 48.0171 200.599 48.0171 201.73V205.689H42.7447V172.132L44.816 168.55H37.8488V165.91C37.8488 164.779 36.9073 163.837 35.7775 163.837C34.6476 163.837 33.7061 164.779 33.7061 165.91V168.55H27.4922V165.91C27.4922 164.779 26.5506 163.837 25.4208 163.837C24.291 163.837 23.3495 164.779 23.3495 165.91V168.55H17.7004V165.91C17.7004 164.779 16.7589 163.837 15.6291 163.837C14.4993 163.837 13.5578 164.779 13.5578 165.91V168.55H7.7204V165.91C7.7204 164.779 6.77889 163.837 5.64907 163.837C4.51926 163.837 3.57775 164.779 3.57775 165.91V168.55H0V322.951H1254.09V322.197ZM1438.44 268.279C1438.44 266.017 1440.33 263.943 1442.77 263.943C1445.22 263.943 1447.1 265.828 1447.1 268.279V277.517H1438.63V268.279H1438.44ZM1427.52 268.279C1427.52 266.017 1429.4 263.943 1431.85 263.943C1434.11 263.943 1436.18 265.828 1436.18 268.279V277.517H1427.71V268.279H1427.52ZM1416.6 268.279C1416.6 266.017 1418.48 263.943 1420.93 263.943C1423.38 263.943 1425.26 265.828 1425.26 268.279V277.517L1416.79 277.328V268.279H1416.6ZM1405.87 268.279C1405.87 266.017 1407.75 263.943 1410.2 263.943C1412.46 263.943 1414.53 265.828 1414.53 268.279V277.14L1406.05 276.951V268.279H1405.87ZM1376.3 268.279C1376.3 266.017 1378.19 263.943 1380.63 263.943C1382.89 263.943 1384.96 265.828 1384.96 268.279V277.517H1376.49V268.279H1376.3ZM1365.57 268.279C1365.57 266.017 1367.45 263.943 1369.9 263.943C1372.35 263.943 1374.23 265.828 1374.23 268.279V277.517H1365.76V268.279H1365.57ZM1354.65 268.279C1354.65 266.017 1356.53 263.943 1358.98 263.943C1361.24 263.943 1363.31 265.828 1363.31 268.279V277.517H1354.84V268.279H1354.65ZM1343.91 268.279C1343.91 266.017 1345.8 263.943 1348.25 263.943C1350.69 263.943 1352.58 265.828 1352.58 268.279V277.517H1344.1V268.279H1343.91ZM1332.99 268.279C1332.99 266.017 1334.88 263.943 1337.32 263.943C1339.58 263.943 1341.65 265.828 1341.65 268.279V277.517L1333.18 277.328V268.279H1332.99ZM1353.52 283.738C1368.58 283.738 1379.69 290.337 1384.59 293.919H1323.39V293.73C1328.66 289.96 1339.21 283.738 1353.52 283.738ZM1322.26 268.279C1322.26 266.017 1324.14 263.943 1326.59 263.943C1329.04 263.943 1330.92 265.828 1330.92 268.279V277.14L1322.45 276.951V268.279H1322.26ZM1215.68 274.689C1218.51 272.992 1241.1 260.738 1255.6 260.738C1263.13 260.738 1286.86 272.992 1290.06 274.689H1215.68ZM1293.07 274.123C1293.07 274.123 1281.4 265.074 1268.97 260.173H1293.45V274.312L1293.07 274.123ZM596.542 54.6809C597.107 55.0579 597.484 55.6235 597.484 56.3776C597.484 57.1317 597.107 57.6973 596.542 58.0743V54.6809ZM18.8302 186.083C18.8302 184.951 19.7718 184.009 20.9016 184.009C22.0314 184.009 22.9729 184.951 22.9729 186.083V193.058H18.8302V186.083ZM10.1683 193.058H6.21398V186.083C6.21398 184.951 7.15549 184.009 8.28531 184.009C9.41512 184.009 10.3566 184.951 10.3566 186.083V193.058H10.1683ZM27.8688 287.132H13.7461V246.222H27.8688V287.132ZM27.8688 237.927H13.7461V227.181C13.7461 223.222 16.9472 220.205 20.7133 220.205C24.4793 220.205 27.6805 223.41 27.6805 227.181V237.927H27.8688ZM35.5892 193.058H31.6348V186.083C31.6348 184.951 32.5763 184.009 33.7061 184.009C34.8359 184.009 35.7775 184.951 35.7775 186.083V193.058H35.5892ZM41.4265 238.869H50.2768V247.542H41.4265V238.869ZM51.2183 287.132H40.2967V262.812C40.2967 259.796 42.7447 257.345 45.7575 257.345C48.7703 257.345 51.2183 259.796 51.2183 262.812V287.132ZM77.204 238.869H86.0542V247.542H77.204V238.869ZM59.3153 238.869H68.1655V247.542H59.3153V238.869ZM69.107 287.132H58.1855V262.812C58.1855 259.796 60.6334 257.345 63.6462 257.345C66.6591 257.345 69.107 259.796 69.107 262.812V287.132ZM86.9957 287.132H76.0742V262.812C76.0742 259.796 78.5221 257.345 81.535 257.345C84.5478 257.345 86.9957 259.796 86.9957 262.812V287.132ZM95.0927 238.869H103.943V247.542H95.0927V238.869ZM104.884 287.132H93.9629V262.812C93.9629 259.796 96.4108 257.345 99.4237 257.345C102.437 257.345 104.884 259.796 104.884 262.812V287.132ZM205.815 238.869H214.665V247.542H205.815V238.869ZM215.795 287.132H204.873V262.812C204.873 259.796 207.321 257.345 210.334 257.345C213.347 257.345 215.795 259.796 215.795 262.812V287.132ZM259.481 238.869H268.331V247.542H259.481V238.869ZM241.592 238.869H250.442V247.542H241.592V238.869ZM223.703 238.869H232.554V247.542H223.703V238.869ZM233.683 287.132H222.762V262.812C222.762 259.796 225.21 257.345 228.223 257.345C231.235 257.345 233.683 259.796 233.683 262.812V287.132ZM251.384 287.132H240.462V262.812C240.462 259.796 242.91 257.345 245.923 257.345C248.936 257.345 251.384 259.796 251.384 262.812V287.132ZM269.272 287.132H258.351V262.812C258.351 259.796 260.799 257.345 263.812 257.345C266.825 257.345 269.272 259.796 269.272 262.812V287.132ZM287.35 186.083C287.35 184.951 288.291 184.009 289.421 184.009C290.551 184.009 291.492 184.951 291.492 186.083V193.058H287.538V186.083H287.35ZM278.688 193.058H274.733V186.083C274.733 184.951 275.675 184.009 276.805 184.009C277.934 184.009 278.876 184.951 278.876 186.083V193.058H278.688ZM296.388 287.132H282.265V246.222H296.388V287.132ZM296.388 237.927H282.265V227.181C282.265 223.222 285.466 220.205 289.233 220.205C293.187 220.205 296.2 223.41 296.2 227.181V237.927H296.388ZM304.108 193.058H300.154V186.083C300.154 184.951 301.096 184.009 302.225 184.009C303.355 184.009 304.297 184.951 304.297 186.083V193.058H304.108ZM367.943 267.525H365.872V225.484H367.943V267.525ZM372.274 267.525H370.203V225.484H372.274V267.525ZM376.981 267.525H374.534V225.484H376.981V267.525ZM406.545 267.525H404.097V225.484H406.545V267.525ZM411.064 267.525H408.993V225.484H411.064V267.525ZM415.395 267.525H413.324V225.484H415.395V267.525ZM645.124 120.664H714.419C714.984 120.664 715.361 121.042 715.361 121.607C715.361 122.173 714.984 122.55 714.419 122.55H645.124C644.559 122.55 644.183 122.173 644.183 121.607C644.183 121.042 644.559 120.664 645.124 120.664ZM593.153 56.1891C593.153 55.435 593.529 54.8694 594.094 54.4923V57.6973C593.529 57.5087 593.153 56.9432 593.153 56.1891ZM556.434 114.066C556.434 113.123 557.187 112.369 558.128 112.369H632.131C633.073 112.369 633.826 113.123 633.826 114.066V128.96C633.826 129.902 633.073 130.656 632.131 130.656H558.128C557.187 130.656 556.434 129.902 556.434 128.96V114.066ZM455.88 121.419C455.88 120.853 456.257 120.476 456.822 120.476H545.512C546.077 120.476 546.454 120.853 546.454 121.419C546.454 121.984 546.077 122.361 545.512 122.361H456.822C456.257 122.361 455.88 121.984 455.88 121.419ZM546.454 127.828C546.454 128.394 546.077 128.771 545.512 128.771H476.217C475.652 128.771 475.275 128.394 475.275 127.828C475.275 127.263 475.652 126.886 476.217 126.886H545.512C545.889 127.074 546.454 127.451 546.454 127.828ZM461.718 162.894C461.718 163.46 461.341 163.837 460.776 163.837C460.211 163.837 459.835 163.46 459.835 162.894V152.148C459.835 151.583 460.211 151.205 460.776 151.205C461.341 151.205 461.718 151.583 461.718 152.148V162.894ZM465.86 162.894C465.86 163.46 465.484 163.837 464.919 163.837C464.354 163.837 463.977 163.46 463.977 162.894V152.148C463.977 151.583 464.354 151.205 464.919 151.205C465.484 151.205 465.86 151.583 465.86 152.148V162.894ZM470.191 162.894C470.191 163.46 469.815 163.837 469.25 163.837C468.685 163.837 468.308 163.46 468.308 162.894V152.148C468.308 151.583 468.685 151.205 469.25 151.205C469.815 151.205 470.191 151.583 470.191 152.148V162.894ZM504.462 294.107H477.535L473.581 175.148H476.405V168.927H505.592V175.148H508.417L504.462 294.107ZM513.877 162.894C513.877 163.46 513.501 163.837 512.936 163.837C512.371 163.837 511.994 163.46 511.994 162.894V152.148C511.994 151.583 512.371 151.205 512.936 151.205C513.501 151.205 513.877 151.583 513.877 152.148V162.894ZM518.02 162.894C518.02 163.46 517.643 163.837 517.078 163.837C516.514 163.837 516.137 163.46 516.137 162.894V152.148C516.137 151.583 516.514 151.205 517.078 151.205C517.643 151.205 518.02 151.583 518.02 152.148V162.894ZM522.163 162.894C522.163 163.46 521.786 163.837 521.221 163.837C520.656 163.837 520.28 163.46 520.28 162.894V152.148C520.28 151.583 520.656 151.205 521.221 151.205C521.786 151.205 522.163 151.583 522.163 152.148V162.894ZM556.622 294.107H529.695L525.74 175.148H528.565V168.927H557.752V175.148H560.576L556.622 294.107ZM565.849 162.894C565.849 163.46 565.472 163.837 564.907 163.837C564.342 163.837 563.966 163.46 563.966 162.894V152.148C563.966 151.583 564.342 151.205 564.907 151.205C565.472 151.205 565.849 151.583 565.849 152.148V162.894ZM570.18 162.894C570.18 163.46 569.803 163.837 569.238 163.837C568.673 163.837 568.297 163.46 568.297 162.894V152.148C568.297 151.583 568.673 151.205 569.238 151.205C569.803 151.205 570.18 151.583 570.18 152.148V162.894ZM574.322 162.894C574.322 163.46 573.946 163.837 573.381 163.837C572.816 163.837 572.439 163.46 572.439 162.894V152.148C572.439 151.583 572.816 151.205 573.381 151.205C573.946 151.205 574.322 151.583 574.322 152.148V162.894ZM608.782 294.107H581.854L577.9 175.148H580.725V168.927H609.912V175.148H612.736L608.782 294.107ZM618.009 162.894C618.009 163.46 617.632 163.837 617.067 163.837C616.502 163.837 616.126 163.46 616.126 162.894V152.148C616.126 151.583 616.502 151.205 617.067 151.205C617.632 151.205 618.009 151.583 618.009 152.148V162.894ZM622.151 162.894C622.151 163.46 621.775 163.837 621.21 163.837C620.645 163.837 620.268 163.46 620.268 162.894V152.148C620.268 151.583 620.645 151.205 621.21 151.205C621.775 151.205 622.151 151.583 622.151 152.148V162.894ZM626.482 162.894C626.482 163.46 626.106 163.837 625.541 163.837C624.976 163.837 624.599 163.46 624.599 162.894V152.148C624.599 151.583 624.976 151.205 625.541 151.205C626.106 151.205 626.482 151.583 626.482 152.148V162.894ZM660.753 294.107H633.826L629.872 175.148H632.696V168.927H661.883V175.148H664.708L660.753 294.107ZM670.168 162.894C670.168 163.46 669.792 163.837 669.227 163.837C668.662 163.837 668.285 163.46 668.285 162.894V152.148C668.285 151.583 668.662 151.205 669.227 151.205C669.792 151.205 670.168 151.583 670.168 152.148V162.894ZM674.311 162.894C674.311 163.46 673.934 163.837 673.37 163.837C672.805 163.837 672.428 163.46 672.428 162.894V152.148C672.428 151.583 672.805 151.205 673.37 151.205C673.934 151.205 674.311 151.583 674.311 152.148V162.894ZM678.454 162.894C678.454 163.46 678.077 163.837 677.512 163.837C676.947 163.837 676.571 163.46 676.571 162.894V152.148C676.571 151.583 676.947 151.205 677.512 151.205C678.077 151.205 678.454 151.583 678.454 152.148V162.894ZM712.913 294.107H685.986L682.031 175.148H684.856V168.927H714.043V175.148H716.867L712.913 294.107ZM722.14 162.894C722.14 163.46 721.763 163.837 721.198 163.837C720.633 163.837 720.257 163.46 720.257 162.894V152.148C720.257 151.583 720.633 151.205 721.198 151.205C721.763 151.205 722.14 151.583 722.14 152.148V162.894ZM726.471 162.894C726.471 163.46 726.094 163.837 725.529 163.837C724.964 163.837 724.588 163.46 724.588 162.894V152.148C724.588 151.583 724.964 151.205 725.529 151.205C726.094 151.205 726.471 151.583 726.471 152.148V162.894ZM730.613 162.894C730.613 163.46 730.237 163.837 729.672 163.837C729.107 163.837 728.73 163.46 728.73 162.894V152.148C728.73 151.583 729.107 151.205 729.672 151.205C730.237 151.205 730.613 151.583 730.613 152.148V162.894ZM645.124 128.771C644.559 128.771 644.183 128.394 644.183 127.828C644.183 127.263 644.559 126.886 645.124 126.886H733.815C734.38 126.886 734.756 127.263 734.756 127.828C734.756 128.394 734.38 128.771 733.815 128.771H645.124ZM833.05 249.615H826.459V235.476H833.05V249.615ZM845.101 202.861H834.18V188.156H845.101V202.861ZM853.763 249.615H847.173V235.476H853.763V249.615ZM874.477 249.615H868.074V235.476H874.665V249.615H874.477ZM914.397 204.369C914.397 200.222 917.786 197.017 921.74 197.017C925.883 197.017 929.084 200.41 929.084 204.369V219.074H914.208V204.369H914.397ZM895.19 219.074H887.281V195.509H895.19V219.074ZM944.148 294.107H941.701V256.591C941.701 245.656 932.85 236.796 921.74 236.796C910.819 236.796 901.78 245.656 901.78 256.591V294.107H899.332V256.591C899.332 244.337 909.312 234.345 921.74 234.345C933.98 234.345 944.148 244.337 944.148 256.591V294.107ZM956.2 219.074H948.291V195.509H956.2V219.074ZM975.595 249.615H969.004V235.476H975.595V249.615ZM996.308 249.615H989.718V235.476H996.308V249.615ZM1009.49 202.861H998.568V188.156H1009.49V202.861ZM1017.02 249.615H1010.43V235.476H1017.02V249.615ZM1079.16 268.279C1079.16 266.017 1081.04 263.943 1083.49 263.943C1085.94 263.943 1087.82 265.828 1087.82 268.279V277.14L1079.35 277.328V268.279H1079.16ZM1068.43 268.279C1068.43 266.017 1070.31 263.943 1072.76 263.943C1075.02 263.943 1077.09 265.828 1077.09 268.279V277.517H1068.62V268.279H1068.43ZM1057.51 268.279C1057.51 266.017 1059.39 263.943 1061.84 263.943C1064.29 263.943 1066.17 265.828 1066.17 268.279V277.517H1057.69V268.279H1057.51ZM1046.77 268.279C1046.77 266.017 1048.66 263.943 1051.1 263.943C1053.36 263.943 1055.44 265.828 1055.44 268.279V277.517H1046.96V268.279H1046.77ZM1035.85 268.279C1035.85 266.017 1037.73 263.943 1040.18 263.943C1042.63 263.943 1044.51 265.828 1044.51 268.279V277.517H1036.04V268.279H1035.85ZM1036.23 294.107C1041.12 290.525 1052.23 283.927 1067.3 283.927C1081.8 283.927 1092.53 290.337 1097.8 294.107H1036.23ZM1098.56 276.951L1090.08 277.14V268.279C1090.08 266.017 1091.97 263.943 1094.41 263.943C1096.67 263.943 1098.74 265.828 1098.74 268.279V276.951H1098.56ZM1162.77 268.279C1162.77 266.017 1164.65 263.943 1167.1 263.943C1169.36 263.943 1171.43 265.828 1171.43 268.279V277.14L1162.96 277.328V268.279H1162.77ZM1152.03 268.279C1152.03 266.017 1153.92 263.943 1156.37 263.943C1158.81 263.943 1160.7 265.828 1160.7 268.279V277.517H1152.22V268.279H1152.03ZM1141.11 268.279C1141.11 266.017 1143 263.943 1145.44 263.943C1147.7 263.943 1149.77 265.828 1149.77 268.279V277.517H1141.11V268.279ZM1130.38 268.279C1130.38 266.017 1132.26 263.943 1134.71 263.943C1137.16 263.943 1139.04 265.828 1139.04 268.279V277.517H1130.57V268.279H1130.38ZM1119.46 268.279C1119.46 266.017 1121.34 263.943 1123.79 263.943C1126.05 263.943 1128.12 265.828 1128.12 268.279V277.517H1119.65V268.279H1119.46ZM1181.03 294.107H1119.83C1124.73 290.525 1135.84 283.927 1150.9 283.927C1165.03 283.927 1175.76 290.148 1181.03 293.919V294.107ZM1182.16 276.951L1173.69 277.14V268.279C1173.69 266.017 1175.57 263.943 1178.02 263.943C1180.47 263.943 1182.35 265.828 1182.35 268.279V276.951H1182.16Z" fill="#F2C148"/>
<path d="M1101.95 295.238L1099.12 291.091H1088.39L1085.56 295.238V296.369H1101.95V295.238Z" fill="#005898"/>
<path d="M500.508 218.32C502.767 218.32 504.65 216.623 504.65 214.361C504.65 212.099 502.767 210.402 500.508 210.402C498.248 210.402 496.365 212.099 496.365 214.361C496.365 216.623 498.248 218.32 500.508 218.32Z" fill="#005898"/>
<path d="M1278.76 322.951V322.009H1452V304.664H1412.46C1411.52 302.779 1409.44 301.46 1407 301.46C1407 301.46 1407 301.46 1406.81 301.46L1398.15 263.943L1394.57 248.296L1394 248.484V248.296H1391.55V245.656H1397.02V237.927H1391.55V206.443H1394.19V203.804H1391.55V142.722L1397.02 131.033V124.435H1386.28V90.5005H1387.6V87.8612H1380.82V66.5579H1379.5V47.7054H1380.82V45.0661H1379.5V27.5333H1380.82V24.894H1379.5V9.43494H1376.87V25.0825H1375.55V27.7218H1376.87V45.2546H1375.55V47.894H1376.87V66.7464H1375.55V88.2382H1368.77V90.8776H1370.09V124.812H1359.36V131.033L1364.82 142.722V203.804H1362.18V206.443H1364.82V237.738H1359.36V245.468H1364.82V248.107H1362.18L1350.13 299.951C1349 298.443 1347.3 297.5 1345.23 297.5C1342.6 297.5 1340.34 299.197 1339.58 301.46C1338.64 300.705 1337.32 300.14 1335.82 300.14C1333.93 300.14 1332.24 301.082 1331.11 302.402V291.091H1293.26V304.664H1289.12V261.115H1270.1V297.5H1265.96V270.164H1236.21V304.664H1225.1V289.582H1226.79V286.378H1223.59V273.935H1225.28V270.73H1222.08V263.001H1223.78V259.796H1220.58V248.484C1220.2 242.828 1215.87 245.468 1212.48 237.173V234.722H1215.68V231.517H1212.48V228.312H1209.28V231.517H1205.14V234.722H1208.34V237.361C1204.95 245.656 1200.43 243.017 1200.24 248.673V259.984H1197.04V263.189H1198.73V271.107H1195.53V274.312H1197.23V286.755H1193.84V289.96H1195.53V305.041H1187.25C1187.06 302.214 1185.36 299.763 1182.73 298.632C1183.48 298.066 1184.05 297.123 1184.05 296.181C1184.05 295.615 1183.86 295.05 1183.48 294.484C1183.67 294.484 1183.86 294.673 1184.05 294.673C1184.99 294.673 1185.74 294.107 1185.74 293.164C1185.74 292.222 1185.18 291.656 1184.05 291.656C1183.1 291.656 1182.35 292.222 1182.35 293.164C1182.35 293.353 1182.35 293.541 1182.54 293.73C1181.97 293.353 1181.41 293.164 1180.84 293.164V291.279C1180.84 290.337 1180.28 289.771 1179.15 289.771C1178.21 289.771 1177.46 290.337 1177.46 291.279V292.787C1175.57 292.787 1174.25 294.107 1174.25 295.992C1174.25 296.935 1174.82 297.878 1175.57 298.443C1173.12 299.574 1171.43 302.025 1171.05 304.853H1166.91V288.64L1164.27 283.361H1150.53L1147.89 288.64V289.96V299.009H1143.75V293.73V292.41L1141.11 287.132H1130.38L1127.74 292.41V304.853H1123.6V295.05H1118.33V244.148H1120.02L1121.72 240.755H1118.14C1118.14 240.566 1118.14 240.566 1118.14 240.378V235.287C1121.15 228.501 1122.09 224.541 1120.96 223.787C1120.4 223.41 1119.83 223.787 1119.08 224.541C1118.14 223.033 1116.45 222.091 1114.56 222.091C1112.49 222.091 1110.8 223.222 1109.85 224.919C1109.1 223.976 1108.35 223.41 1107.78 223.787C1106.65 224.353 1107.78 228.312 1111.17 235.287V240.189C1111.17 240.378 1111.17 240.378 1111.17 240.566H1107.59L1109.29 243.96H1110.98V294.673H1105.71V304.476H1101.57V295.992H1085.38V304.476H1082.74V289.582L1080.1 284.304H1061.08L1058.45 289.582V304.476H1054.49V171.378H1049.03V166.099H1034.16V162.14H1007.04V166.099H1002.9V171.378H998.756V304.853H993.295V282.042H983.88V171.378H962.225V163.648H932.474V171.378H928.331V282.042H918.916V304.853H911.384L905.358 295.992L913.078 271.673L898.203 253.009H895.378L896.508 254.705H889.729L888.599 253.009H886.34L887.281 254.705H879.749L878.996 253.009H876.736L877.301 254.705H866.38L865.815 253.009H863.743L864.308 254.705H852.633L852.257 253.009H849.997L850.374 254.705H838.887V253.009H836.816V254.705H825.518L825.894 253.009H823.823L823.447 254.705H811.583L812.148 253.009H810.265L809.7 254.705H798.591L799.156 253.009H797.084L796.331 254.705H788.611L789.552 253.009H787.104L785.974 254.705H779.195L780.325 253.009H777.501L762.625 271.673L770.345 295.992L764.32 304.853H754.151V280.722H735.133V297.689H730.99V263.943H726.283C725.341 263.943 724.588 263.378 724.399 262.435C722.705 254.705 715.738 249.615 707.829 249.427C701.05 249.238 695.213 252.632 692.2 257.722C691.258 259.23 689.375 259.984 687.68 259.419C686.174 258.853 684.668 258.664 683.161 258.664C678.642 258.664 674.876 260.927 672.616 264.132C671.863 265.263 670.545 265.828 669.227 265.64C668.285 265.451 667.532 265.451 666.402 265.64C660.753 266.017 656.611 270.541 656.611 275.82V281.099H633.638V305.23H629.495V278.082H620.08V283.361H597.107V304.853H592.964C592.964 302.779 591.835 301.082 590.328 299.951V293.73H580.913V290.337C581.666 289.96 582.231 289.394 582.796 289.017C583.926 287.886 583.926 286.189 582.796 285.058C581.666 283.927 579.971 283.927 578.842 285.058C577.9 286 574.699 287.509 568.297 287.509C561.894 287.509 558.693 286 557.752 285.058C556.622 283.927 554.927 283.927 553.797 285.058C552.668 286.189 552.668 287.886 553.797 289.017C554.174 289.394 554.739 289.771 555.116 290.148V293.919H552.291C552.103 290.525 549.655 287.697 546.454 286.566C546.83 285.812 547.019 285.058 547.019 284.115C547.019 280.91 544.382 278.271 540.993 278.271C539.486 278.271 538.357 278.837 537.227 279.591C536.474 277.328 534.214 275.632 531.578 275.632C528.942 275.632 526.682 277.328 525.74 279.591C525.364 279.591 524.987 279.402 524.799 279.402C523.857 279.402 523.104 279.591 522.351 279.779C521.221 278.648 519.715 278.082 518.02 278.082C517.267 278.082 516.514 278.271 515.949 278.46L514.631 274.312H511.806L509.735 226.992C509.735 226.238 509.546 225.296 509.358 224.541L520.468 208.894C521.786 208.517 522.916 207.386 522.916 205.878C522.916 204.746 522.163 203.804 521.221 203.238V177.787H517.832V203.05C516.89 203.615 516.137 204.558 516.137 205.689C516.137 206.255 516.325 206.82 516.702 207.386L505.215 219.451C503.897 218.697 502.203 218.132 500.508 218.132C499.001 218.132 497.495 218.509 496.177 219.263L489.021 211.156C489.586 209.837 489.963 208.705 489.963 208.705V196.263C489.963 196.263 487.327 194.755 483.372 194.755C479.983 194.755 476.782 196.263 476.782 196.263V208.705C476.782 208.705 479.795 217.943 483.372 217.943C484.502 217.943 485.632 217.001 486.573 215.681L492.034 223.787C491.658 224.541 491.469 225.484 491.469 226.427L489.21 273.935H486.573L484.879 279.214C484.69 279.214 484.314 279.214 484.126 279.214C481.489 279.214 479.23 280.91 478.477 283.173C477.535 282.419 476.217 281.853 474.71 281.853C473.769 281.853 472.827 282.041 472.074 282.419C471.133 280.533 469.061 279.214 466.613 279.214C464.73 279.214 462.847 280.156 461.906 281.476C460.964 280.91 459.835 280.533 458.516 280.533C457.575 280.533 456.633 280.722 455.88 281.099C454.939 279.402 453.244 278.082 451.173 277.894V275.255L447.03 268.656H436.297V264.697H437.615L434.979 260.738H433.661V247.73H434.979L432.342 243.771H431.024V228.123H431.966L433.661 226.804L431.024 222.845H429.33C429.141 219.263 427.07 216.246 423.869 215.492V212.664H426.505V210.025H423.869V207.386H421.233V210.025H418.596V212.664H421.233V215.492C418.22 216.246 415.96 219.263 415.772 222.845H414.454L411.817 226.804L413.136 228.123H414.454V243.771H413.136L410.499 247.73H411.817V260.738H410.499L407.863 264.697H409.181V275.066H404.85C404.474 271.673 401.461 269.033 397.695 268.656V266.394H399.389V264.886H397.695V263.378H396V264.886H394.117V266.394H396V268.468C392.234 268.845 389.033 271.484 388.845 274.878V270.541C389.598 269.599 390.163 268.468 390.163 267.148C390.163 264.697 387.526 265.074 385.643 263.189V261.115H387.338V259.607H385.643V258.099H383.949V259.607H382.066V261.115H383.949V263.189C383.195 264.132 382.254 264.509 381.312 264.886C381.689 263.943 382.066 263.001 382.066 262.058C382.066 258.853 378.488 259.607 376.228 256.968V254.328H377.923V252.443H376.228V250.558H374.534V252.443H372.651V254.328H374.534V256.968C372.274 259.796 368.508 258.853 368.508 262.246C368.508 263.755 369.073 265.074 369.826 266.205V271.484H366.625C367.755 270.541 368.508 269.222 368.508 267.525C368.508 265.074 365.872 265.451 363.989 263.566V261.492H365.683V259.984H363.989V258.476H362.294V259.984H360.411V261.492H362.294V263.566C360.411 265.64 357.775 265.074 357.775 267.525C357.775 268.845 358.34 269.976 359.093 270.919V271.484H356.457L352.126 278.082H354.762V280.722C354.573 280.722 354.385 280.722 354.009 280.722C352.69 280.722 351.561 281.099 350.619 281.664C349.489 280.345 347.795 279.402 345.912 279.402C343.652 279.402 341.769 280.533 340.639 282.23C340.074 282.041 339.698 282.042 339.133 282.042C335.932 282.042 333.484 284.304 333.107 287.32C329.529 287.697 326.516 290.525 326.328 294.107C323.88 294.861 322.185 297.123 322.185 299.574C322.185 299.763 322.185 299.763 322.185 299.951C320.491 301.082 319.361 302.779 319.361 304.853V305.419H270.214L206.379 235.476L205.626 233.779H205.061L204.308 233.214L204.12 233.025L203.555 232.648L202.425 233.968H201.672L201.107 235.287L136.519 305.23H132.942C131.812 303.722 130.117 302.968 128.046 302.968C126.539 302.968 125.409 303.533 124.28 304.287C123.526 302.025 121.267 300.328 118.631 300.328C116.748 300.328 114.864 301.271 113.923 302.591C112.981 302.025 111.852 301.648 110.534 301.648C108.651 301.648 106.767 302.591 105.826 303.91C104.884 303.345 103.755 302.968 102.437 302.968C101.118 302.968 99.9886 303.345 99.0471 303.91C99.0471 303.722 99.0471 303.722 99.0471 303.533C99.0471 300.517 96.5992 298.066 93.5863 297.689V258.664H71.9315V267.714H63.8345V252.066H42.1797V267.714H19.2068V305.23H0V323.14H138.967V312.017H143.675V309.378H150.454V312.017H153.09V323.14H157.233V312.017H160.057V309.378H166.836V312.017H169.472V323.14H173.615V312.017H176.251V309.378H183.03V312.017H185.666V323.14H189.809V312.017H192.445V309.378H199.224V323.14H208.639V309.378H215.418V312.017H218.054V323.14H222.197V312.017H224.833V309.378H232.93V312.017H235.566V323.14H239.709V312.017H242.345V309.378H249.124V312.017H251.76V323.14H255.903V312.017H258.539V309.378H265.318V312.017H267.954V323.14H272.097V312.017H274.733V309.378H281.512V312.017H284.148V323.14H288.291V312.017H290.927V309.378H299.024V312.017H301.66V323.14H305.803V312.017H308.439V309.378H315.218V312.017H319.361V323.14H1278.76V322.951ZM1399.09 279.402L1402.85 295.615L1397.39 281.853L1399.09 279.402ZM1400.41 296.935L1393.63 286.943V286.566L1395.32 284.304L1400.41 296.935ZM1398.33 276.009L1396.26 278.837L1393.06 270.919L1396.26 266.771L1398.33 276.009ZM1391.55 250.746H1392.5L1395.51 263.566L1391.93 268.279L1391.55 267.337V250.746ZM1391.55 274.689L1394.19 281.476L1391.55 285.058V274.689ZM1391.55 288.451L1398.9 299.386C1398.15 299.009 1397.2 298.82 1396.26 298.82C1394.38 298.82 1392.68 299.763 1391.55 301.082V288.451ZM1388.73 288.828V302.025C1388.35 302.214 1387.98 302.402 1387.6 302.591L1385.91 297.312L1388.73 288.828ZM1386.09 288.451L1384.59 292.787L1383.08 288.451H1386.09ZM1380.63 289.582L1383.08 297.123L1382.89 297.878C1382.33 297.689 1381.95 297.689 1381.39 297.689C1381.2 297.689 1381.01 297.689 1380.63 297.689V289.582ZM1375.17 300.328C1374.61 300.328 1374.04 300.517 1373.67 300.705L1372.54 297.123L1375.36 288.828V300.328H1375.17ZM1372.54 288.451L1371.03 292.787L1369.52 288.451H1372.54ZM1367.08 289.582L1369.52 297.123L1369.15 298.443C1368.58 298.066 1367.83 297.878 1367.08 297.878V289.582ZM1364.44 288.828V297.878C1362.74 298.443 1361.24 299.763 1360.67 301.46C1360.3 301.46 1359.92 301.271 1359.73 301.271C1358.23 301.271 1356.72 301.837 1355.59 302.779C1355.4 302.591 1355.21 302.591 1355.02 302.402L1364.44 288.828ZM1362.18 287.132L1355.78 296.746L1360.67 284.869L1362.18 287.132ZM1361.8 282.042L1364.44 275.632V285.435L1364.25 285.246L1361.8 282.042ZM1363.87 250.746H1364.44V268.279L1364.25 268.468L1360.86 263.943L1363.87 250.746ZM1360.11 267.337L1363.12 271.484L1359.92 279.591L1357.85 276.951L1360.11 267.337ZM1357.1 280.156L1358.79 282.23L1353.89 294.296L1357.1 280.156ZM898.014 256.591L907.994 271.484H906.488C905.923 271.296 905.546 270.73 904.417 270.73C903.287 270.73 902.722 271.296 902.157 271.484H900.651L891.235 256.591H898.014ZM888.411 256.591L896.32 271.484H893.872C893.307 271.107 892.554 270.541 891.424 270.541C890.294 270.541 889.541 271.107 888.976 271.484H887.281L880.502 256.591H888.411ZM878.054 256.591L883.515 271.484H882.009C881.255 271.107 880.126 269.976 878.054 269.976C875.983 269.976 875.041 271.107 874.288 271.484H871.84L866.944 256.591H878.054ZM864.685 256.591L868.827 271.484H866.38C865.438 271.107 864.308 269.976 862.425 269.976C860.354 269.976 859.224 271.107 858.471 271.484H856.211L853.01 256.591H864.685ZM838.699 256.591H850.75L853.763 271.484H851.127C850.185 271.107 848.867 269.599 846.419 269.599C843.971 269.599 842.653 271.107 841.712 271.484H838.887V256.591H838.699ZM824.765 256.591H836.439V271.484H834.18C833.238 271.107 831.92 269.599 829.472 269.599C827.024 269.599 825.706 271.107 824.765 271.484H821.94L824.765 256.591ZM810.83 256.591H822.693L819.304 271.484H817.044C816.103 271.107 814.973 269.976 813.09 269.976C811.019 269.976 809.889 271.107 809.136 271.484H806.688L810.83 256.591ZM797.461 256.591H808.759L803.863 271.484H801.227C800.474 271.107 799.344 269.976 797.461 269.976C795.389 269.976 794.448 271.107 793.506 271.484H792L797.461 256.591ZM787.104 256.591H795.013L788.234 271.484H786.539C785.974 271.107 785.221 270.541 784.091 270.541C782.961 270.541 782.208 271.107 781.643 271.484H779.007L787.104 256.591ZM769.215 271.484H767.709L777.689 256.591H784.468L775.053 271.484H773.358C772.793 271.296 772.417 270.73 771.287 270.73C770.157 270.73 769.592 271.296 769.215 271.484ZM199.224 305.419H189.244L199.224 277.894V305.419ZM199.224 269.976L186.231 305.419H171.732L199.036 264.132V269.976H199.224ZM199.224 259.23L168.719 305.419H156.668L199.412 251.689V259.23H199.224ZM199.224 247.353L153.278 305.041L153.655 305.23H139.909L199.036 241.132V247.353H199.224ZM208.639 305.419V278.271L218.431 305.419H208.639ZM221.255 305.419L208.639 270.353V264.509L235.378 305.419H221.255ZM238.767 305.419L208.827 259.607V252.066L250.819 305.419H238.767ZM254.02 305.419L208.639 247.73V241.697L266.825 305.607H254.02V305.419Z" fill="#1F4E9D"/>
</g>
<defs>
<clipPath id="clip0_9_4177">
<rect width="1452" height="322" fill="white" transform="translate(0 0.951355)"/>
</clipPath>
</defs>
</svg>
