<svg width="30" height="31" viewBox="0 0 30 31" fill="none" xmlns="http://www.w3.org/2000/svg">
<g clip-path="url(#clip0_9_5591)">
<path d="M22.48 30.2414C17.52 30.2414 12.56 30.2414 7.6 30.2414C7.28 30.1614 6.96 30.1614 6.64 30.0814C3.36 29.3614 1.2 27.2814 0.24 24.0814C0.08 23.6014 0.08 23.2014 0 22.7214C0 17.7614 0 12.8014 0 7.84144C0 7.76144 0.08 7.60144 0.08 7.52144C0.16 6.72144 0.32 5.92144 0.72 5.20144C2.24 2.00144 4.72 0.321437 8.24 0.321437C12.8 0.241437 17.36 0.321437 21.84 0.321437C23.28 0.321437 24.64 0.641437 25.84 1.36144C28.56 2.96144 30 5.44144 30 8.56144C30 13.0414 30 17.5214 30 22.0014C30 22.5614 30 23.1214 29.84 23.6814C29.12 26.9614 27.12 29.1214 23.84 30.0014C23.36 30.1614 22.88 30.1614 22.48 30.2414ZM28.24 15.2814C28.24 13.0414 28.24 10.8014 28.24 8.56144C28.24 8.08144 28.24 7.52144 28.08 7.04144C27.36 4.00144 24.88 2.00144 21.76 2.00144C17.28 2.00144 12.72 2.00144 8.24 2.00144C7.76 2.00144 7.28 2.00144 6.8 2.16144C3.76 2.88144 1.76 5.36144 1.76 8.48144C1.76 12.9614 1.76 17.5214 1.76 22.0014C1.76 22.4814 1.76 22.9614 1.92 23.4414C2.56 26.4014 5.12 28.4814 8.16 28.4814C12.72 28.4814 17.28 28.4814 21.84 28.4814C22.72 28.4814 23.68 28.3214 24.48 27.9214C26.96 26.7214 28.24 24.7214 28.24 22.0014C28.24 19.7614 28.24 17.5214 28.24 15.2814Z" fill="#005898"/>
<path d="M15.04 23.4414C10.56 23.4414 6.80005 19.7614 6.80005 15.2814C6.80005 10.8014 10.48 7.12144 14.96 7.04144C19.44 7.04144 23.2 10.7214 23.2 15.2014C23.2 19.7614 19.52 23.4414 15.04 23.4414ZM21.44 15.2814C21.44 11.7614 18.56 8.80143 15.04 8.80143C11.52 8.80143 8.64005 11.6814 8.56005 15.2014C8.56005 18.7214 11.44 21.6814 14.96 21.6814C18.48 21.7614 21.44 18.8014 21.44 15.2814Z" fill="#005898"/>
<path d="M23.44 8.96144C22.08 8.96144 21.04 7.84144 21.04 6.56144C21.04 5.28144 22.16 4.16144 23.44 4.16144C24.72 4.16144 25.84 5.28144 25.84 6.56144C25.84 7.84144 24.72 8.96144 23.44 8.96144ZM23.44 5.92144C23.12 5.92144 22.8 6.24144 22.8 6.56144C22.8 6.88144 23.12 7.28144 23.44 7.28144C23.76 7.28144 24.08 6.96144 24.08 6.64144C24.08 6.24144 23.76 5.92144 23.44 5.92144Z" fill="#005898"/>
</g>
<defs>
<clipPath id="clip0_9_5591">
<rect width="30" height="30" fill="white" transform="translate(0 0.24144)"/>
</clipPath>
</defs>
</svg>
