<svg width="63" height="62" viewBox="0 0 63 62" fill="none" xmlns="http://www.w3.org/2000/svg">
<g clip-path="url(#clip0_21_3003)">
<path d="M38.8463 59.9408C38.8463 60.4779 38.8463 60.8808 38.8463 61.3285C38.8463 61.5075 38.8463 61.7314 38.8463 62C38.5733 62 38.3459 62 38.1185 62C33.4788 62 28.839 62 24.1993 62C21.8795 62 19.6961 61.5076 17.6491 60.478C13.6917 58.5083 9.68886 56.5834 5.73146 54.6137C2.86575 53.1812 2.22893 49.4657 4.41232 47.3169C5.77694 45.974 7.7329 45.6158 9.5524 46.4216C10.6896 46.914 11.8268 47.4512 12.873 47.8989C13.7372 47.0483 14.556 46.2426 15.3293 45.392C15.5567 45.1682 15.6932 44.7653 15.7387 44.452C15.7842 40.4678 15.6932 36.439 15.7842 32.4548C15.8751 25.4267 19.1957 20.5025 25.7004 17.6375C25.7914 17.5927 25.8369 17.548 25.9733 17.5032C25.1091 16.0707 24.2448 14.6382 23.426 13.2057C23.2896 12.9371 23.1531 12.6686 23.1076 12.3552C23.0621 11.7285 23.5625 11.3704 24.3813 11.3704C26.8376 11.3704 29.2939 11.3704 31.7502 11.3704C34.0246 11.3704 36.299 11.3704 38.5733 11.3704C39.8015 11.3704 40.2564 12.1314 39.6195 13.161C38.7553 14.5935 37.891 16.026 37.0268 17.5032C37.2997 17.6375 37.5271 17.727 37.7546 17.8166C43.8044 20.6368 47.034 25.3371 47.2614 31.8729C47.3979 35.6779 47.3069 39.483 47.3069 43.3328C46.6246 43.3328 45.9423 43.3328 45.2145 43.3328C45.2145 43.109 45.2145 42.8852 45.2145 42.6613C45.2145 39.1696 45.2145 35.6779 45.2145 32.1862C45.169 26.0982 41.3936 21.0397 35.4802 19.1595C34.343 18.8014 34.1156 18.2642 34.7069 17.2346C35.4347 15.9812 36.208 14.7725 36.9813 13.4743C33.2968 13.4743 29.7033 13.4743 26.0643 13.4743C26.1553 13.6534 26.2463 13.8325 26.3372 14.0115C27.0195 15.1307 27.7019 16.2498 28.3842 17.4137C28.8845 18.2642 28.6571 18.8462 27.7019 19.1595C25.7004 19.7862 23.9264 20.7263 22.3798 22.114C19.4686 24.8 17.9221 28.0678 17.8766 32.0072C17.8311 35.6332 17.7401 39.3039 17.9221 42.9299C18.013 45.0787 17.5127 46.7798 15.7387 48.0779C15.4658 48.257 15.2383 48.5704 14.9654 48.8837C15.6932 49.1971 16.3755 49.5104 17.0578 49.8238C17.6946 50.1372 18.3769 50.4057 18.9228 50.6743C19.0138 49.9133 18.9683 49.1971 19.1502 48.4808C19.6051 46.735 21.2881 45.5263 23.1531 45.5263C25.5639 45.5263 27.9748 45.5263 30.3856 45.5263C30.7495 45.5263 31.1134 45.4368 31.4318 45.2577C36.299 42.9747 41.1661 42.9747 46.0333 45.2577C46.3517 45.4368 46.7611 45.4816 47.1704 45.5263C47.5343 45.5711 47.8982 45.5263 48.3076 45.5263C48.3076 46.1978 48.3076 46.8693 48.3076 47.5855C47.9892 47.5855 47.7163 47.6303 47.3524 47.6303C47.3524 51.7487 47.3524 55.8223 47.3524 59.9855C50.8094 59.9855 54.2665 59.9855 57.769 59.9855C57.769 57.2548 57.769 54.5689 57.769 51.7935C58.4968 51.7935 59.1336 51.7935 59.8614 51.7935C59.8614 51.9278 59.9069 52.1068 59.9069 52.2859C59.9069 55.1061 59.9069 57.9711 59.9069 60.7913C59.9069 61.6418 59.543 62.0447 58.7242 62.0447C52.9473 62.0447 47.125 62.0447 41.3481 62.0447C41.2571 62.0447 41.1661 62.0447 41.0751 62C41.0751 61.3285 41.0751 60.7018 41.0751 59.9855C42.4398 59.9855 43.8044 59.9855 45.2145 59.9855C45.2145 59.7169 45.26 59.5379 45.26 59.3588C45.26 55.4642 45.26 51.6144 45.26 47.7198C45.26 47.2722 45.1235 47.0483 44.6686 46.8693C40.5748 45.0787 36.4809 45.1682 32.4325 47.0931C31.7502 47.4065 31.1134 47.5855 30.3856 47.5855C28.0658 47.5408 25.7459 47.5855 23.426 47.5855C22.0159 47.5855 21.0607 48.4361 21.0607 49.6447C21.0607 50.8534 22.0159 51.7039 23.426 51.7039C26.2463 51.7039 29.021 51.7039 31.8412 51.7039C32.0686 51.7039 32.2961 51.7039 32.6145 51.7039C32.6145 52.3754 32.6145 53.0469 32.6145 53.7631C32.3871 53.7631 32.1596 53.7631 31.8867 53.7631C28.4751 53.7631 25.0636 53.7631 21.652 53.7631C21.1517 53.7631 20.6058 53.6288 20.151 53.4498C16.4665 51.8382 12.782 50.1372 9.14301 48.4808C7.59644 47.7646 6.23182 48.1675 5.595 49.4209C5.00366 50.5848 5.54951 52.2411 6.95962 52.9126C10.917 54.7927 14.7834 56.7177 18.6954 58.6873C20.4694 59.5826 22.3343 59.9855 24.3358 59.9855C28.93 59.9855 33.5697 59.9855 38.164 59.9855C38.3004 59.9408 38.5733 59.9408 38.8463 59.9408Z" fill="#FABF3B"/>
<path d="M51.9466 42.1242C51.9466 44.3624 51.9466 46.5559 51.9466 48.839C54.1755 48.2123 56.3134 47.5856 58.6332 46.9588C58.3148 46.735 58.0874 46.5559 57.86 46.3769C57.1322 45.8397 57.0867 45.4816 57.4506 44.6758C58.1784 42.9747 58.9971 41.3184 59.5885 39.5726C60.6802 36.3942 61.0441 33.0816 60.9076 29.7242C60.9076 29.5451 60.9076 29.3661 60.9076 29.187C60.9076 29.1422 60.9531 29.0975 60.9986 29.0079C61.5899 28.9632 62.2722 28.9184 62.9545 28.9184C63.3184 34.6484 62.1813 40.0202 59.5885 45.1235C60.1798 45.5711 60.7711 46.0635 61.408 46.4664C61.8174 46.735 62.0448 47.0931 61.9538 47.6303C61.8628 48.1227 61.499 48.3466 60.9986 48.4809C57.769 49.3762 54.5394 50.3162 51.3098 51.2115C50.4 51.4801 49.7632 51.0325 49.7632 50.0924C49.7632 46.735 49.7632 43.3776 49.8542 40.0202C49.8542 39.6621 50.1271 39.2144 50.4455 39.0801C50.7184 38.9458 51.2188 39.0801 51.5827 39.2144C51.9011 39.3487 52.174 39.6173 52.5379 39.8859C53.3112 38.2296 53.7661 36.5733 54.0845 34.8274C55.995 23.9047 49.4448 13.1162 38.7553 9.6693C31.7047 7.43104 24.9726 8.37111 18.7408 12.3552C17.6036 13.0715 17.2397 13.0267 16.5119 11.9076C15.5112 10.3408 14.5105 8.774 13.4643 7.20721C12.9184 6.3119 13.0094 5.86425 13.8282 5.32706C19.9235 1.34295 26.5647 -0.447665 33.7971 0.0895194C47.2159 1.11912 58.2239 10.0274 61.8628 22.7408C62.1358 23.6809 62.3177 24.6209 62.5906 25.6505C61.8629 25.7848 61.1805 25.8744 60.5892 26.0087C57.9964 14.7726 51.4008 7.02815 40.2563 3.40215C31.6592 0.626704 22.5163 2.28302 15.6932 6.71479C16.4665 7.92345 17.2397 9.13212 18.0585 10.3408C20.1964 8.99782 22.4708 8.01299 24.8361 7.34151C38.3004 3.53645 52.6289 11.818 55.8585 25.2476C57.1777 30.7985 56.6318 36.1256 54.2665 41.3184C53.5841 42.6166 53.3112 42.7061 51.9466 42.1242Z" fill="#FABF3B"/>
<path d="M12.691 43.87C12.1452 44.2729 11.5993 44.631 10.917 45.0787C10.1437 43.6014 9.27945 42.2585 8.64263 40.826C5.73143 34.0664 5.82241 27.3068 8.87006 20.6368C9.41591 19.4281 9.77981 19.2938 11.008 19.8758C11.008 17.6375 11.008 15.444 11.008 13.161C8.82458 13.7877 6.64118 14.3697 4.36681 15.0411C4.7762 15.3545 5.09461 15.5783 5.36754 15.8021C5.82241 16.1603 5.91338 16.6079 5.68595 17.1451C5.09461 18.4433 4.45779 19.6967 3.82096 21.0397C3.22963 20.8159 2.59281 20.592 1.9105 20.3682C2.41086 19.2043 2.91122 18.1299 3.41158 16.966C2.82024 16.5184 2.22891 16.0707 1.63757 15.6231C1.1827 15.2202 0.909773 14.8621 1.04624 14.3249C1.13721 13.8325 1.5466 13.6086 2.00147 13.4743C5.23107 12.579 8.41519 11.639 11.6448 10.7437C12.6 10.4751 13.1914 10.878 13.1914 11.8628C13.1914 15.2202 13.1914 18.5328 13.1004 21.8902C13.1004 22.2484 12.8275 22.6512 12.5545 22.8751C12.1906 23.1884 11.7358 23.0094 11.3719 22.7408C11.0989 22.5169 10.826 22.3379 10.4621 22.0693C7.41447 29.7689 8.18775 36.9762 12.691 43.87Z" fill="#FABF3B"/>
<path d="M30.431 34.1113C27.8837 33.7979 26.2917 32.1864 26.2917 29.9929C26.2917 27.7546 27.8383 26.1431 30.4765 25.7849C30.4765 25.1582 30.4765 24.4868 30.4765 23.7705C31.2043 23.7705 31.8411 23.7705 32.5689 23.7705C32.5689 24.3972 32.5689 25.0687 32.5689 25.7849C33.9336 25.8745 35.0253 26.3669 35.844 27.3517C36.4354 28.068 36.7538 28.9185 36.7538 29.9034C36.0715 29.9034 35.3892 29.9034 34.7523 29.9034C34.2975 28.4709 33.7971 27.9785 32.6144 27.8889C32.6144 29.2319 32.6144 30.5748 32.6144 31.9626C33.9336 32.0521 35.0707 32.5445 35.935 33.6189C36.5718 34.4247 36.8448 35.32 36.7993 36.3496C36.7083 38.4535 35.1162 39.9756 32.6144 40.2889C32.6144 40.9156 32.6144 41.5871 32.6144 42.3034C31.8866 42.3034 31.2498 42.3034 30.522 42.3034C30.522 41.6766 30.522 41.0052 30.522 40.2889C29.1574 40.1994 28.0657 39.707 27.2469 38.7221C26.6556 37.9611 26.3372 37.1553 26.3372 36.1705C27.0195 36.1705 27.6563 36.1705 28.3386 36.1705C28.748 37.5582 29.2939 38.0507 30.4765 38.1402C30.431 36.842 30.431 35.499 30.431 34.1113ZM30.431 27.9337C29.3393 27.8442 28.2931 28.9185 28.3386 30.0377C28.3841 31.1568 29.3393 32.0073 30.431 31.9626C30.431 30.6196 30.431 29.2766 30.431 27.9337ZM32.5689 38.185C33.8426 38.0954 34.7068 37.2001 34.6614 36.0362C34.6159 35.0514 33.6152 33.977 32.5689 34.1561C32.5689 35.499 32.5689 36.7972 32.5689 38.185Z" fill="#FABF3B"/>
<path d="M3.3206 44.8996C-0.181929 37.8267 -0.909728 30.5299 1.04623 22.9646C1.27367 23.0094 1.36464 23.0094 1.5011 23.0541C2.00146 23.1884 2.50182 23.3227 3.04767 23.5018C1.22818 30.5747 1.91049 37.379 5.14009 44.0043C4.82168 44.1834 4.50327 44.3177 4.23034 44.4967C4.00291 44.5863 3.6845 44.7206 3.3206 44.8996Z" fill="#FABF3B"/>
<path d="M22.9256 24.3972C23.4715 24.8896 23.9264 25.2925 24.4722 25.7849C22.6527 27.8441 21.8794 30.2615 22.0614 33.0369C21.3336 33.0369 20.6968 33.0369 19.969 33.0369C19.787 29.7691 20.6968 26.9041 22.9256 24.3972Z" fill="#FABF3B"/>
<path d="M51.4462 57.837C50.3091 57.837 49.3538 56.8969 49.3538 55.7778C49.3538 54.6139 50.3091 53.6738 51.4917 53.7186C52.6289 53.7186 53.5841 54.6586 53.5387 55.7778C53.5387 56.9417 52.5834 57.8818 51.4462 57.837Z" fill="#FABF3B"/>
<path d="M24.5632 22.92C25.2 22.5171 25.8368 22.159 26.4736 21.7561C26.7921 22.4276 27.065 22.9648 27.3834 23.5915C26.883 23.9048 26.3827 24.2182 25.8368 24.5316C25.4274 24.0391 25.018 23.502 24.5632 22.92Z" fill="#FABF3B"/>
</g>
<defs>
<clipPath id="clip0_21_3003">
<rect width="63" height="62" fill="white"/>
</clipPath>
</defs>
</svg>
