<svg width="57" height="57" viewBox="0 0 57 57" fill="none" xmlns="http://www.w3.org/2000/svg">
<g clip-path="url(#clip0_21_3073)">
<path d="M8.25985 57C7.71374 56.8986 7.20177 56.8311 6.68979 56.6959C2.62811 55.6823 -0.170689 51.9318 0.0341018 47.8435C0.238892 43.62 3.34488 40.1737 7.54308 39.5655C9.89817 39.2276 12.0826 39.7682 14.0281 41.1535C14.1646 41.2549 14.267 41.3225 14.4036 41.4238C15.1886 40.6467 15.9395 39.9034 16.7245 39.1263C14.3353 36.4232 12.97 33.281 12.7311 29.5643C12.0143 29.5643 11.3317 29.5305 10.6491 29.5981C10.5467 29.5981 10.4101 29.8684 10.3419 30.0373C9.65925 32.3687 7.61135 33.8891 5.22213 33.8554C2.55985 33.7878 0.443683 31.7267 0.204761 29.0575C-2.99215e-05 26.591 1.87722 24.1583 4.3347 23.719C6.99698 23.246 9.52272 24.7327 10.2736 27.233C10.4443 27.8073 10.6832 27.9763 11.2293 27.9087C11.7072 27.8411 12.185 27.9087 12.7311 27.9087C12.97 24.2258 14.3012 21.0498 16.7245 18.3468C15.9395 17.5696 15.1545 16.7925 14.3353 16.0154C12.0143 17.5021 9.42033 17.9751 6.68979 17.1304C4.57362 16.4884 2.9353 15.1707 1.77482 13.2786C-0.512006 9.52815 0.375419 4.69649 3.82272 1.95968C7.27003 -0.777129 12.2191 -0.574402 15.4275 2.43271C18.6018 5.37225 19.4209 10.8797 15.7688 14.8328C16.5197 15.5762 17.2365 16.2857 17.9191 16.9615C19.182 16.1843 20.4107 15.3396 21.7078 14.6639C23.4143 13.7854 25.2575 13.3124 27.203 13.1772C27.5784 13.1434 27.7149 13.0421 27.6808 12.6704C27.6467 12.2987 27.6467 11.8933 27.6808 11.4878C27.7149 11.0486 27.5784 10.8121 27.1006 10.6769C24.8137 10.0688 23.3119 7.97391 23.3461 5.64255C23.4143 3.34498 25.0527 1.31771 27.3395 0.810898C30.0359 0.202718 32.7664 1.82453 33.4832 4.45998C34.2 7.09543 32.664 9.89981 30.0359 10.6431C29.4557 10.8121 29.3191 11.0486 29.3533 11.5892C29.3874 12.0622 29.3533 12.5353 29.3533 13.0759C33.0395 13.3462 36.282 14.6301 38.9784 16.9952C39.7293 16.2519 40.4802 15.5424 41.2652 14.7653C39.3197 12.6028 38.4664 10.0688 38.9784 7.163C39.3539 5.00058 40.4461 3.24362 42.1868 1.89211C45.6682 -0.878492 50.6856 -0.608189 53.894 2.50029C57.0682 5.60876 57.4096 10.5756 54.7131 14.0557C51.9826 17.5696 46.8287 18.6846 42.7329 15.9816C41.9479 16.7587 41.1628 17.5021 40.3778 18.2792C40.8898 18.9887 41.4359 19.7321 41.982 20.5092C42.0844 20.6443 42.1527 20.7795 42.2551 20.9484C42.5964 21.5566 42.5281 22.0296 42.0503 22.2999C41.5724 22.5702 41.1628 22.4013 40.8215 21.7931C39.4221 19.428 37.4766 17.6034 34.985 16.3195C26.691 12.0284 16.3149 17.029 14.6766 26.0504C13.8233 30.8145 15.0862 34.9704 18.4311 38.4843C18.5335 38.5856 18.6359 38.687 18.8066 38.8222C19.1479 36.1867 21.0251 35.1393 23.2437 34.4973C23.6191 34.396 24.0287 34.3284 24.37 34.1594C24.5748 34.0581 24.7455 33.8891 24.9161 33.7878C24.1652 33.0107 23.4485 32.3687 22.8341 31.6254C21.776 30.3076 21.2299 28.821 21.264 27.0978C21.2982 25.5436 21.2299 23.9893 21.8443 22.5027C22.0149 22.0634 22.2539 21.6242 22.4928 21.2187C22.7658 20.7795 23.2437 20.6443 23.6533 20.8808C24.0628 21.1174 24.1652 21.5566 23.9604 22.0296C23.6874 22.7054 23.4143 23.3811 23.1754 24.0231C23.1072 24.192 23.1413 24.361 23.2095 24.5975C23.4485 24.3948 23.7215 24.192 23.9263 23.9555C24.6431 23.2122 25.4964 22.9757 26.4862 23.3136C27.6808 23.719 28.8754 23.9217 30.1042 23.4149C30.2748 23.3474 30.4455 23.3136 30.582 23.2798C31.5036 23.0095 32.3227 23.2122 33.0054 23.9217C33.2443 24.1583 33.5173 24.3948 33.8928 24.5637C33.8587 24.3272 33.8245 24.0907 33.7904 23.8542C33.2101 21.4214 31.4694 19.7996 28.9778 19.5631C28.2269 19.4955 27.4419 19.7321 26.6569 19.8672C26.5203 19.901 26.3838 19.9686 26.2473 20.0361C25.7353 20.2051 25.3257 20.0361 25.1209 19.5969C24.9161 19.1577 25.0868 18.7184 25.5988 18.5157C26.964 17.9075 28.3976 17.7048 29.8652 18.0089C32.9371 18.6509 35.1898 21.0498 35.5652 24.192C35.7359 25.5773 35.77 26.9964 35.6335 28.3479C35.3946 30.409 34.1658 31.997 32.5616 33.3148C32.391 33.4499 32.2545 33.5513 31.9473 33.7878C32.2203 33.9905 32.4593 34.1594 32.6982 34.2608C33.2784 34.4635 33.8928 34.5987 34.473 34.8014C36.4527 35.4772 37.8862 36.626 38.1934 38.8897C39.2515 37.9099 40.0706 36.8625 40.7533 35.7137C42.5281 32.6052 43.006 29.3278 42.3233 25.8139C42.2892 25.6787 42.2551 25.5773 42.2551 25.4422C42.1868 24.9016 42.4257 24.4961 42.8694 24.3948C43.3473 24.2934 43.791 24.5299 43.8934 25.1043C44.064 25.8814 44.1664 26.6248 44.2688 27.4019C44.303 27.537 44.303 27.706 44.303 27.9087C44.9856 27.9087 45.6682 27.9425 46.3167 27.8749C46.4533 27.8749 46.6239 27.6046 46.6581 27.4357C47.3407 25.1381 49.3545 23.6177 51.6754 23.6177C54.3718 23.6514 56.5563 25.6787 56.7952 28.4155C57 30.8482 55.1569 33.2472 52.6994 33.754C50.0371 34.2946 47.4431 32.7741 46.6922 30.2063C46.5557 29.7332 46.385 29.5305 45.873 29.5981C45.361 29.6657 44.8149 29.5981 44.2688 29.5981C43.9958 33.2472 42.6988 36.457 40.3095 39.1263C41.0946 39.8696 41.8455 40.6129 42.6646 41.39C42.6646 41.39 42.8353 41.2887 42.9718 41.1873C45.9754 39.1938 49.1155 38.8897 52.3239 40.5791C55.4982 42.2685 57.1024 45.0391 56.9658 48.6206C56.8293 52.8441 53.6892 56.2567 49.491 56.9324C49.3886 56.9324 49.2862 57 49.1838 57.0338C48.5012 57.0338 47.8185 57.0338 47.17 57.0338C47.0335 57 46.9311 56.9324 46.7946 56.9324C41.8796 56.1891 38.5347 51.4588 39.4904 46.6271C39.7634 45.1743 40.4119 43.8903 41.2994 42.7753C40.5143 41.9982 39.7293 41.2549 38.9443 40.5116C38.8419 40.6129 38.6712 40.7481 38.5006 40.8494C36.282 42.6402 33.7563 43.789 30.9233 44.2282C30.4113 44.2958 29.6604 44.1944 29.4557 44.4985C29.1826 44.8364 29.3874 45.5121 29.3191 46.0527C29.285 46.492 29.4557 46.6947 29.8994 46.7961C32.0497 47.3705 33.5515 49.2626 33.6539 51.425C33.7904 53.9253 31.9814 56.2567 29.5239 56.6959C26.8958 57.1689 24.4042 55.7161 23.585 53.2495C22.8 50.8168 23.9946 48.1476 26.3155 47.0326C26.7592 46.8299 27.476 46.965 27.6125 46.3906C27.7491 45.8838 27.6125 45.3094 27.6467 44.7688C27.6467 44.4309 27.5101 44.3296 27.1688 44.3296C24.3359 44.1268 21.776 43.1808 19.4551 41.5928C18.909 41.2211 18.4311 40.8156 18.0215 40.5116C17.2365 41.2887 16.4856 42.032 15.7006 42.7753C15.7347 42.8091 15.803 42.9105 15.8712 42.9781C19.6598 48.08 17.0658 55.243 10.8197 56.7297C10.3419 56.8311 9.82991 56.8986 9.35207 57C9.01075 57 8.6353 57 8.25985 57ZM28.3976 42.7078C31.2646 42.7078 33.7904 41.9644 36.1113 40.5116C36.4527 40.3088 36.5892 40.0723 36.5209 39.7006C36.4868 39.329 36.4868 38.9573 36.3844 38.5856C36.0431 37.2003 34.9509 36.6935 33.7221 36.2881C33.5173 36.2205 33.2443 36.2543 33.0736 36.3557C31.9473 36.9976 30.7868 37.6396 29.6946 38.3153C28.8754 38.8222 28.0904 38.7884 27.2712 38.3153C26.179 37.6396 25.0527 37.0314 23.9263 36.3894C23.7898 36.2881 23.5509 36.1867 23.4143 36.2205C21.6054 36.7611 20.4449 37.5044 20.4449 39.5655C20.4449 40.0047 20.5473 40.275 20.9227 40.5116C23.2778 41.9644 25.8036 42.674 28.3976 42.7078ZM34.0293 27.3005C34.1658 26.7599 33.961 26.422 33.3125 26.1855C32.8347 26.0166 32.4251 25.6449 32.0497 25.2733C31.6742 24.8678 31.2988 24.7664 30.7527 24.9354C29.2509 25.5098 27.7491 25.5098 26.2473 24.9354C26.1449 24.9016 26.0766 24.9016 25.9742 24.8678C25.6329 24.7327 25.394 24.9016 25.1209 25.1043C24.5066 25.5436 23.8581 25.949 23.2437 26.3545C23.1413 26.422 23.0048 26.5572 23.0048 26.6586C23.0048 27.1992 22.9365 27.7398 23.073 28.2466C23.6533 30.4766 25.0868 32.0308 27.2371 32.8755C27.7832 33.112 28.5 33.1796 29.0802 33.0782C31.6742 32.6728 34.2 29.6657 34.0293 27.3005ZM12.2874 49.4315C13.3455 50.2086 14.0622 51.1885 14.5401 52.4049C16.588 49.837 16.6221 45.4446 13.3796 42.7415C10.376 40.2412 5.8365 40.6805 3.31075 43.6876C0.716737 46.7623 1.63829 50.8844 3.14009 52.3373C3.54967 51.1209 4.3347 50.1749 5.32452 49.3977C3.85686 46.965 4.84668 44.7688 6.21195 43.6876C7.74787 42.4712 10.0006 42.505 11.5024 43.7552C12.9018 44.9377 13.7209 47.134 12.2874 49.4315ZM53.8599 52.4049C55.4982 50.7155 56.2832 46.4582 53.382 43.3835C50.6856 40.5453 46.1802 40.4102 43.3131 43.0456C40.2754 45.85 40.5485 50.1411 42.494 52.4049C42.9377 51.1547 43.6886 50.1749 44.7125 49.4315C43.3473 47.2691 44.064 45.0391 45.4293 43.8903C46.9311 42.6064 49.1155 42.505 50.7197 43.7214C52.4946 45.0391 52.8359 46.9988 51.6754 49.4991C52.6994 50.2086 53.4161 51.1885 53.8599 52.4049ZM51.1634 9.96739C52.1874 10.7107 52.9383 11.6906 53.382 12.9407C55.703 10.1025 55.1569 5.67634 52.2215 3.27741C49.1838 0.77711 44.6784 1.21635 42.1527 4.25725C39.5587 7.33194 40.4802 11.4203 41.982 12.9069C42.4257 11.6906 43.1766 10.7445 44.1664 9.96739C43.006 7.66982 43.3131 5.64255 45.0197 4.29104C46.5215 3.07468 48.6718 3.07468 50.2419 4.22346C52.0167 5.57498 52.3239 7.50088 51.1634 9.96739ZM5.8365 9.96739C4.71015 7.60224 4.9832 5.71013 6.62153 4.32483C8.05506 3.14226 10.1712 3.04089 11.673 4.08831C12.4581 4.62892 13.0042 5.37225 13.3113 6.28452C13.7209 7.60224 13.482 8.78482 12.7652 9.96739C13.8233 10.7445 14.5742 11.7244 14.9838 12.9407C16.9634 10.508 17.1682 6.14937 13.9257 3.37877C10.9904 0.844685 6.5874 1.14878 3.92512 4.08831C1.26284 7.02785 1.94548 11.15 3.5838 12.9069C4.06165 11.7244 4.81254 10.7445 5.8365 9.96739ZM8.84009 28.7534C8.84009 26.8613 7.30416 25.307 5.39278 25.2733C3.48141 25.2733 1.87722 26.8275 1.87722 28.7196C1.87722 30.6117 3.44728 32.166 5.35865 32.166C7.2359 32.166 8.80596 30.6455 8.84009 28.7534ZM48.194 28.7196C48.194 30.6117 49.764 32.166 51.6413 32.166C53.5527 32.166 55.1227 30.6455 55.1227 28.7534C55.1569 26.8613 53.5527 25.2733 51.6072 25.2733C49.764 25.307 48.194 26.8275 48.194 28.7196ZM28.5341 9.25784C30.4455 9.25784 32.0155 7.70361 32.0155 5.81149C31.9814 3.91937 30.4113 2.36514 28.5341 2.36514C26.6227 2.36514 25.0185 3.91937 25.0527 5.84528C25.0527 7.70361 26.6227 9.25784 28.5341 9.25784ZM25.0185 51.6277C25.0185 53.5198 26.5545 55.0741 28.4658 55.1079C30.3772 55.1079 31.9814 53.5536 31.9814 51.6615C31.9814 49.7694 30.4113 48.2152 28.5 48.2152C26.6227 48.2152 25.0527 49.7694 25.0185 51.6277ZM48.1599 55.3444C49.5934 55.3106 50.9245 54.9389 52.1191 54.1618C52.2898 54.0605 52.4263 53.7901 52.4263 53.6212C52.2215 52.4724 51.6413 51.5264 50.6856 50.8844C50.5149 50.783 50.2078 50.783 50.0371 50.8506C48.8084 51.3912 47.5796 51.3912 46.3509 50.8506C46.1802 50.783 45.873 50.783 45.7024 50.8844C44.7467 51.5264 44.1664 52.4386 43.9616 53.5536C43.9275 53.7226 44.0982 54.0605 44.2688 54.1618C45.4293 54.9389 46.7263 55.3106 48.1599 55.3444ZM9.35207 15.8127C10.7515 15.8127 12.0485 15.4072 13.2431 14.6977C13.5844 14.495 13.6527 14.2922 13.5844 13.9206C13.3113 12.8394 12.7652 11.9271 11.8095 11.3189C11.673 11.2175 11.4 11.2175 11.2293 11.2851C9.96644 11.8257 8.73769 11.8257 7.47482 11.2851C7.30416 11.2175 7.03111 11.2175 6.89458 11.3189C5.93889 11.9609 5.39278 12.8394 5.15386 13.9206C5.0856 14.2584 5.15386 14.4612 5.46105 14.6639C6.62153 15.441 7.91853 15.8465 9.35207 15.8127ZM47.6479 15.8127C49.0814 15.8465 50.4125 15.4072 51.6413 14.6639C51.8802 14.495 51.9826 14.326 51.9143 14.0219C51.6754 12.8731 51.0952 11.9609 50.1054 11.3189C49.9688 11.2175 49.7299 11.2175 49.5592 11.2851C48.2964 11.8595 47.0335 11.8595 45.7706 11.2851C45.6341 11.2175 45.361 11.2175 45.2245 11.3189C44.2688 11.9609 43.6545 12.8731 43.4155 14.0219C43.3473 14.326 43.4497 14.495 43.6886 14.6639C44.9515 15.4072 46.2485 15.8465 47.6479 15.8127ZM8.84009 55.3106C10.2395 55.2768 11.5365 54.9051 12.7652 54.1618C13.0724 53.9591 13.1407 53.7564 13.0724 53.4185C12.7994 52.3711 12.2874 51.5264 11.4 50.8506C11.161 50.6479 10.9563 50.6141 10.6491 50.783C9.45446 51.3574 8.22572 51.3574 7.03111 50.783C6.72392 50.6479 6.51913 50.6817 6.28021 50.8506C5.42692 51.5264 4.88081 52.3711 4.64189 53.4185C4.57362 53.7564 4.64189 53.9591 4.94907 54.128C6.10955 54.9051 7.40656 55.2768 8.84009 55.3106ZM47.6479 10.035C49.0473 10.035 50.2078 8.95376 50.2078 7.56846C50.2078 6.18316 49.0473 5.03437 47.682 5.03437C46.3167 5.03437 45.1563 6.14937 45.1563 7.50088C45.1221 8.88618 46.2485 10.035 47.6479 10.035ZM50.6856 47.0664C50.6856 45.6811 49.5934 44.5323 48.194 44.5323C46.7946 44.5323 45.6341 45.6473 45.6341 47.0326C45.6341 48.3841 46.7604 49.5329 48.1257 49.5329C49.5593 49.5667 50.6856 48.4517 50.6856 47.0664ZM9.31793 10.035C10.7173 10.035 11.8778 8.95376 11.8778 7.56846C11.8778 6.18316 10.7515 5.03437 9.35207 5.03437C7.9868 5.03437 6.82632 6.14937 6.82632 7.50088C6.79219 8.88618 7.8844 10.035 9.31793 10.035ZM8.87422 44.4985C7.44069 44.4985 6.34847 45.5797 6.31434 46.965C6.31434 48.3503 7.44069 49.4991 8.84009 49.4991C10.2054 49.4991 11.3317 48.3841 11.3658 47.0326C11.4 45.6811 10.2736 44.5323 8.87422 44.4985ZM30.5137 34.4973C29.1485 35.0717 27.8173 35.0041 26.5203 34.4973C26.2473 34.869 26.0084 35.1731 25.7694 35.4772C26.6227 35.984 27.4419 36.457 28.2952 36.93C28.4317 36.9976 28.6706 36.9976 28.8072 36.93C29.6604 36.457 30.4796 35.9502 31.3329 35.4772C31.0257 35.1731 30.7868 34.869 30.5137 34.4973Z" fill="#FABF3B"/>
</g>
<defs>
<clipPath id="clip0_21_3073">
<rect width="57" height="57" fill="white"/>
</clipPath>
</defs>
</svg>
