<svg width="67" height="67" viewBox="0 0 67 67" fill="none" xmlns="http://www.w3.org/2000/svg">
<g clip-path="url(#clip0_21_3025)">
<path d="M37.6346 51.9379C36.366 51.9379 35.1914 51.9379 33.9228 51.9379C33.9228 53.0711 33.9698 54.2043 33.8758 55.3375C33.8758 55.668 33.5939 56.0929 33.312 56.2818C33.0771 56.4234 32.6072 56.329 32.3723 56.1401C32.1374 55.9513 32.0434 55.5736 32.0434 55.243C31.9964 54.1571 32.0434 53.0711 32.0434 51.9851C30.7748 51.9851 29.5532 51.9851 28.2847 51.9851C28.2847 53.0239 28.2847 53.9682 28.2847 54.9125C28.2847 56.3762 28.2847 57.7927 28.2847 59.2564C28.2847 59.6342 28.3316 59.823 28.7545 60.0119C30.399 60.7201 31.2917 62.4199 30.9158 64.0725C30.5399 65.7723 29.0834 66.9527 27.392 66.9999C25.7475 66.9999 24.197 65.8195 23.8211 64.2141C23.3983 62.4671 24.244 60.7673 25.9354 59.9647C26.1234 59.8702 26.3583 59.5869 26.3583 59.3981C26.4053 56.99 26.3583 54.582 26.3583 52.2212C26.3583 52.1268 26.3113 52.0323 26.3113 51.9379C24.9957 51.9379 23.6802 51.9379 22.2706 51.9379C22.2706 52.8822 22.2706 53.7793 22.2706 54.6764C22.2706 54.9597 22.2706 55.243 22.2706 55.4791C22.2237 56.0457 21.8948 56.4234 21.284 56.4234C20.7201 56.4234 20.3913 56.0457 20.3913 55.4319C20.3913 54.5348 20.3913 53.6377 20.3913 52.7406C20.3913 52.5045 20.3913 52.2684 20.3913 51.9379C19.2166 51.9379 18.136 51.9379 17.1023 51.9379C15.3639 51.9379 14.8001 51.3713 14.8001 49.6243C14.8001 48.7744 14.8001 47.9245 14.8001 46.933C14.0953 46.933 13.3906 46.933 12.6858 46.933C12.4039 46.933 12.075 46.933 11.7931 46.933C11.2293 46.8857 10.9004 46.5552 10.9004 45.9886C10.9004 45.422 11.2293 45.0443 11.8401 45.0443C12.6388 45.0443 13.4375 45.0443 14.1893 45.0443C14.3302 45.0443 14.5182 45.0443 14.7061 44.9971C14.7061 43.6278 14.7061 42.3058 14.7061 40.8893C13.5315 40.8893 12.3569 40.8893 11.1823 40.8893C10.0546 40.8893 8.92702 40.8893 7.79939 40.8893C7.32954 40.8893 7.09462 40.9837 6.90668 41.4559C6.15493 43.1557 4.27554 43.9583 2.53712 43.3917C0.845671 42.8251 -0.234974 41.0781 0.0469336 39.3783C0.375826 37.4897 1.9733 36.1676 3.85268 36.3093C5.30921 36.4037 6.34287 37.2064 7.00065 38.5284C7.09462 38.7173 7.32954 38.9534 7.51748 38.9534C9.86671 39.0006 12.2159 38.9534 14.5182 38.9534C14.5652 38.9534 14.6122 38.9062 14.6591 38.9062C14.6591 37.7258 14.6591 36.4981 14.6591 35.2233C13.7664 35.2233 12.8737 35.2233 12.028 35.2233C11.2762 35.2233 10.8534 34.8928 10.8534 34.3262C10.8534 33.7124 11.2762 33.3346 12.028 33.3346C12.8737 33.3346 13.7194 33.3346 14.6591 33.3346C14.6591 32.107 14.6591 30.8794 14.6591 29.6046C14.4242 29.6046 14.1893 29.6046 13.9544 29.6046C11.6991 29.6046 9.44385 29.6046 7.18859 29.6046C5.68508 29.6046 5.07428 28.9907 5.07428 27.4798C5.07428 27.2437 5.07428 27.0077 5.07428 26.8188C5.16825 25.78 5.07428 24.9774 3.89967 24.4108C2.44315 23.6553 2.02029 21.7666 2.5841 20.2085C3.14792 18.6976 4.65142 17.7533 6.29588 17.8477C7.84637 17.9893 9.25591 19.217 9.53782 20.7751C9.81972 22.4277 9.06797 24.033 7.56446 24.6941C7.00065 24.9301 6.90668 25.2134 6.90668 25.7328C6.95366 26.3466 6.90668 26.9604 6.90668 27.6215C9.49083 27.6215 12.028 27.6215 14.6122 27.6215C14.6122 26.2994 14.6122 24.9301 14.6122 23.5136C13.7664 23.5136 12.8737 23.5136 12.028 23.5136C11.2293 23.5136 10.8064 23.1359 10.8064 22.5693C10.8064 21.9555 11.2293 21.625 12.028 21.625C12.8737 21.625 13.7194 21.625 14.6591 21.625C14.6591 20.3974 14.6591 19.2642 14.6591 18.0838C14.6591 17.8005 14.6591 17.5172 14.6591 17.1867C14.7061 16.1951 15.4109 15.5341 16.3976 15.4869C17.6192 15.4869 18.8877 15.4869 20.2503 15.4869C20.2503 14.8258 20.2503 14.1648 20.2503 13.5038C20.2503 12.9844 20.2503 12.465 20.2503 11.9456C20.2503 11.379 20.5322 11.0013 21.143 10.9541C21.7068 10.9069 22.1297 11.2846 22.1297 11.9456C22.1767 12.9844 22.1297 13.9759 22.1297 15.0147C22.1297 15.1564 22.1767 15.298 22.1767 15.4397C23.4922 15.4397 24.8078 15.4397 26.1704 15.4397C26.1704 15.2508 26.2173 15.0619 26.2173 14.9203C26.2173 12.5595 26.2173 10.1514 26.2173 7.7906C26.2173 7.41287 26.1234 7.224 25.7475 7.03514C24.103 6.27968 23.2573 4.62711 23.6332 2.8801C24.0091 1.27474 25.5126 0.0471191 27.157 0.0471191C28.8955 0.0471191 30.352 1.27474 30.7279 3.02175C31.0567 4.67432 30.164 6.32689 28.6136 7.08236C28.4256 7.17679 28.1437 7.36565 28.1437 7.55452C28.0967 10.1986 28.1437 12.7955 28.1437 15.4869C29.4123 15.4869 30.5869 15.4869 31.9025 15.4869C31.9025 14.3537 31.9025 13.2205 31.9025 12.1345C31.9025 11.4735 32.2314 11.0957 32.7952 11.0485C33.406 11.0013 33.7819 11.4263 33.8288 12.1345C33.8288 13.2205 33.8288 14.3537 33.8288 15.4869C35.0504 15.4869 36.272 15.4869 37.5406 15.4869C37.5406 15.2036 37.5406 14.9203 37.5406 14.6842C37.5406 12.2762 37.5406 9.8209 37.5406 7.41287C37.5406 5.7603 38.1044 5.1937 39.7489 5.1937C39.9368 5.1937 40.1718 5.1937 40.3597 5.1937C41.3934 5.28813 42.1451 5.1937 42.7559 4.01329C43.5077 2.54959 45.387 2.12464 46.8905 2.69123C48.441 3.25783 49.3807 4.76875 49.2398 6.51576C49.0988 8.02668 47.8772 9.39596 46.4207 9.67925C44.7762 10.0098 43.1318 9.25431 42.427 7.74338C42.1921 7.17679 41.8632 7.03514 41.2994 7.08236C40.7356 7.12957 40.1248 7.08236 39.514 7.08236C39.514 9.91534 39.514 12.6539 39.514 15.4869C40.8765 15.4869 42.1921 15.4869 43.6016 15.4869C43.6016 14.5425 43.6016 13.5982 43.6016 12.6539C43.6016 12.4178 43.6016 12.1345 43.6016 11.8984C43.6486 11.3318 44.0715 11.0013 44.6353 11.0485C45.1991 11.0957 45.481 11.4263 45.481 11.9929C45.481 12.89 45.481 13.7871 45.481 14.6842C45.481 14.9203 45.481 15.1564 45.481 15.5341C46.3737 15.5341 47.1725 15.5341 48.0182 15.5341C48.3941 15.5341 48.7229 15.5341 49.0988 15.5341C50.3204 15.5341 50.9782 16.1951 50.9782 17.4227C50.9782 18.792 50.9782 20.1613 50.9782 21.625C52.1998 21.625 53.3744 21.625 54.596 21.625C55.6297 21.625 56.0995 21.9083 56.0995 22.5693C56.0995 23.2303 55.6297 23.5136 54.596 23.5136C53.4214 23.5136 52.2468 23.5136 51.0252 23.5136C51.0252 24.8829 51.0252 26.2522 51.0252 27.6215C53.7973 27.6215 56.5224 27.6215 59.3415 27.6215C59.3415 26.8188 59.3884 26.0161 59.2945 25.2607C59.2945 25.0718 58.9656 24.8829 58.7776 24.7885C57.3681 24.1275 56.5224 22.6638 56.6633 21.1528C56.8043 19.6419 57.838 18.3671 59.2945 17.9421C61.1269 17.4227 63.0063 18.4143 63.664 20.1613C64.3218 21.9555 63.5231 23.9386 61.7847 24.6941C61.3148 24.9301 61.1739 25.1662 61.1739 25.6384C61.2208 26.3466 61.1739 27.0549 61.1739 27.7631C61.1739 28.7547 60.61 29.3685 59.6704 29.5101C59.3884 29.5573 59.1535 29.5573 58.8716 29.5573C56.4754 29.5573 54.0792 29.5573 51.73 29.5573C51.495 29.5573 51.2601 29.5573 50.9782 29.5573C50.9782 30.8322 50.9782 32.0126 50.9782 33.2874C52.1058 33.2874 53.2335 33.2874 54.3611 33.2874C54.596 33.2874 54.8779 33.2874 55.1129 33.2874C55.6767 33.3346 56.0056 33.6652 56.0525 34.2318C56.0525 34.7511 55.6767 35.1289 55.1129 35.1289C54.0322 35.1289 52.9046 35.1289 51.8239 35.1289C51.589 35.1289 51.3541 35.1289 51.0722 35.1289C51.0722 36.4037 51.0722 37.5841 51.0722 38.9062C51.589 38.9062 52.1058 38.9062 52.6227 38.9062C54.8309 38.9062 57.0862 38.9062 59.2945 38.9062C59.6703 38.9062 59.8583 38.8117 59.9992 38.4812C60.751 36.7342 62.4894 35.8843 64.2279 36.3565C65.9193 36.7814 67.0469 38.3396 66.953 40.0866C66.859 41.8808 65.4964 43.2501 63.664 43.4862C62.1605 43.675 60.657 42.7779 59.9523 41.267C59.8583 41.0781 59.5764 40.842 59.3415 40.842C56.6633 40.7948 53.9852 40.842 51.3071 40.842C51.2131 40.842 51.1192 40.842 51.0252 40.8893C51.0252 42.2113 51.0252 43.5806 51.0252 44.9971C51.683 44.9971 52.2938 44.9971 52.9516 44.9971C53.6093 44.9971 54.2671 44.9971 54.9249 44.9971C55.6767 44.9971 56.0995 45.3748 56.0995 45.9414C56.0995 46.5552 55.6767 46.933 54.8779 46.933C53.6093 46.933 52.3408 46.933 50.9782 46.933C50.9782 47.8773 50.9782 48.7744 50.9782 49.6715C50.9782 51.3713 50.3674 51.9379 48.7229 51.9851C47.6893 51.9851 46.6086 51.9851 45.481 51.9851C45.481 53.1183 45.481 54.2043 45.481 55.243C45.481 56.0457 45.1521 56.4707 44.5413 56.4707C43.9305 56.4707 43.5546 55.9985 43.5546 55.1958C43.5546 54.1571 43.5546 53.1183 43.5546 52.0323C42.1921 52.0323 40.8295 52.0323 39.467 52.0323C39.467 54.582 39.467 57.1317 39.467 59.7758C40.2657 59.7758 41.0645 59.823 41.8162 59.7286C42.0042 59.7286 42.1921 59.3981 42.2861 59.2092C42.9438 57.8399 44.3534 56.99 45.7629 57.0845C47.3134 57.1789 48.582 58.1704 49.0518 59.5869C49.6626 61.4284 48.7229 63.4115 46.9375 64.1197C45.1521 64.828 43.1318 64.0725 42.333 62.2783C42.0981 61.7589 41.8162 61.6645 41.3464 61.6645C40.6886 61.7117 39.9838 61.6645 39.326 61.6645C38.2924 61.6645 37.6346 61.0506 37.5406 60.0119C37.4936 59.1148 37.4936 58.2177 37.4936 57.3206C37.6346 55.5263 37.6346 53.7793 37.6346 51.9379ZM16.6795 17.3755C16.6795 28.2825 16.6795 39.095 16.6795 49.9548C27.4859 49.9548 38.2924 49.9548 49.0988 49.9548C49.0988 39.095 49.0988 28.2353 49.0988 17.3755C38.2924 17.3755 27.4859 17.3755 16.6795 17.3755ZM60.3751 23.1359C61.3148 23.1359 62.1135 22.3805 62.1135 21.4361C62.1135 20.4918 61.3618 19.6891 60.4221 19.6891C59.4824 19.6419 58.6367 20.4446 58.6367 21.4361C58.6367 22.3332 59.4354 23.1359 60.3751 23.1359ZM63.3351 38.1507C62.3955 38.1507 61.6437 38.9534 61.5967 39.8977C61.5967 40.842 62.3955 41.6447 63.2882 41.6447C64.2279 41.6447 65.0736 40.842 65.0266 39.8977C65.0736 38.9062 64.2748 38.1507 63.3351 38.1507ZM29.0364 3.63556C29.0364 2.69123 28.2377 1.93577 27.298 1.93577C26.3583 1.93577 25.6065 2.73845 25.6065 3.68278C25.6065 4.67432 26.4053 5.477 27.345 5.42978C28.2847 5.38257 29.0364 4.57989 29.0364 3.63556ZM1.92632 39.8505C1.87933 40.7948 2.67807 41.5975 3.61776 41.6447C4.55745 41.6919 5.40317 40.8893 5.40317 39.8977C5.40317 38.9534 4.60444 38.1507 3.71173 38.1507C2.72505 38.1035 1.92632 38.9062 1.92632 39.8505ZM25.6065 63.3642C25.6065 64.3086 26.3583 65.1112 27.298 65.1112C28.2377 65.1112 29.0364 64.3558 29.0364 63.4115C29.0834 62.4671 28.2847 61.6172 27.298 61.6172C26.4053 61.6172 25.6065 62.4199 25.6065 63.3642ZM47.4074 60.6257C47.4074 59.6814 46.6086 58.9259 45.6689 58.9259C44.7293 58.9259 43.9775 59.7286 43.9775 60.6729C43.9775 61.6645 44.7762 62.4671 45.7159 62.4199C46.7026 62.3727 47.4074 61.6172 47.4074 60.6257ZM5.96699 19.6419C5.0273 19.6419 4.27555 20.4446 4.27555 21.3889C4.27555 22.3332 5.0273 23.0887 5.96699 23.0887C6.95366 23.0887 7.70542 22.286 7.65843 21.2945C7.70542 20.3974 6.95366 19.6419 5.96699 19.6419ZM45.7159 4.34381C44.7762 4.34381 43.9775 5.05205 43.9775 6.0436C43.9775 7.03514 44.7293 7.83782 45.6689 7.7906C46.6086 7.7906 47.3604 7.03514 47.3604 6.09081C47.4074 5.09927 46.6556 4.34381 45.7159 4.34381Z" fill="#FABF3B"/>
<path d="M37.9165 28.613C39.5609 28.613 41.1584 28.613 42.7089 28.613C43.8835 28.613 44.1184 28.8963 44.1184 30.0295C44.1184 32.4848 44.1184 34.8928 44.1184 37.3481C44.1184 38.434 43.8365 38.7173 42.7559 38.7173C41.3933 38.7173 40.0777 38.7173 38.7152 38.7173C38.4803 38.7173 38.2453 38.7173 37.9165 38.7173C37.9165 40.2283 37.9165 41.6447 37.9165 43.0612C37.9165 43.2973 37.9165 43.5806 37.9165 43.8167C37.9165 44.6194 37.5876 44.9971 36.7888 44.9971C34.2047 44.9971 31.6205 44.9971 29.0364 44.9971C28.1906 44.9971 27.8618 44.6666 27.8618 43.7695C27.8618 42.1169 27.8618 40.4643 27.8618 38.7173C27.5798 38.7173 27.3449 38.7173 27.11 38.7173C25.6535 38.7173 24.2439 38.7173 22.7874 38.7173C21.9887 38.7173 21.6598 38.3868 21.6598 37.5369C21.6598 34.94 21.6598 32.3903 21.6598 29.7934C21.6598 28.9435 21.9887 28.613 22.8344 28.613C24.4789 28.613 26.1233 28.613 27.8618 28.613C27.8618 28.3297 27.9087 28.0936 27.9087 27.8576C27.9087 26.4411 27.9087 25.0246 27.9087 23.5609C27.9087 22.6638 28.2376 22.3333 29.1303 22.3333C31.7145 22.3333 34.2517 22.3333 36.8358 22.3333C37.6815 22.3333 38.0104 22.6638 38.0104 23.5137C37.9165 25.2134 37.9165 26.866 37.9165 28.613ZM23.5392 36.8287C23.8211 36.8287 24.056 36.8287 24.2909 36.8287C25.6535 36.8287 26.969 36.8287 28.3316 36.8287C29.4122 36.8287 29.6942 37.112 29.6942 38.1979C29.6942 39.52 29.6942 40.8421 29.6942 42.2113C29.6942 42.4946 29.6942 42.7779 29.6942 43.0612C31.8554 43.0612 33.8758 43.0612 35.9901 43.0612C35.9901 42.7779 35.9901 42.5419 35.9901 42.3058C35.9901 40.8893 35.9901 39.52 35.9901 38.1035C35.9901 37.2064 36.272 36.8759 37.2117 36.8759C38.4333 36.8759 39.6549 36.8759 40.8765 36.8759C41.2993 36.8759 41.7692 36.8759 42.192 36.8759C42.192 34.7039 42.192 32.6736 42.192 30.5961C40.5006 30.5961 38.8092 30.5961 37.1647 30.5961C36.366 30.5961 36.0371 30.2656 36.0371 29.4629C36.0371 27.9992 36.0371 26.5827 36.0371 25.119C36.0371 24.8829 36.0371 24.6469 36.0371 24.4108C33.8758 24.4108 31.8554 24.4108 29.7881 24.4108C29.7881 24.6469 29.7411 24.8829 29.7411 25.119C29.7411 26.5355 29.7411 27.952 29.7411 29.3685C29.7411 30.3128 29.4122 30.5961 28.4726 30.5961C27.9087 30.5961 27.2979 30.5961 26.7341 30.5961C25.7005 30.5961 24.6198 30.5961 23.5862 30.5961C23.5392 32.6264 23.5392 34.7039 23.5392 36.8287Z" fill="#FABF3B"/>
</g>
<defs>
<clipPath id="clip0_21_3025">
<rect width="67" height="67" fill="white"/>
</clipPath>
</defs>
</svg>
