<svg width="65" height="64" viewBox="0 0 65 64" fill="none" xmlns="http://www.w3.org/2000/svg">
<g clip-path="url(#clip0_21_3016)">
<path d="M20.2015 44.2159C19.6871 41.3173 18.6583 38.7407 17.0684 36.3942C16.2734 35.1519 15.4317 33.9557 14.5432 32.7594C9.11872 25.6278 9.96045 14.2634 16.1799 7.45387C16.3202 7.26983 16.4604 7.1318 16.6475 6.90175C16.4137 6.90175 16.2266 6.85574 16.0863 6.85574C12.8597 6.85574 9.63311 6.85574 6.45326 6.85574C5.37772 6.85574 5.09714 7.1318 5.09714 8.19003C5.09714 9.24826 5.09714 10.3065 5.09714 11.3647C5.09714 11.8248 5.19066 12.1009 5.70505 12.2849C7.43527 13.0211 8.32376 14.6314 8.13671 16.4718C7.94966 18.1282 6.59354 19.5085 4.86333 19.8766C2.85254 20.2907 0.841744 19.0944 0.23383 17.162C-0.374084 15.2296 0.561168 13.0671 2.47843 12.3309C3.03959 12.1009 3.13311 11.8248 3.13311 11.3187C3.08635 10.2145 3.13311 9.15624 3.13311 8.052C3.13311 5.98155 4.30218 4.78529 6.45326 4.78529C10.4748 4.78529 14.4497 4.78529 18.4712 4.78529C18.8453 4.78529 19.2194 4.69327 19.5 4.46322C29.8813 -3.35849 43.536 -0.505871 50.5036 10.1225C51.0648 10.9506 51.5324 11.8708 51.9533 12.791C52.1403 13.1131 52.2806 13.2511 52.6547 13.2511C54.6655 13.2511 56.6763 13.2511 58.6403 13.2511C59.5756 13.2511 59.8561 12.9291 59.8561 12.0549C59.8561 10.9046 59.8094 9.80038 59.8561 8.65013C59.8561 8.09801 59.6691 7.91397 59.2015 7.68392C57.4245 6.90175 56.4892 5.01534 56.9101 3.22094C57.331 1.38054 58.9677 0.0922604 60.8382 0.0922604C62.7554 0.0922604 64.4389 1.42655 64.8597 3.26695C65.2806 5.15337 64.2986 7.03978 62.4748 7.77594C62.0072 7.95998 61.8669 8.14402 61.8669 8.65013C61.9137 9.80038 61.9137 10.9506 61.8669 12.1009C61.8202 13.9873 60.6043 15.1836 58.6871 15.1836C56.9101 15.1836 55.0864 15.1836 53.3094 15.1836C53.2626 15.1836 53.2158 15.1836 53.1691 15.2296C53.3561 16.3338 53.6367 17.4381 53.777 18.5883C54.5252 23.6494 53.4964 28.2964 50.5971 32.5294C49.1475 34.6458 47.8382 36.8083 46.5756 39.0168C46.0144 39.983 45.6871 41.0872 45.2194 42.2375C46.5756 42.2375 47.7446 42.2375 48.9605 42.2375C49.7554 42.2375 50.1763 42.7436 50.036 43.4797C49.8957 44.0319 49.4748 44.2159 48.9137 44.2159C48.259 44.2159 47.5576 44.2159 46.9029 44.2159C46.2482 44.2159 45.5468 44.2159 44.7051 44.2159C44.5648 45.6422 44.3777 47.0685 44.2842 48.4948C44.1907 49.5531 44.0036 49.8291 42.9281 49.8291C35.9605 49.8291 29.0396 49.8291 22.072 49.8291C21.0432 49.8291 20.7626 49.5991 20.7158 48.5409C20.6691 47.8047 20.5756 47.0225 20.5288 46.2403C20.2482 46.2403 20.0144 46.2403 19.7338 46.2403C16.2734 46.2403 12.8597 46.2403 9.3993 46.2403C7.10793 46.2403 5.98563 45.0901 5.93887 42.8356C5.93887 42.0994 5.8921 41.3173 5.93887 40.5811C5.93887 40.121 5.79858 39.891 5.37772 39.7069C3.55397 38.9248 2.57196 37.0383 2.99282 35.1979C3.41369 33.3115 5.09714 32.0232 7.01441 32.0232C8.93167 32.0692 10.5684 33.4035 10.9425 35.336C11.2698 37.1304 10.2878 39.0168 8.55757 39.7069C8.04318 39.891 7.94966 40.167 7.94966 40.6271C7.99642 41.5013 7.94966 42.3755 7.94966 43.2037C7.94966 43.8478 8.277 44.1699 8.97844 44.2159C9.11872 44.2159 9.30577 44.2159 9.44606 44.2159C13.0468 44.2159 16.6007 44.2159 20.2015 44.2159ZM42.2266 47.8047C42.2734 47.3906 42.3202 47.0225 42.3202 46.7005C42.5072 44.0779 42.9748 41.5013 44.2374 39.1548C45.4065 36.9003 46.8094 34.6918 48.1655 32.5294C49.241 30.781 50.3633 29.0786 50.9712 27.1462C52.982 20.6588 51.7194 14.7695 47.4641 9.52432C40.2626 0.506351 27.6835 -0.50587 19.2194 7.1318C12.2986 13.3892 11.0828 24.0175 15.9461 31.149C16.7878 32.3453 17.6295 33.5416 18.4712 34.7838C20.2482 37.3144 21.6043 39.983 22.2122 43.0196C22.4928 44.584 22.6799 46.1483 22.9137 47.7587C24.6907 47.7587 26.5144 47.7587 28.3849 47.7587C28.3849 45.4122 28.3849 43.1117 28.3849 40.8112C28.3849 40.029 28.759 39.6149 29.4137 39.6149C30.0684 39.6149 30.3957 40.029 30.3957 40.8572C30.3957 42.9276 30.3957 44.9981 30.3957 47.1145C30.3957 47.3446 30.3957 47.5746 30.3957 47.8047C31.8921 47.8047 33.2482 47.8047 34.6979 47.8047C34.6979 46.1483 34.6979 44.538 34.6979 42.9276C34.6979 42.0994 35.072 41.6393 35.7266 41.6854C36.3813 41.6854 36.7087 42.1455 36.7087 42.9736C36.7087 44.3999 36.7087 45.8263 36.7087 47.2066C36.7087 47.4366 36.7087 47.6207 36.7087 47.8507C38.4856 47.8507 40.1223 47.8507 41.8058 47.8507C41.8993 47.8047 42.0396 47.8047 42.2266 47.8047ZM6.07915 15.9197C6.07915 14.8155 5.19067 13.9413 4.06836 13.9413C2.94606 13.9413 2.05757 14.8155 2.01081 15.8737C2.01081 16.978 2.94606 17.8982 4.06836 17.8982C5.19067 17.8982 6.07915 17.024 6.07915 15.9197ZM60.9317 6.02756C62.054 6.02756 62.9425 5.15337 62.9892 4.04913C62.9892 2.94488 62.0072 2.02468 60.9317 2.02468C59.8094 2.02468 58.9209 2.94488 58.9676 4.04913C58.9209 5.15337 59.8094 6.02756 60.9317 6.02756ZM7.01441 38.0045C8.13671 38.0045 9.0252 37.1304 9.0252 36.0261C9.0252 34.9679 8.08995 34.0477 7.01441 34.0477C5.8921 34.0477 4.95685 34.9679 4.95685 36.0721C5.00361 37.1304 5.8921 38.0045 7.01441 38.0045Z" fill="#FABF3B"/>
<path d="M39.1403 58.4328C39.0468 58.7549 38.9533 59.0769 38.8598 59.353C37.9713 62.1596 35.3526 64.046 32.3598 64C29.4137 63.954 26.7482 61.9756 26.0468 59.1229C25.9065 58.6168 25.6727 58.4788 25.2051 58.4788C23.4749 58.5248 21.6979 58.4788 19.9677 58.4788C19.1259 58.4788 18.7986 58.2027 18.7518 57.5586C18.7051 56.9605 19.0324 56.5924 19.6403 56.5004C19.8274 56.4543 20.0612 56.4543 20.2482 56.4543C28.4785 56.4543 36.7087 56.4543 44.9389 56.4543C45.1259 56.4543 45.3598 56.4543 45.5468 56.5004C46.0144 56.5464 46.3418 56.7764 46.3885 57.2825C46.4353 57.8346 46.2015 58.2027 45.6403 58.2947C45.4065 58.3408 45.1727 58.3408 44.8921 58.3408C42.9281 58.4328 41.0576 58.4328 39.1403 58.4328ZM36.9893 58.4788C33.9965 58.4788 31.0504 58.4788 28.1044 58.4788C28.4785 60.5492 30.349 62.0216 32.5468 62.0216C34.6979 61.9756 36.6619 60.4572 36.9893 58.4788Z" fill="#FABF3B"/>
<path d="M57.4712 49.461C57.4712 48.0347 57.4712 46.5624 57.4712 45.1361C57.4712 44.5379 57.0971 44.2158 56.4892 44.2158C55.6943 44.2158 54.8525 44.2158 54.0576 44.2158C53.2158 44.2158 52.8417 43.8938 52.8417 43.2036C52.8417 42.5135 53.2158 42.2374 54.0576 42.1914C54.8993 42.1914 55.7878 42.1914 56.6295 42.1914C58.2662 42.2374 59.482 43.4337 59.5288 44.998C59.5756 46.2863 59.5756 47.5746 59.5288 48.8629C59.5288 49.277 59.6223 49.461 60.0432 49.645C61.8669 50.3352 62.8957 52.1756 62.5216 54.016C62.1475 55.9484 60.6043 57.2827 58.7338 57.3747C56.7698 57.4207 55.0863 56.2245 54.6187 54.3381C54.1511 52.4977 55.0863 50.4732 56.8633 49.691C57.0504 49.645 57.2374 49.553 57.4712 49.461ZM58.5468 55.3043C59.6691 55.3043 60.5576 54.3841 60.5576 53.3258C60.5576 52.2676 59.6223 51.3474 58.5468 51.3474C57.4245 51.3474 56.4892 52.2676 56.536 53.3719C56.4892 54.4301 57.4245 55.3043 58.5468 55.3043Z" fill="#FABF3B"/>
<path d="M32.5 54.1078C28.9928 54.1078 25.4856 54.1078 21.9784 54.1078C21.0899 54.1078 20.7158 53.7858 20.7626 53.0956C20.7626 52.5895 21.0432 52.2674 21.5576 52.1754C21.7914 52.1294 22.072 52.1294 22.3058 52.1294C29.1331 52.1294 35.9605 52.1294 42.7878 52.1294C43.0684 52.1294 43.3957 52.1294 43.6295 52.2214C44.1439 52.3594 44.2842 52.7735 44.2842 53.2336C44.2374 53.6937 44.0036 54.0158 43.4892 54.0618C43.2554 54.1078 42.9748 54.1078 42.741 54.1078C39.3274 54.1078 35.9137 54.1078 32.5 54.1078Z" fill="#FABF3B"/>
<path d="M18.0036 26.2259C18.1907 25.9958 18.3777 25.6277 18.6583 25.3977C19.2662 24.8916 19.9209 24.4315 20.5288 24.0174C20.8094 23.8334 20.8561 23.6033 20.8561 23.2352C20.8094 21.8549 20.7626 20.4746 20.8561 19.0943C20.9029 18.6342 20.8094 18.3582 20.4353 18.1281C19.8273 17.714 19.2194 17.2539 18.6583 16.8398C18.0036 16.3337 17.9101 15.9656 18.3309 15.2295C18.9389 14.1712 19.5468 13.113 20.1547 12.0548C20.6223 11.2266 21.0899 11.0886 21.9784 11.4566C22.6331 11.7327 23.241 12.0088 23.8957 12.2848C24.2698 12.4689 24.5036 12.4229 24.8309 12.1468C25.9065 11.2266 27.1223 10.4904 28.4784 10.0763C28.8525 9.93831 28.9928 9.75427 29.0396 9.38619C29.0863 8.65003 29.2266 7.91387 29.3201 7.1317C29.4604 6.25751 29.7878 5.98145 30.6763 5.98145C31.8921 5.98145 33.1547 5.98145 34.3705 5.98145C35.1655 5.98145 35.446 6.25751 35.5396 7.03968C35.6331 7.82185 35.7734 8.55801 35.8201 9.34018C35.8669 9.70826 35.9604 9.93831 36.3813 10.0763C37.7842 10.4904 39 11.2266 40.0755 12.1928C40.4029 12.4689 40.6367 12.4689 41.0108 12.2848C41.7122 11.9628 42.4604 11.6407 43.1619 11.3646C43.9101 11.0886 44.4245 11.2266 44.8453 11.8707C45.5 12.975 46.1547 14.0792 46.7626 15.2295C47.1367 15.8736 46.9964 16.3337 46.4353 16.7938C45.8273 17.2539 45.1727 17.714 44.5648 18.2201C44.3777 18.4042 44.2374 18.7262 44.2374 18.9563C44.4712 20.3826 44.4712 21.8089 44.2374 23.2352C44.1907 23.4653 44.3309 23.7873 44.518 23.9254C45.1259 24.4315 45.8273 24.8916 46.4353 25.3517C47.0899 25.8578 47.1367 26.2259 46.7626 26.962C46.1547 28.0203 45.5468 29.1245 44.8921 30.1827C44.4712 30.9189 44.0036 31.0569 43.2086 30.7349C42.4604 30.4128 41.7122 30.0907 40.964 29.8147C40.777 29.7226 40.4496 29.7686 40.2626 29.9067C39.0935 30.8729 37.8309 31.6091 36.3813 32.1152C36.1943 32.1612 36.0072 32.4832 35.9604 32.6673C35.8201 33.4495 35.7734 34.1856 35.6331 34.9678C35.4928 35.842 35.1655 36.118 34.277 36.118C33.0612 36.118 31.7986 36.118 30.5827 36.118C29.7878 36.118 29.4137 35.842 29.2734 35.0598C29.1331 34.2776 29.0863 33.4955 28.946 32.7133C28.8993 32.4832 28.7122 32.1612 28.4784 32.1152C27.0755 31.6091 25.813 30.8729 24.6439 29.9527C24.4568 29.8147 24.1295 29.7687 23.8957 29.8607C23.1475 30.1367 22.3993 30.5048 21.6511 30.8269C21.0432 31.0569 20.5288 30.9189 20.2014 30.3668C19.5 29.1705 18.7986 27.9743 18.1439 26.778C18.1439 26.686 18.0971 26.5019 18.0036 26.2259ZM21.7446 28.6184C22.4928 28.2963 23.1942 28.0203 23.8957 27.6982C24.5971 27.3301 25.1115 27.4221 25.7194 27.9743C26.9353 29.1245 28.3381 29.9527 30.0216 30.2748C30.6763 30.4128 31.0036 30.8269 31.0504 31.471C31.0971 32.2992 31.2374 33.1274 31.3309 33.9556C32.1727 33.9556 32.9676 33.9556 33.7626 33.9556C33.8561 33.1274 33.9496 32.3452 34.0432 31.563C34.0899 30.9649 34.3705 30.5048 35.0252 30.3668C36.8022 29.9527 38.2986 29.0325 39.5612 27.7902C39.982 27.4221 40.4029 27.3301 40.9173 27.5602C41.7122 27.9282 42.554 28.2503 43.4425 28.6184C43.8633 27.9282 44.2374 27.2381 44.6583 26.5479C43.9568 25.9958 43.3489 25.4897 42.6943 25.0296C42.0863 24.6155 41.8993 24.1554 42.1331 23.4193C42.554 21.8549 42.554 20.2446 42.1331 18.6802C41.946 17.8981 42.1331 17.3919 42.7878 16.9779C43.4425 16.5178 44.0504 16.0116 44.705 15.5055C44.2842 14.7694 43.9101 14.1252 43.4892 13.4351C42.6475 13.7571 41.8525 14.0792 41.1043 14.4473C40.4964 14.7234 40.0288 14.6313 39.5144 14.1712C38.2518 12.975 36.8489 12.1008 35.1187 11.6867C34.4173 11.5027 34.1367 11.0886 34.0899 10.3984C34.0432 9.57023 33.9029 8.78806 33.8094 8.00589C32.9676 8.00589 32.1727 8.00589 31.3777 8.00589C31.2842 8.88008 31.1907 9.66225 31.0971 10.4904C31.0504 11.0886 30.8166 11.5027 30.2086 11.6867C28.4317 12.1008 26.8885 13.021 25.5791 14.3093C25.1583 14.7234 24.6907 14.7694 24.1763 14.5393C23.4281 14.1712 22.6331 13.8492 21.8381 13.5271C21.4173 14.2633 21.0432 14.9074 20.6223 15.6436C21.277 16.1497 21.9317 16.6558 22.6331 17.1619C23.241 17.576 23.4281 18.0361 23.1942 18.7722C22.7734 20.3366 22.7266 21.9469 23.1942 23.5113C23.4281 24.2935 23.1475 24.7996 22.5396 25.2137C21.8849 25.6738 21.277 26.1799 20.6223 26.686C20.9496 27.2381 21.3237 27.9282 21.7446 28.6184Z" fill="#FABF3B"/>
<path d="M32.5 14.8154C36.0539 14.8154 38.8597 17.53 38.9065 21.0728C38.9532 24.5236 36.1007 27.3762 32.5468 27.3762C28.946 27.4222 26.0935 24.6156 26.1403 21.0728C26.1403 17.622 28.946 14.8614 32.5 14.8154ZM28.1511 20.9808C28.1511 23.3273 30.1151 25.3057 32.5 25.3057C34.8849 25.3057 36.8489 23.3733 36.8489 20.9808C36.8489 18.6343 34.9316 16.7018 32.5468 16.7018C30.1151 16.7018 28.1511 18.6343 28.1511 20.9808Z" fill="#FABF3B"/>
</g>
<defs>
<clipPath id="clip0_21_3016">
<rect width="65" height="64" fill="white"/>
</clipPath>
</defs>
</svg>
