<svg width="59" height="60" viewBox="0 0 59 60" fill="none" xmlns="http://www.w3.org/2000/svg">
<g clip-path="url(#clip0_20_2994)">
<path d="M1.86578 59.9999C1.45116 59.6657 1.36824 59.2478 1.36824 58.7047C1.4097 56.9916 1.36824 55.3203 1.4097 53.6072C1.4097 53.3147 1.65847 52.9386 1.90724 52.8133C2.15601 52.688 2.57063 52.7715 2.77793 52.9804C2.98524 53.1476 3.06817 53.5236 3.06817 53.8161C3.10963 55.0696 3.06817 56.3231 3.06817 57.5765C3.06817 57.7854 3.06817 57.9944 3.06817 58.2451C6.59241 58.2451 10.0752 58.2451 13.6409 58.2451C13.6409 57.5765 13.6409 56.9498 13.6409 56.3231C13.6409 55.4456 13.9311 55.1531 14.8018 55.1531C15.2579 55.1531 15.714 55.1531 16.2115 55.1531C16.253 55.1531 16.2944 55.1531 16.3774 55.1113C16.3774 47.3398 16.3774 39.5264 16.3774 31.6712C15.8384 31.6712 15.2994 31.6712 14.7604 31.6712C13.9726 31.6712 13.6824 31.3788 13.6409 30.5849C13.6409 29.5403 13.6409 28.4958 13.6409 27.493C13.6409 27.2841 13.6409 27.0751 13.6409 26.8244C10.1167 26.8244 6.63387 26.8244 3.10963 26.8244C3.10963 27.0751 3.06817 27.3258 3.06817 27.5765C3.06817 34.6796 3.06817 41.7827 3.06817 48.8857C3.06817 49.1364 3.06817 49.3871 3.0267 49.6378C2.94378 50.0974 2.61209 50.2646 2.19747 50.2646C1.78285 50.2646 1.45116 50.0556 1.4097 49.596C1.36824 49.3453 1.36824 49.1364 1.36824 48.8857C1.36824 41.7827 1.36824 34.6796 1.36824 27.5765C1.36824 27.3258 1.36824 27.1169 1.36824 26.8662C1.16093 26.8662 1.03654 26.8244 0.870696 26.8244C0.331694 26.6573 0 26.3648 0 25.8217C0 24.1921 0 22.5208 0 20.8913C0 20.3481 0.331694 20.0556 0.870696 20.0139C0.912157 20.0139 0.995081 20.0139 1.03654 20.0139C2.61209 20.2646 3.85594 19.6378 5.05833 18.6768C6.79972 17.2562 8.66549 16.0027 10.5313 14.7075C10.863 14.4985 11.319 14.3314 11.6922 14.3314C14.097 14.2896 16.5018 14.3314 18.9065 14.2896C19.1968 14.2896 19.5699 14.1643 19.8187 13.9971C22.6381 12.1169 25.4575 10.1949 28.2769 8.27291C28.6086 8.02221 28.7744 7.8133 28.733 7.35369C28.6915 5.26455 28.733 3.13364 28.733 1.0445C28.733 0.543106 28.8159 0.125279 29.3549 -6.92829e-05C29.8524 -0.125417 30.1841 0.125279 30.4329 0.584889C30.5158 0.75202 30.9304 0.877368 31.1377 0.877368C31.7597 0.793803 32.3816 0.584889 33.0035 0.459541C33.9571 0.208844 34.9522 0.125279 35.9058 0.501323C36.4863 0.710237 36.7765 1.08628 36.7351 1.75481C36.6936 2.71581 36.7351 3.67681 36.7351 4.63781C36.7351 5.55703 36.1961 5.93308 35.3254 5.55703C34.662 5.26455 34.0401 5.34812 33.3767 5.51525C32.423 5.76595 31.4694 5.97486 30.4329 6.22556C30.4329 6.68517 30.3914 7.27013 30.4329 7.85508C30.4329 8.02221 30.5987 8.18935 30.7646 8.27291C31.6767 8.89965 32.6304 9.48461 33.5425 10.1114C34.123 10.5292 34.123 11.3648 33.4596 11.6155C33.2108 11.6991 32.7547 11.6573 32.506 11.4902C31.6353 10.9888 30.806 10.4038 29.9768 9.81887C29.728 9.65174 29.4793 9.56818 29.189 9.77709C24.2551 13.1197 19.3212 16.5041 14.4287 19.8467C14.3872 19.8885 14.3043 19.8885 14.3043 20.0139C24.4624 20.0139 34.6205 20.0139 44.903 20.0139C44.6957 19.8467 44.5299 19.7214 44.4055 19.6378C41.8349 17.8829 39.2642 16.1281 36.6936 14.3314C36.4034 14.1225 36.1546 13.7882 36.1131 13.4958C36.0302 12.8272 36.818 12.4094 37.4399 12.7854C38.0618 13.2033 38.6838 13.6629 39.3057 14.0389C39.6374 14.2061 40.0105 14.3732 40.3837 14.3732C42.747 14.415 45.0689 14.3732 47.4322 14.415C47.8468 14.415 48.3029 14.5821 48.6346 14.8328C50.915 16.4205 53.1539 18.0919 55.3928 19.7214C55.766 20.0139 56.1391 20.1392 56.5952 20.1392C57.0928 20.0974 57.5488 20.1392 58.0464 20.1392C58.6683 20.1392 59 20.4317 59 21.0584C59 22.688 59 24.3175 59 25.9052C59 26.4484 58.7098 26.7827 58.1708 26.8244C57.7976 26.8244 57.7561 27.0334 57.7561 27.2841C57.7976 37.4373 57.8391 47.6322 57.8391 57.7854C57.8391 58.6211 57.922 59.415 57.2171 60.0835C38.7667 59.9999 20.3162 59.9999 1.86578 59.9999ZM15.4238 26.7409C15.4238 27.8272 15.4238 28.83 15.4238 29.8746C15.714 29.8746 15.9213 29.8746 16.1701 29.8746C21.1455 29.8746 26.0794 29.8746 31.0548 29.8746C31.2621 29.8746 31.428 29.8746 31.6353 29.8746C32.0914 29.9164 32.3401 30.2088 32.3401 30.6685C32.3816 31.2952 32.0084 31.6295 31.2621 31.6295C28.2769 31.6295 25.2916 31.6295 22.3064 31.6295C22.0991 31.6295 21.8918 31.6295 21.6845 31.6295C21.6845 39.4846 21.6845 47.298 21.6845 55.1113C22.182 55.1113 22.6796 55.1113 23.1356 55.1113C24.0063 55.1113 24.2966 55.4038 24.2966 56.2813C24.2966 56.908 24.2966 57.5765 24.2966 58.2033C24.877 58.2033 25.3331 58.2033 25.9136 58.2033C25.9136 57.9526 25.9136 57.7019 25.9136 57.493C25.9136 54.4428 25.9136 51.3927 25.9136 48.3425C25.9136 47.9665 25.9136 47.5905 25.9965 47.2144C26.2038 45.6685 27.5306 44.3314 29.0647 44.1643C31.3865 43.8718 33.2937 45.5431 33.2937 47.8829C33.3352 51.1002 33.2937 54.3175 33.2937 57.5347C33.2937 57.7437 33.2937 57.9526 33.2937 58.1615C33.8742 58.1615 34.3303 58.1615 34.9108 58.1615C34.9108 57.493 34.9108 56.8244 34.9108 56.1559C34.9108 55.362 35.201 55.0696 35.9888 55.0696C36.5278 55.0696 37.0668 55.0696 37.6472 55.0696C37.6472 47.2144 37.6472 39.4428 37.6472 31.5877C37.3985 31.5877 37.1497 31.5877 36.9424 31.5877C36.6936 31.5877 36.4863 31.5877 36.2375 31.5877C35.6985 31.5459 35.4083 31.2952 35.3668 30.752C35.3254 30.1671 35.6985 29.8328 36.3619 29.8328C38.6423 29.8328 40.8812 29.8328 43.1616 29.8328C43.3689 29.8328 43.5762 29.8328 43.7421 29.8328C43.7421 28.7464 43.7421 27.7437 43.7421 26.6991C34.2474 26.7409 24.8356 26.7409 15.4238 26.7409ZM56.0148 58.2033C56.0148 47.674 56.0148 37.2283 56.0148 26.7827C52.4905 26.7827 49.0077 26.7827 45.4835 26.7827C45.4835 28.0779 45.4835 29.2896 45.4835 30.5013C45.4835 31.2952 45.1518 31.5877 44.4055 31.6295C43.9079 31.6295 43.3689 31.6295 42.8714 31.6295C42.8714 39.4846 42.8714 47.298 42.8714 55.1113C43.4104 55.1113 43.9079 55.1113 44.4055 55.1113C45.1933 55.1113 45.4835 55.4456 45.4835 56.2395C45.4835 56.908 45.4835 57.5347 45.4835 58.2451C49.0077 58.2033 52.4905 58.2033 56.0148 58.2033ZM1.78285 24.9442C20.2748 24.9442 38.7667 24.9442 57.2171 24.9442C57.2171 23.8579 57.2171 22.8551 57.2171 21.7687C38.7252 21.7687 20.2748 21.7687 1.78285 21.7687C1.78285 22.8551 1.78285 23.8579 1.78285 24.9442ZM31.428 57.9526C31.4694 57.869 31.4694 57.869 31.4694 57.8272C31.4694 54.4428 31.5109 51.1002 31.4694 47.7158C31.4694 46.8384 30.7646 46.0863 29.8939 45.9192C28.6086 45.6685 27.572 46.5877 27.572 48.0083C27.572 51.1838 27.572 54.3593 27.572 57.5347C27.572 57.6601 27.6135 57.7854 27.6135 57.9526C28.9403 57.9526 30.1841 57.9526 31.428 57.9526ZM18.1602 31.8802C18.1602 39.6517 18.1602 47.3398 18.1602 55.0696C18.7407 55.0696 19.2797 55.0696 19.8187 55.0696C19.8187 47.3398 19.8187 39.61 19.8187 31.8802C19.2797 31.8802 18.7407 31.8802 18.1602 31.8802ZM41.0471 55.0696C41.0471 47.3398 41.0471 39.61 41.0471 31.8802C40.4666 31.8802 39.9276 31.8802 39.3886 31.8802C39.3886 39.61 39.3886 47.298 39.3886 55.0696C39.9276 55.0696 40.4666 55.0696 41.0471 55.0696ZM6.34364 19.8885C6.34364 19.9303 6.3851 19.9721 6.3851 20.0139C7.75334 20.0139 9.12157 20.0139 10.4898 20.0139C10.78 20.0139 11.1532 19.8885 11.402 19.7214C13.0604 18.635 14.6774 17.5069 16.2944 16.3788C16.4188 16.2952 16.5018 16.2116 16.7505 16.0445C16.0042 16.0445 15.3823 16.0445 14.7604 16.0445C13.6824 16.0445 12.5629 15.8356 11.6093 16.1281C10.6557 16.4623 9.86788 17.298 8.99719 17.9247C8.12649 18.5932 7.21434 19.22 6.34364 19.8885ZM52.9051 20.0139C52.6149 19.8049 52.4905 19.6796 52.3247 19.5542C51.0394 18.5932 49.7126 17.674 48.4273 16.713C47.8053 16.2116 47.142 16.0027 46.3542 16.0445C45.0689 16.0863 43.7836 16.0445 42.4568 16.0445C42.4982 16.1281 42.4982 16.2116 42.5397 16.2116C44.3226 17.4233 46.0639 18.635 47.8468 19.8467C47.9712 19.9303 48.1785 19.9721 48.3443 19.9721C49.837 20.0139 51.2881 20.0139 52.9051 20.0139ZM22.5137 58.2033C22.5137 57.7019 22.5137 57.2841 22.5137 56.8662C20.1089 56.8662 17.7871 56.8662 15.4238 56.8662C15.4238 57.3258 15.4238 57.7437 15.4238 58.2033C17.7871 58.2033 20.1089 58.2033 22.5137 58.2033ZM36.6521 56.8662C36.6521 57.3258 36.6521 57.7437 36.6521 58.2033C39.0155 58.2033 41.3788 58.2033 43.7006 58.2033C43.7006 57.7437 43.7006 57.3258 43.7006 56.8662C41.3373 56.8662 39.0155 56.8662 36.6521 56.8662ZM30.4743 2.75759C30.4743 3.17542 30.4743 3.67681 30.4743 4.34533C31.967 4.05286 33.4596 3.76038 34.9522 3.4679C34.9522 3.00829 34.9522 2.50689 34.9522 1.83837C33.4596 2.17263 31.967 2.46511 30.4743 2.75759Z" fill="#FABF3B"/>
<path d="M11.941 37.1029C11.941 38.1057 11.941 39.1085 11.941 40.0695C11.941 40.9051 11.6508 41.1976 10.8215 41.1976C9.90936 41.1976 8.9972 41.1976 8.08505 41.1976C7.42166 41.1976 7.08997 40.8634 7.08997 40.1948C7.08997 38.1057 7.08997 36.0166 7.08997 33.9274C7.08997 32.5904 8.08505 31.5876 9.37036 31.504C10.6142 31.4205 11.7751 32.2979 11.8581 33.5932C11.941 34.7213 11.8581 35.8912 11.8581 37.0193C11.8995 37.1029 11.941 37.1029 11.941 37.1029ZM10.1996 39.4427C10.1996 37.6461 10.1996 35.8912 10.1996 34.1781C10.1996 33.635 9.90936 33.2589 9.49474 33.3007C8.95574 33.3425 8.7899 33.7185 8.83136 34.2199C8.83136 35.8077 8.83136 37.3954 8.83136 39.0249C8.83136 39.1921 8.87282 39.3174 8.87282 39.4845C9.3289 39.4427 9.74351 39.4427 10.1996 39.4427Z" fill="#FABF3B"/>
<path d="M7.08997 49.6796C7.08997 48.7186 7.08997 47.7158 7.08997 46.7548C7.08997 45.2924 8.12651 44.2478 9.49474 44.2061C10.863 44.2061 11.8995 45.2506 11.941 46.713C11.9824 48.3843 11.941 50.0139 11.941 51.6852C11.941 52.103 11.941 52.5208 11.941 52.8969C11.8995 53.5236 11.6093 53.8579 10.9459 53.8579C9.99228 53.8579 8.9972 53.8579 8.04358 53.8579C7.42166 53.8579 7.08997 53.5236 7.08997 52.8551C7.08997 51.8105 7.08997 50.7659 7.08997 49.6796ZM10.1996 52.103C10.1996 50.3063 10.1996 48.5515 10.1996 46.8384C10.1996 46.2952 9.90936 45.9191 9.49474 45.9609C8.95574 46.0027 8.7899 46.3788 8.7899 46.8384C8.7899 48.3425 8.7899 49.8885 8.7899 51.3927C8.7899 51.6016 8.7899 51.8523 8.7899 52.103C9.3289 52.103 9.74351 52.103 10.1996 52.103Z" fill="#FABF3B"/>
<path d="M32.9621 37.5626C32.9621 39.4428 31.4694 40.9888 29.6037 40.9888C27.7379 40.9888 26.2038 39.4846 26.2038 37.6044C26.2038 35.6824 27.6964 34.1782 29.5622 34.1782C31.428 34.1782 32.9206 35.6406 32.9621 37.5626ZM27.9037 37.5626C27.9037 38.4818 28.6086 39.2757 29.5207 39.2757C30.4329 39.2757 31.1792 38.5654 31.2207 37.6462C31.2621 36.727 30.5158 35.9749 29.6037 35.9331C28.6915 35.8913 27.9037 36.6016 27.9037 37.5626Z" fill="#FABF3B"/>
<path d="M51.7857 37.103C51.7857 38.1058 51.7857 39.1504 51.7857 40.1531C51.7857 40.947 51.4954 41.2395 50.6662 41.2395C49.754 41.2395 48.8419 41.2395 47.9297 41.2395C47.2249 41.2395 46.9346 40.947 46.9346 40.2367C46.9346 38.1476 46.9346 36.0584 46.9346 33.9693C46.9346 32.5905 48.0126 31.5459 49.3394 31.5459C50.6247 31.5459 51.7027 32.5069 51.7442 33.8857C51.8271 34.9721 51.7857 36.0584 51.7857 37.103ZM50.0857 39.4428C50.0857 37.6044 50.0857 35.8495 50.0857 34.0529C50.0857 33.5933 49.837 33.3008 49.3809 33.3008C48.8833 33.3008 48.676 33.635 48.676 34.1364C48.676 35.3481 48.676 36.6016 48.676 37.8133C48.676 38.3565 48.676 38.8997 48.676 39.4428C49.1736 39.4428 49.5882 39.4428 50.0857 39.4428Z" fill="#FABF3B"/>
<path d="M46.9761 49.7213C46.9761 48.7186 46.9761 47.7158 46.9761 46.7548C46.9761 45.2924 48.0126 44.2478 49.3809 44.2478C50.7076 44.2478 51.7857 45.2924 51.7857 46.713C51.8271 48.7603 51.7857 50.8495 51.7857 52.8968C51.7857 53.6071 51.454 53.8996 50.7906 53.8996C49.837 53.8996 48.8833 53.8996 47.9297 53.8996C47.2663 53.8996 46.9346 53.5653 46.9346 52.8968C46.9346 51.8105 46.9761 50.7659 46.9761 49.7213ZM50.0857 52.103C50.0857 50.2645 50.0857 48.4679 50.0857 46.6712C50.0857 46.2534 49.837 45.9609 49.3809 45.9609C48.9248 45.9609 48.676 46.2534 48.676 46.713C48.676 47.5486 48.676 48.3843 48.676 49.2199C48.676 50.181 48.676 51.1002 48.676 52.103C49.1736 52.103 49.5882 52.103 50.0857 52.103Z" fill="#FABF3B"/>
</g>
<defs>
<clipPath id="clip0_20_2994">
<rect width="59" height="60" fill="white"/>
</clipPath>
</defs>
</svg>
