<svg width="60" height="59" viewBox="0 0 60 59" fill="none" xmlns="http://www.w3.org/2000/svg">
<g clip-path="url(#clip0_21_3030)">
<path d="M26.0323 52.2512C27.1659 52.4168 27.3339 52.5825 27.3339 53.5761C27.3339 54.9425 27.3339 56.3088 27.3339 57.7165C27.3339 58.7516 27.0819 59 26.0742 59C20.7418 59 15.4094 59 10.077 59C9.11133 59 8.8594 58.7516 8.8594 57.7993C8.8594 56.5158 8.8594 55.2323 8.8594 53.9074C8.8594 52.4582 8.90139 52.4168 10.4549 52.2512C10.4549 51.2575 10.4549 50.2225 10.4129 49.1874C10.4129 49.0218 10.119 48.8561 9.95108 48.7319C8.01966 47.8625 6.2142 46.7446 4.66066 45.3368C1.38565 42.4386 -0.293851 38.8365 0.0840354 34.4477C0.545897 28.5684 0.419935 22.6477 0.16801 16.727C0.126023 15.4021 0.545897 14.2842 1.59558 13.3733C2.72924 12.3796 4.03085 12.214 5.37445 12.7523C6.71805 13.2905 7.59978 14.2842 7.72574 15.7747C8.01966 19.3768 8.27158 22.9789 8.5235 26.6225C8.5235 26.8295 8.56549 26.9951 8.56549 27.2021C9.1953 27.2849 9.82511 27.2849 10.4549 27.4091C12.5963 27.8646 14.1498 29.0653 15.1155 30.9698C16.1652 33.0814 17.2569 35.193 18.3066 37.346C18.4745 37.7186 18.7264 37.8842 19.1043 37.967C21.2037 38.5467 22.9672 39.5404 23.9749 41.5691C24.5627 42.7284 25.1925 43.9291 25.6544 45.1298C25.9483 45.8751 26.0742 46.6618 26.1162 47.4484C26.0742 49.0632 26.0323 50.6365 26.0323 52.2512ZM24.1428 52.1684C24.1428 50.5951 24.1848 49.1046 24.1428 47.5726C24.1008 46.9102 23.9749 46.1649 23.7229 45.5439C23.2611 44.426 22.7152 43.3909 22.1694 42.3144C21.9595 41.9003 21.6236 41.4449 21.2457 41.1551C20.322 40.4512 19.2723 39.8302 18.0966 39.5818C17.4248 39.4575 17.005 39.0849 16.711 38.4639C15.6194 36.1867 14.4857 33.9095 13.3101 31.6737C12.2604 29.6035 9.95108 28.6512 7.80972 29.3137C7.93568 29.5621 8.01966 29.8105 8.14562 30.0589C9.8671 33.454 11.5886 36.8491 13.2681 40.2442C13.562 40.8653 13.436 41.4035 12.9322 41.6519C12.4283 41.9004 11.9245 41.7347 11.6306 41.1551C9.61518 37.1804 7.64177 33.2056 5.62637 29.2309C5.29047 28.5684 5.45842 28.0716 6.17221 27.7818C6.5501 27.6161 6.59208 27.4091 6.59208 27.0365C6.29817 23.393 6.04625 19.7909 5.79432 16.1474C5.71035 15.0295 4.95457 14.2842 3.94688 14.2842C2.8552 14.2842 2.01546 15.1537 2.01546 16.2302C2.01546 17.2653 2.01546 18.3418 2.09943 19.3768C2.39334 24.5523 2.26738 29.6863 1.88949 34.8203C1.67956 37.3874 2.39334 39.706 3.90489 41.7761C5.79432 44.3432 8.35555 46.0407 11.2527 47.2414C12.2184 47.6554 12.2604 47.7382 12.2604 48.7319C12.2604 49.8498 12.2604 50.9263 12.2604 52.0856C16.2492 52.1684 20.196 52.1684 24.1428 52.1684ZM10.7488 57.054C15.6614 57.054 20.5739 57.054 25.4444 57.054C25.4444 56.0604 25.4444 55.1081 25.4444 54.1558C20.5319 54.1558 15.6614 54.1558 10.7488 54.1558C10.7488 55.1495 10.7488 56.1018 10.7488 57.054Z" fill="#FABF3B"/>
<path d="M51.6026 27.3265C51.7285 25.4219 51.8545 23.6001 52.0225 21.737C52.1484 19.791 52.2744 17.845 52.4423 15.8991C52.6103 13.8289 54.3318 12.3798 56.4311 12.504C58.3625 12.5868 60.0001 14.2843 60.0001 16.2717C60.0001 17.7622 59.9581 19.2114 59.8741 20.7019C59.5802 25.5875 59.8741 30.4731 60.042 35.3587C60.21 39.7475 58.2366 43.184 54.8776 45.9166C53.408 47.1173 51.8125 48.0696 50.091 48.7735C49.7551 48.8977 49.6292 49.0633 49.6712 49.4359C49.7131 50.3468 49.6712 51.2991 49.6712 52.2928C49.9231 52.2928 50.091 52.3342 50.259 52.3342C50.8468 52.3342 51.1827 52.7068 51.1827 53.2451C51.2247 54.8598 51.2247 56.4745 51.1827 58.0893C51.1827 58.7103 50.8048 59.0001 50.133 59.0001C49.3353 59.0001 48.5795 59.0001 47.7817 59.0001C43.2051 59.0001 38.6285 59.0001 34.0518 59.0001C32.9182 59.0001 32.6663 58.7931 32.6663 57.6338C32.6663 56.3089 32.6663 54.984 32.6663 53.6177C32.6663 52.5826 32.8342 52.3756 34.0099 52.2928C34.0099 52.0858 34.0099 51.8787 34.0099 51.6717C34.0099 50.3468 33.9679 49.0219 34.0938 47.7384C34.1778 46.8275 34.3458 45.8752 34.6397 45.0057C35.0176 43.8879 35.6054 42.8528 36.1092 41.8177C37.0329 39.9131 38.7544 38.9194 40.6859 38.257C41.3157 38.05 41.7355 37.7601 42.0294 37.1391C42.9532 35.1931 43.9189 33.33 44.8846 31.4254C46.1862 28.7342 48.3276 27.3265 51.3507 27.3679C51.3507 27.3679 51.4346 27.3265 51.6026 27.3265ZM47.7397 52.2514C47.7397 51.0093 47.7397 49.8086 47.7397 48.6493C47.7397 48.0282 48.0336 47.6556 48.5795 47.4072C49.8391 46.7861 51.1827 46.2065 52.3584 45.3784C56.3891 42.6458 58.5305 39.0022 58.1526 33.9924C57.9007 30.5973 57.9427 27.1608 57.9427 23.7243C57.9427 21.1987 58.0686 18.7145 58.1106 16.1889C58.1106 15.071 57.3549 14.2429 56.3472 14.2429C55.2555 14.2015 54.4157 14.9882 54.3318 16.1061C54.2898 16.9756 54.2058 17.845 54.1218 18.7145C53.9119 21.5714 53.702 24.4282 53.534 27.285C53.534 27.4507 53.66 27.6991 53.7859 27.7819C54.6677 28.2373 54.7516 28.4443 54.2898 29.3552C52.3584 33.2057 50.3849 37.0977 48.4535 40.9482C48.4115 41.0724 48.3276 41.1966 48.2436 41.3208C47.9497 41.7349 47.4458 41.9005 47.026 41.6521C46.5641 41.4036 46.4381 40.9896 46.6061 40.5342C46.6481 40.3686 46.774 40.2029 46.816 40.0373C48.5375 36.6422 50.217 33.2886 51.9385 29.8935C52.0225 29.6865 52.1064 29.5208 52.2324 29.3138C49.9651 28.6928 47.7817 29.6865 46.6901 31.798C45.5984 33.9096 44.5067 36.0626 43.499 38.2156C43.0791 39.085 42.5333 39.4991 41.6096 39.7889C39.7621 40.3272 38.2086 41.2794 37.4528 43.184C37.2009 43.805 36.907 44.3847 36.6131 44.9643C36.1512 45.958 35.8573 46.9517 35.9413 48.0696C35.9833 48.9805 35.8993 49.8914 35.8993 50.8022C35.8993 51.2577 35.8993 51.7545 35.8993 52.2514C39.8041 52.2514 43.7509 52.2514 47.7397 52.2514ZM34.5137 57.0542C39.4262 57.0542 44.2968 57.0542 49.1673 57.0542C49.1673 56.0605 49.1673 55.1082 49.1673 54.1559C44.2548 54.1559 39.3842 54.1559 34.5137 54.1559C34.5137 55.1496 34.5137 56.1019 34.5137 57.0542Z" fill="#FABF3B"/>
<path d="M30.0211 38.3811C29.2653 38.3811 28.5095 38.3811 27.7957 38.3811C25.9903 38.3397 24.8566 37.2218 24.8566 35.4415C24.8566 34.9032 24.8146 34.4892 24.4367 34.0338C23.7649 33.2471 23.8909 31.7566 24.5207 30.8871C24.6887 30.6387 24.8146 30.266 24.8146 29.9762C24.6467 26.7467 23.387 23.9727 21.1197 21.6127C18.8944 19.2527 17.7187 16.4787 17.7607 13.2492C17.8027 6.41761 23.2191 1.15937 30.147 1.24218C36.4451 1.32498 41.6516 5.79656 42.4073 11.9657C42.8692 15.5264 41.8615 18.7145 39.4262 21.4057C37.4948 23.5587 36.1932 26.0015 35.7313 28.8583C35.6474 29.3552 35.6054 29.852 35.5634 30.3488C35.5634 30.5973 35.6474 30.8871 35.7733 31.1355C36.3192 32.1292 36.2352 33.4127 35.5214 34.2822C35.3954 34.4478 35.3115 34.7376 35.2695 34.986C35.2275 35.3173 35.2695 35.6485 35.2275 35.9797C35.0595 37.3046 34.0518 38.2569 32.7082 38.3397C31.7845 38.4225 30.9028 38.3811 30.0211 38.3811ZM32.4983 30.0176C32.7922 30.0176 33.0022 30.0176 33.1701 30.0176C33.506 30.059 33.632 29.9348 33.674 29.6036C33.9679 26.0015 35.4374 22.8962 37.8727 20.1636C39.9721 17.8036 40.8538 14.9881 40.35 11.8415C39.7201 7.65972 37.2429 4.88568 33.2121 3.60218C29.1813 2.27726 25.4864 3.14674 22.4633 6.16919C18.5165 10.1025 18.6005 16.5615 22.5473 20.6604C24.3528 22.565 25.6124 24.7594 26.2422 27.285C26.4521 28.1959 26.5781 29.1067 26.746 30.0176C27.0399 30.0176 27.2919 30.0176 27.6278 30.0176C27.6278 29.7692 27.6278 29.6036 27.6278 29.3966C27.6278 28.0302 27.6278 26.6639 27.6278 25.2562C27.6278 24.5109 27.9637 24.1383 28.5935 24.1383C29.1813 24.1383 29.5172 24.5109 29.5172 25.2148C29.5172 26.5811 29.5172 27.9474 29.5172 29.3552C29.5172 29.5622 29.5172 29.7692 29.5172 29.9762C29.9371 29.9762 30.273 29.9762 30.6509 29.9762C30.6509 29.7278 30.6509 29.5208 30.6509 29.2723C30.6509 27.8646 30.6509 26.4569 30.6509 25.0492C30.6509 24.4695 31.0288 24.0969 31.6166 24.1383C32.1624 24.1383 32.4983 24.5109 32.4983 25.0492C32.4983 25.2562 32.4983 25.5046 32.4983 25.7116C32.4983 27.1194 32.4983 28.5271 32.4983 30.0176ZM30.063 33.2057C31.1967 33.2057 32.3304 33.2057 33.464 33.2057C33.9259 33.2057 34.2198 33.1229 34.2198 32.5846C34.2198 32.0464 33.9259 31.9222 33.464 31.9222C31.1967 31.9222 28.9294 31.9222 26.6201 31.9222C26.2002 31.9222 25.8643 32.0464 25.8643 32.5432C25.8643 33.0815 26.1582 33.2057 26.6621 33.2057C27.7537 33.2057 28.9294 33.2057 30.063 33.2057ZM33.2961 35.1102C31.0707 35.1102 28.8874 35.1102 26.704 35.1102C26.6201 36.2281 26.914 36.518 27.9637 36.5594C29.3493 36.5594 30.6929 36.5594 32.0784 36.5594C33.1701 36.5594 33.422 36.2281 33.2961 35.1102Z" fill="#FABF3B"/>
<path d="M13.7299 5.79647C13.562 5.75507 13.394 5.71367 13.2261 5.63086C12.5963 5.29963 11.9665 4.9684 11.3367 4.59577C10.7908 4.26454 10.6229 3.7677 10.9168 3.27086C11.2107 2.77402 11.7145 2.6084 12.2604 2.89823C12.9742 3.27086 13.646 3.60209 14.3178 4.01612C14.6957 4.26454 14.9476 4.63717 14.7376 5.05121C14.5697 5.38244 14.1918 5.58946 13.8979 5.83788C13.8559 5.87928 13.7719 5.83788 13.7299 5.79647Z" fill="#FABF3B"/>
<path d="M49.3352 3.97474C49.2092 4.09895 49.0413 4.43017 48.7894 4.59579C48.2015 4.96842 47.5297 5.29965 46.8999 5.63088C46.3541 5.9207 45.7243 5.75509 45.4724 5.25824C45.2204 4.7614 45.3884 4.26456 46.0182 3.93333C46.648 3.5607 47.3198 3.18807 47.9916 2.89824C48.6214 2.56702 49.3352 3.02246 49.3352 3.97474Z" fill="#FABF3B"/>
<path d="M18.1806 3.47796C18.0546 3.39515 17.6767 3.22954 17.4668 2.98112C17.0889 2.52568 16.837 1.98743 16.543 1.44919C16.2911 0.952347 16.4591 0.455505 16.9209 0.16568C17.3828 -0.0827406 17.8866 6.63958e-05 18.1806 0.496909C18.5584 1.03515 18.8943 1.6148 19.1883 2.19445C19.4822 2.7741 19.0203 3.47796 18.1806 3.47796Z" fill="#FABF3B"/>
<path d="M42.5753 0.0416888C43.4571 0.000285313 43.9189 0.745548 43.583 1.44941C43.3311 1.98765 42.9952 2.5259 42.6593 3.02274C42.3654 3.47818 41.7776 3.60239 41.3997 3.35397C40.9798 3.10555 40.7699 2.5673 41.0218 2.07046C41.3157 1.49081 41.6516 0.952566 41.9875 0.455724C42.1135 0.207303 42.4494 0.124496 42.5753 0.0416888Z" fill="#FABF3B"/>
<path d="M46.732 10.765C46.4381 10.7236 46.0183 10.7236 45.6404 10.6822C45.0945 10.5994 44.8846 10.2681 44.9266 9.72988C44.9686 9.15023 45.2205 8.819 45.7663 8.86041C46.4801 8.86041 47.1939 8.90181 47.8657 8.98462C48.3696 9.02602 48.5795 9.39865 48.5795 9.85409C48.5795 10.3509 48.2856 10.6822 47.7817 10.765C47.4878 10.8064 47.1519 10.765 46.732 10.765Z" fill="#FABF3B"/>
<path d="M13.2681 10.7651C13.0162 10.7651 12.7643 10.7651 12.5543 10.7651C12.0085 10.7651 11.6306 10.4338 11.5886 9.97839C11.5466 9.52295 11.9245 9.02611 12.4284 8.9433C13.0162 8.8605 13.646 8.81909 14.2338 8.81909C14.7797 8.81909 15.2415 9.27453 15.2415 9.72997C15.2415 10.1854 14.8637 10.5994 14.3178 10.6408C13.9399 10.7237 13.604 10.7237 13.2681 10.7651Z" fill="#FABF3B"/>
<path d="M27.3339 15.3194C26.7461 15.1124 26.2422 14.9054 25.7384 14.6984C24.9406 14.3671 24.8566 13.7047 25.4444 13.0836C27.5858 10.9721 29.7272 8.81908 31.9105 6.7075C32.1204 6.50048 32.5403 6.41767 32.8342 6.50048C33.2541 6.58329 33.4221 6.95592 33.3801 7.36996C33.2541 8.32224 33.0862 9.23311 32.9602 10.1854C32.9182 10.3924 32.9182 10.5994 32.8762 10.8893C33.2961 10.9721 33.674 11.0963 34.0939 11.1791C34.5137 11.3033 34.9336 11.3447 35.1016 11.8415C35.2275 12.3384 35.0596 12.7524 34.6817 13.125C33.0862 14.6984 31.4906 16.3131 29.8951 17.9278C29.4752 18.3419 29.0554 18.7559 28.6775 19.17C28.2996 19.584 27.8797 19.791 27.3339 19.5012C26.788 19.2114 26.872 18.7145 26.956 18.2591C26.998 17.3482 27.1659 16.3545 27.3339 15.3194ZM29.1393 15.8163C30.231 14.7812 31.2387 13.7875 32.2464 12.7938C30.315 12.711 30.8608 11.3861 30.9448 10.2268C29.9371 11.3447 28.8874 12.4212 27.8797 13.4977C29.3073 13.5391 29.6012 14.4914 29.1393 15.8163Z" fill="#FABF3B"/>
</g>
<defs>
<clipPath id="clip0_21_3030">
<rect width="60" height="59" fill="white"/>
</clipPath>
</defs>
</svg>
