<svg width="49" height="57" viewBox="0 0 49 57" fill="none" xmlns="http://www.w3.org/2000/svg">
<g clip-path="url(#clip0_21_3044)">
<path d="M43.9547 20.2258C42.6227 20.5056 41.2504 20.7054 39.9992 21.1451C39.4341 21.345 38.8287 21.9846 38.6269 22.5442C38.1829 23.7833 38.0214 25.0624 37.6985 26.3815C38.5461 26.7812 39.3534 27.1809 40.1606 27.5406C41.089 27.9803 42.0173 28.42 42.9456 28.8597C43.7529 29.2594 43.7933 29.7391 43.2282 30.4586C42.5017 31.338 41.7348 31.4979 40.645 31.258C38.3443 30.6984 36.0033 30.2587 33.6623 29.7791C32.8147 29.6192 32.6129 29.3394 32.6936 28.5C32.9358 26.5014 33.1376 24.5028 33.3394 22.4642C33.3797 22.0645 33.299 21.7847 33.0165 21.4649C32.3707 20.7854 32.0882 19.906 31.9671 18.9467C31.9267 18.6669 31.8056 18.3471 31.6038 18.1872C29.1821 16.1486 26.7199 14.15 24.2578 12.1515C23.9349 11.9116 23.6524 11.7917 23.2488 11.8716C22.7241 11.9516 22.159 11.9116 21.6343 11.9516C21.4325 11.9916 21.1903 12.0715 21.0692 12.1914C18.6475 15.1893 16.1854 18.1073 13.7636 21.0252C13.6425 21.1851 13.6022 21.385 13.5618 21.5848C13.4003 22.3043 13.2389 23.0238 13.1178 23.7833C13.0774 23.9831 13.0774 24.263 13.1985 24.4628C16.5486 29.0996 19.8987 33.7363 23.2488 38.373C23.3699 38.5329 23.6524 38.6529 23.8542 38.6928C24.0964 38.7328 24.3386 38.6928 24.6211 38.6928C25.9127 38.6928 26.6796 39.4123 26.7603 40.7314C26.8814 42.6101 28.5766 43.8892 30.4333 43.4095C30.9176 43.2896 31.3213 42.9698 31.7249 42.69C32.6532 41.9305 33.6623 41.9305 34.5503 42.77C35.3171 43.4895 36.0437 44.2489 36.7702 44.9684C37.6178 45.8078 37.6582 46.8471 36.8509 47.7665C36.0033 48.6858 35.7611 49.765 36.2455 50.9242C36.7298 52.0834 37.6582 52.643 38.9498 52.723C40.0396 52.7629 40.7661 53.4824 40.8468 54.5217C40.8872 55.0813 40.8872 55.6409 40.8468 56.2005C40.8064 56.8001 40.5239 57.0799 39.9185 57.0799C37.0527 57.0799 34.2274 57.0799 31.3616 57.0799C30.7158 57.0799 30.4737 56.7601 30.4333 55.9607C30.2718 53.1627 28.8995 51.0841 26.3567 49.805C21.6746 47.4866 16.2257 50.6844 15.8625 55.9607C15.7817 56.92 15.6203 57.0799 14.6516 57.0799C11.9877 57.0799 9.28337 57.0799 6.61945 57.0799C5.73148 57.0799 5.44894 56.8401 5.44894 55.9607C5.44894 55.521 5.44894 55.0813 5.44894 54.6416C5.48931 53.5224 6.25619 52.7629 7.34598 52.723C8.63758 52.683 9.56591 52.0834 10.0503 50.9642C10.5346 49.805 10.3328 48.7658 9.44482 47.8064C8.63758 46.8871 8.67794 45.8478 9.52555 44.9684C10.2924 44.209 11.019 43.4495 11.7858 42.73C12.028 42.5301 12.028 42.3702 11.9069 42.0904C9.84845 37.4937 7.7496 32.9369 5.65076 28.42C5.57003 28.2202 5.28749 28.0203 5.08568 27.9404C1.89705 27.061 -0.201798 24.183 1.43908e-05 21.0252C0.242189 17.6676 2.66394 15.1493 5.97366 14.7097C6.29655 14.6697 6.61945 14.5098 6.86163 14.3499C9.84845 11.9116 12.8353 9.47333 15.8221 7.07501C16.0643 6.87515 16.1854 6.67529 16.1854 6.31555C16.0643 3.11779 18.3649 0.439671 21.6343 0.0399517C24.6211 -0.319796 27.4868 1.75875 28.173 4.75664C28.2537 5.11639 28.4152 5.47614 28.6573 5.75594C30.9984 8.59395 33.3394 11.392 35.7208 14.19C35.8822 14.3899 36.1648 14.5498 36.4473 14.5498C37.4967 14.6297 38.3847 14.9895 39.1919 15.669C39.3534 15.8289 39.6763 15.9088 39.9185 15.8688C41.9366 15.669 43.9143 15.4691 45.9325 15.2293C46.9819 15.1094 47.1837 15.2293 47.4259 16.2686C47.9506 18.7468 48.4753 21.2251 49 23.7033C49.1211 24.3029 49 24.7426 48.556 25.1823C47.3855 26.4614 46.8608 26.2615 46.215 24.7826C45.4885 23.3036 44.7216 21.8247 43.9547 20.2258ZM39.1919 55.3611C39.0305 54.9214 39.5148 54.2819 38.6269 54.2019C36.7702 54.082 35.4382 53.1627 34.7117 51.4838C33.9852 49.7651 34.2274 48.1262 35.4786 46.7272C35.7208 46.4474 35.7611 46.2475 35.4786 45.9677C34.7924 45.3282 34.1063 44.6486 33.4605 43.9691C33.1779 43.6493 32.9358 43.6893 32.6532 43.9691C31.2405 45.1683 29.6664 45.4481 27.9308 44.7686C26.1952 44.0491 25.2669 42.73 25.1458 40.8913C25.1054 40.5315 24.9844 40.3317 24.5807 40.3317C23.612 40.3317 22.6433 40.3317 21.6746 40.3317C21.3114 40.3317 21.1499 40.4916 21.1499 40.8513C21.1499 41.1711 21.0692 41.4909 20.9885 41.8106C20.1409 44.9684 16.2257 46.2075 13.6829 44.0491C13.2793 43.6893 13.0371 43.6893 12.6738 44.089C12.0684 44.7286 11.4629 45.3282 10.8171 45.9277C10.4539 46.2475 10.4942 46.4874 10.8171 46.8471C11.6648 47.7665 12.0684 48.8857 11.9069 50.1248C11.6648 52.4831 10.0099 54.042 7.58815 54.2419C7.22489 54.2819 7.06344 54.4018 7.1038 54.7615C7.1038 54.9614 7.1038 55.1613 7.1038 55.3611C9.56591 55.3611 11.9069 55.3611 14.248 55.3611C14.8534 50.4446 18.8493 47.4866 22.8452 47.4067C24.8633 47.3667 26.6796 47.8864 28.2941 49.0456C30.4737 50.6045 31.6845 52.763 32.0478 55.4011C34.3888 55.3611 36.7298 55.3611 39.1919 55.3611ZM7.30561 28.1402C7.4267 28.42 7.50743 28.5799 7.58815 28.7798C9.48519 32.8569 11.3419 36.9341 13.2389 41.0512C13.5214 41.6507 13.8443 42.2104 14.4498 42.69C15.4992 43.4895 16.5083 43.8092 17.7191 43.2896C18.8896 42.77 19.4547 41.8506 19.4951 40.5715C19.5354 39.6921 20.0601 39.0526 20.9481 38.8127C21.0692 38.7728 21.2307 38.7328 21.3921 38.6528C18.2842 34.2959 15.1763 29.9789 12.0684 25.662C10.8171 27.101 9.24301 27.9004 7.30561 28.1402ZM13.1985 19.1865C15.3781 16.5883 17.4769 14.0701 19.5758 11.5519C19.0107 11.1122 18.4053 10.7125 17.9209 10.2328C17.4366 9.71316 17.0733 9.11358 16.589 8.514C14.0058 10.6325 11.3822 12.791 8.7183 14.9495C10.8979 15.709 12.3509 17.068 13.1985 19.1865ZM11.9473 21.4249C11.9473 18.6269 9.64664 16.3085 6.82127 16.3085C3.95553 16.2686 1.61451 18.5869 1.61451 21.4249C1.61451 24.223 3.95553 26.5413 6.7809 26.5413C9.60627 26.5413 11.9473 24.223 11.9473 21.4249ZM25.6705 11.2321C27.8905 13.0308 30.1911 14.9095 32.2092 16.5484C32.855 15.9088 33.4605 15.3492 34.1063 14.7496C32.29 12.5512 30.2315 10.1129 28.2134 7.67459C27.8501 8.35412 27.5272 8.99367 27.1236 9.55327C26.6796 10.1928 26.1549 10.6725 25.6705 11.2321ZM22.2397 10.4327C24.7018 10.4327 26.6796 8.514 26.6796 6.07572C26.6796 3.63743 24.7018 1.6788 22.2397 1.6788C19.7776 1.6788 17.7998 3.63743 17.7998 6.07572C17.7998 8.43406 19.7776 10.3927 22.2397 10.4327ZM38.8287 18.7868C38.8287 17.3878 37.6985 16.2286 36.2455 16.1886C34.8328 16.1886 33.5816 17.3878 33.6219 18.7868C33.6219 20.1858 34.7924 21.345 36.2455 21.345C37.6985 21.345 38.8287 20.1858 38.8287 18.7868ZM40.5239 19.3064C41.654 19.0666 42.7842 18.8268 43.874 18.5869C44.7216 18.3871 44.9234 18.507 45.2867 19.2665C45.8114 20.3857 46.3764 21.5049 46.9012 22.6241C46.9415 22.6241 46.9819 22.5841 47.0223 22.5841C46.6186 20.7054 46.2554 18.8268 45.8517 16.9081C43.9547 17.108 42.1788 17.3078 40.3624 17.4677C40.4028 18.1472 40.4835 18.6669 40.5239 19.3064ZM34.3888 28.2601C36.3262 28.6599 38.2232 29.0596 40.1203 29.4593C39.1112 28.8597 38.0618 28.3401 36.972 27.8604C35.8822 27.3408 35.8419 27.2608 36.084 26.1017C36.3262 25.0624 36.528 24.0631 36.7702 23.0238C36.1244 22.9838 35.5593 22.9039 34.9539 22.8639C34.7521 24.6627 34.5906 26.4214 34.3888 28.2601Z" fill="#FABF3B"/>
<path d="M23.0873 56.9999C21.715 56.9999 20.3427 56.9999 18.9704 56.9999C18.1631 56.9999 17.8806 56.6802 17.9209 55.9207C18.0017 53.2026 20.4234 51.0042 23.1681 51.0042C25.9531 51.0441 28.3344 53.3225 28.3344 56.0406C28.3344 56.6802 28.0116 56.96 27.3658 56.96C25.9127 56.9999 24.5 56.9999 23.0873 56.9999ZM26.5181 55.3611C26.1952 53.7222 24.5404 52.5231 22.8855 52.643C21.271 52.7629 19.7373 54.042 19.6969 55.3611C21.9572 55.3611 24.2175 55.3611 26.5181 55.3611Z" fill="#FABF3B"/>
<path d="M6.78089 17.8674C8.75865 17.8674 10.3732 19.4263 10.4135 21.385C10.4135 23.3436 8.83938 24.9425 6.82126 24.9425C4.80313 24.9425 3.229 23.3836 3.229 21.4249C3.18864 19.4663 4.76277 17.8674 6.78089 17.8674ZM6.78089 19.4663C5.69111 19.4663 4.80313 20.3057 4.80313 21.385C4.80313 22.4642 5.65075 23.3436 6.74053 23.3436C7.83032 23.3436 8.71829 22.5042 8.71829 21.4249C8.75865 20.3457 7.91104 19.5063 6.78089 19.4663Z" fill="#FABF3B"/>
<path d="M25.4687 6.03573C25.4687 7.83446 24.056 9.27346 22.2397 9.27346C20.4234 9.27346 18.93 7.83446 18.93 6.03573C18.93 4.27696 20.4234 2.798 22.1993 2.83797C24.0157 2.798 25.4687 4.23699 25.4687 6.03573ZM23.8542 6.03573C23.8542 5.15634 23.1277 4.39688 22.2397 4.39688C21.3517 4.39688 20.5849 5.11637 20.5849 5.99576C20.5849 6.87514 21.3114 7.59463 22.1993 7.59463C23.1277 7.6346 23.8542 6.95508 23.8542 6.03573Z" fill="#FABF3B"/>
<path d="M37.0527 18.7867C37.0527 19.2264 36.6491 19.5862 36.2455 19.5862C35.8015 19.5862 35.4382 19.2264 35.4382 18.7867C35.4382 18.3471 35.8015 17.9873 36.2455 17.9873C36.6895 17.9873 37.0931 18.3471 37.0527 18.7867Z" fill="#FABF3B"/>
</g>
<defs>
<clipPath id="clip0_21_3044">
<rect width="49" height="57" fill="white"/>
</clipPath>
</defs>
</svg>
