<svg width="63" height="64" viewBox="0 0 63 64" fill="none" xmlns="http://www.w3.org/2000/svg">
<g clip-path="url(#clip0_21_3052)">
<path d="M3.578 61.8643C3.578 59.9168 3.53271 58.0599 3.578 56.1577C3.578 55.4783 3.44213 55.1613 2.76276 54.8442C1.5399 54.3007 0.905823 53.259 0.860532 51.9456C0.860532 48.4129 0.860532 44.8349 0.905823 41.3022C0.905823 39.4452 2.49101 37.9959 4.34795 37.9506C6.20489 37.9506 7.79008 39.4452 7.83537 41.3022C7.88066 44.8349 7.88066 48.3676 7.83537 51.9003C7.83537 53.3949 6.97484 54.3913 5.66139 55.0254C5.48023 55.116 5.20848 55.3424 5.20848 55.5236C5.16319 57.607 5.20848 59.6451 5.20848 61.7738C6.25018 61.7738 7.29188 61.7738 8.37886 61.7738C8.37886 61.502 8.37886 61.2303 8.37886 60.9585C8.37886 48.9564 8.37886 36.9542 8.37886 24.9521C8.37886 23.8198 8.56003 23.6386 9.64702 23.6386C11.9569 23.6386 14.2667 23.6386 16.5766 23.6386C16.803 23.6386 17.0295 23.6386 17.3012 23.6386C17.3012 21.5099 17.3012 19.4718 17.3012 17.3884C17.0295 17.3884 16.803 17.3431 16.5766 17.3431C13.5873 17.3431 10.5528 17.3884 7.56362 17.2978C5.29907 17.2526 3.578 16.1203 2.5816 14.0369C1.63048 11.9535 1.85694 9.96068 3.26096 8.14903C4.39324 6.65442 5.97843 5.97506 7.88066 5.92977C8.01653 5.61273 8.10712 5.34098 8.24299 5.02394C9.51114 2.03473 12.8174 0.0419151 16.0784 0.449536C19.6111 0.902447 22.3738 3.48404 22.872 6.88088C22.9626 7.33379 23.0985 7.60554 23.5514 7.83199C25.0913 8.51136 26.0424 9.73422 26.4047 11.41C26.45 11.5912 26.4953 11.7723 26.5406 11.9988C27.4917 11.9988 28.3976 11.9535 29.3034 11.9988C29.6657 12.0441 30.1186 12.1799 30.3904 12.4064C32.3832 14.2633 34.376 16.1203 36.3235 18.0225C36.5953 18.2943 36.8217 18.7925 36.8217 19.2001C36.867 23.1857 36.8217 27.126 36.8217 31.1116C36.8217 31.3834 36.8217 31.6098 36.8217 31.9269C37.8634 31.9269 38.8145 31.9269 39.8562 31.9269C39.8562 30.1152 39.8562 28.3036 39.8562 26.5372C39.8562 24.7709 39.7203 24.9068 41.3961 24.2274C46.8763 22.0081 52.3566 19.7889 57.8368 17.5696C58.9691 17.1167 59.3767 17.3884 59.3767 18.6113C59.3767 32.6968 59.3767 46.7371 59.3767 60.8226C59.3767 61.1397 59.3767 61.4114 59.3767 61.8191C60.2372 61.8191 61.0525 61.8191 61.8677 61.8191C62.5924 61.8191 62.9547 62.0908 62.9547 62.589C62.9547 63.1325 62.5924 63.4042 61.8677 63.4042C49.4579 63.4042 37.0482 63.4042 24.6384 63.4042C16.8936 63.4042 9.14881 63.4042 1.35873 63.4042C1.17757 63.4042 0.951114 63.4042 0.76995 63.4042C0.317038 63.359 0 63.0872 0 62.6343C0 62.1361 0.317038 61.8643 0.815241 61.8643C1.67577 61.8191 2.5816 61.8643 3.578 61.8643ZM26.2236 61.8191C26.2236 49.6357 26.2236 37.4977 26.2236 25.3144C20.7886 25.3144 15.3537 25.3144 9.91876 25.3144C9.91876 37.4977 9.91876 49.6357 9.91876 61.8191C15.399 61.8191 20.7886 61.8191 26.2236 61.8191ZM27.8994 33.6027C27.8994 43.0685 27.8994 52.4438 27.8994 61.7738C33.3796 61.7738 38.7692 61.7738 44.2042 61.7738C44.2042 52.3532 44.2042 42.9779 44.2042 33.6027C38.7239 33.6027 33.3343 33.6027 27.8994 33.6027ZM14.5385 15.8485C16.8483 15.8485 19.2034 15.8485 21.5133 15.8485C23.2797 15.8485 24.6837 14.5351 24.9101 12.7687C25.1366 11.1382 24.0496 9.46248 22.3738 9.05486C21.6492 8.87369 21.4227 8.51136 21.3774 7.7867C21.2868 4.61632 18.6147 2.03473 15.4443 1.98943C12.5456 1.94414 10.0546 3.84637 9.37527 6.65442C9.14881 7.56025 9.01294 7.65083 8.06183 7.60554C7.51833 7.60554 6.97484 7.65083 6.47664 7.7867C4.52912 8.37549 3.35155 10.2777 3.66858 12.3611C3.94033 14.2633 5.66139 15.7579 7.60891 15.8032C9.91876 15.8485 12.2286 15.8485 14.5385 15.8485ZM18.9317 23.7292C19.2034 23.7292 19.4299 23.7292 19.6564 23.7292C22.0115 23.7292 24.4119 23.7292 26.7671 23.7292C27.5823 23.7292 27.8088 24.0009 27.8088 24.7709C27.8088 26.8996 27.8088 28.983 27.8088 31.1116C27.8088 31.3834 27.8088 31.6551 27.8088 31.9722C30.2998 31.9722 32.7455 31.9722 35.1459 31.9722C35.1912 31.8816 35.1912 31.791 35.1912 31.7457C35.1912 27.6695 35.1912 23.5933 35.1912 19.5171C35.1912 19.3359 35.0554 19.0642 34.8742 18.9283C33.1078 17.2526 31.3415 15.5768 29.5751 13.901C29.394 13.7651 29.1675 13.6293 28.941 13.584C28.1711 13.5387 27.4011 13.5387 26.6765 13.584C26.4953 13.584 26.2689 13.7651 26.2236 13.901C25.2725 16.392 23.4155 17.5243 20.7886 17.4337C20.1546 17.4337 19.5205 17.4337 18.8411 17.4337C18.9317 19.5624 18.9317 21.6005 18.9317 23.7292ZM45.8346 52.8061C45.8346 55.8406 45.8346 58.7845 45.8346 61.7738C49.8203 61.7738 53.8059 61.7738 57.7462 61.7738C57.7462 58.7845 57.7462 55.7953 57.7462 52.8061C53.8059 52.8061 49.8203 52.8061 45.8346 52.8061ZM6.25018 46.6918C6.25018 45.016 6.25018 43.3403 6.25018 41.6645C6.25018 40.3963 5.48023 39.5358 4.34795 39.5358C3.26096 39.5358 2.44572 40.3963 2.44572 41.6645C2.44572 44.9707 2.44572 48.277 2.44572 51.5832C2.44572 52.8514 3.21567 53.7119 4.34795 53.7119C5.43494 53.7119 6.25018 52.8514 6.25018 51.5832C6.25018 49.9528 6.25018 48.3223 6.25018 46.6918ZM57.8368 30.0247C57.8368 29.3453 57.7915 28.7112 57.8368 28.1224C57.8821 27.5336 57.6556 27.3525 57.0669 27.3525C52.0848 27.3978 47.1481 27.3525 42.1661 27.3525C41.9396 27.3525 41.7132 27.3525 41.4414 27.3525C41.4414 28.3036 41.4414 29.1188 41.4414 29.9794C46.9216 30.0247 52.3113 30.0247 57.8368 30.0247ZM41.4867 31.7004C41.4867 31.791 41.4867 31.8363 41.4414 31.9269C41.6226 31.9722 41.849 32.0175 42.0302 32.0175C42.9813 32.0175 43.9324 32.0175 44.8835 32.0175C45.4723 32.0175 45.7894 32.2892 45.7894 32.878C45.7894 33.3309 45.7894 33.7838 45.7894 34.2367C49.8203 34.2367 53.8059 34.2367 57.7915 34.2367C57.7915 33.3762 57.7915 32.5157 57.7915 31.7004C52.3113 31.7004 46.8763 31.7004 41.4867 31.7004ZM42.2114 25.6767C42.2114 25.722 42.2114 25.722 42.2114 25.7673C47.3745 25.7673 52.583 25.7673 57.7915 25.7673C57.7915 24.9068 57.7915 24.0915 57.7915 23.1857C57.5198 23.1857 57.2933 23.1857 57.0669 23.1857C54.5758 23.1857 52.0395 23.1857 49.5485 23.1857C49.1862 23.1857 48.7786 23.0498 48.5068 23.1404C46.3781 23.9556 44.2948 24.8162 42.2114 25.6767ZM57.7915 35.9125C53.8059 35.9125 49.8656 35.9125 45.8799 35.9125C45.8799 36.773 45.8799 37.6336 45.8799 38.4941C49.8656 38.4941 53.8512 38.4941 57.7915 38.4941C57.7915 37.5883 57.7915 36.773 57.7915 35.9125ZM57.7915 51.1756C57.7915 50.2698 57.7915 49.4546 57.7915 48.5487C53.8059 48.5487 49.8656 48.5487 45.8799 48.5487C45.8799 49.4546 45.8799 50.2698 45.8799 51.1756C49.8203 51.1756 53.7606 51.1756 57.7915 51.1756ZM45.8346 44.3367C45.8346 45.2425 45.8346 46.0577 45.8346 46.9183C49.8203 46.9183 53.8059 46.9183 57.7915 46.9183C57.7915 46.0577 57.7915 45.1972 57.7915 44.3367C53.8059 44.3367 49.8203 44.3367 45.8346 44.3367ZM45.8346 42.7062C49.8203 42.7062 53.7606 42.7062 57.7462 42.7062C57.7462 41.8004 57.7462 40.9851 57.7462 40.1246C53.7153 40.1246 49.775 40.1246 45.8346 40.1246C45.8346 41.0304 45.8346 41.8909 45.8346 42.7062ZM57.7915 21.6005C57.7915 20.8306 57.7915 20.1512 57.7915 19.3812C55.9799 20.1059 54.2588 20.8306 52.5377 21.5099C52.5377 21.5552 52.583 21.6005 52.583 21.6005C54.3041 21.6005 55.9799 21.6005 57.7915 21.6005Z" fill="#FABF3B"/>
<path d="M44.4759 5.74854C47.9634 5.79383 50.862 6.9714 53.353 9.32654C53.8512 9.77945 53.8512 10.2777 53.4436 10.5947C52.9907 10.957 52.5831 10.7759 52.2207 10.4135C50.6808 8.96421 48.9145 7.9678 46.8311 7.56018C43.1625 6.83552 39.9015 7.74135 37.0482 10.1871C36.9123 10.2777 36.8217 10.4135 36.7311 10.5041C36.3688 10.8211 35.9612 10.9117 35.5536 10.5494C35.146 10.1418 35.2818 9.73416 35.6442 9.37183C38.1352 6.9714 41.0791 5.79383 44.4759 5.74854Z" fill="#FABF3B"/>
<path d="M37.7275 12.5422C37.9087 12.2705 38.0446 12.044 38.1805 11.8629C41.4867 8.51131 47.3746 8.51131 50.7714 11.8176C51.2243 12.2705 51.3149 12.7234 50.9526 13.0857C50.4996 13.5386 50.092 13.3575 49.6844 12.9498C46.8763 10.2777 42.5737 10.2324 39.7203 12.5875C39.4939 12.7687 39.2674 13.0404 39.041 13.1763C38.8145 13.2669 38.4522 13.3122 38.271 13.2216C38.0446 13.131 37.9087 12.814 37.7275 12.5422Z" fill="#FABF3B"/>
<path d="M44.6118 12.9045C46.0158 12.9045 47.1934 13.4027 48.2351 14.3086C48.6427 14.6709 48.8238 15.0785 48.4615 15.5314C48.1898 15.939 47.6916 15.8938 47.1934 15.4861C45.4723 14.0821 43.5248 14.0368 41.8037 15.4861C41.3055 15.8938 40.8526 15.939 40.5356 15.5314C40.1732 15.0332 40.3544 14.6709 40.762 14.3086C41.8037 13.4027 43.1625 12.9045 44.6118 12.9045Z" fill="#FABF3B"/>
<path d="M44.5212 16.4824C45.6082 16.4824 46.4688 17.343 46.514 18.4299C46.514 19.5169 45.6082 20.4228 44.5212 20.4228C43.4795 20.4228 42.5737 19.5622 42.5284 18.4752C42.4831 17.3882 43.389 16.4824 44.5212 16.4824ZM45.0647 18.4299C44.793 18.2488 44.6118 18.0676 44.4306 18.1129C44.2948 18.1129 44.1136 18.3394 44.1136 18.4752C44.1136 18.6111 44.3401 18.8376 44.4759 18.8376C44.6571 18.7923 44.793 18.6111 45.0647 18.4299Z" fill="#FABF3B"/>
<path d="M14.312 48.1863C13.6326 48.1863 12.908 48.1863 12.2286 48.1863C11.5492 48.1863 11.2775 47.9146 11.2322 47.2352C11.2322 45.967 11.2322 44.6536 11.2322 43.3854C11.2322 42.7967 11.5492 42.4343 12.138 42.4343C13.5873 42.4343 14.9913 42.4343 16.4407 42.4343C17.0747 42.4343 17.3918 42.7061 17.3918 43.3401C17.3918 44.6536 17.3918 45.967 17.3918 47.2805C17.3918 47.9146 17.0747 48.1863 16.4407 48.1863C15.7613 48.141 15.0366 48.1863 14.312 48.1863ZM15.8066 44.0648C14.8102 44.0648 13.8138 44.0648 12.8627 44.0648C12.8627 44.9253 12.8627 45.7406 12.8627 46.5558C13.9044 46.5558 14.8555 46.5558 15.8066 46.5558C15.8066 45.6953 15.8066 44.88 15.8066 44.0648Z" fill="#FABF3B"/>
<path d="M14.3573 55.2064C13.678 55.2064 12.9533 55.2064 12.2739 55.2064C11.5493 55.2064 11.2775 54.9347 11.2775 54.2553C11.2775 52.9872 11.2775 51.719 11.2775 50.4509C11.2775 49.7715 11.5493 49.4998 12.2286 49.4998C13.6327 49.4998 15.0367 49.4998 16.486 49.4998C17.2107 49.4998 17.4371 49.7262 17.4371 50.4509C17.4371 51.719 17.4371 53.0325 17.4371 54.3006C17.4371 54.8894 17.1654 55.2517 16.5313 55.2064C15.8066 55.2064 15.082 55.2064 14.3573 55.2064ZM12.8627 53.576C13.9044 53.576 14.8555 53.576 15.8066 53.576C15.8066 52.7154 15.8066 51.9455 15.8066 51.0849C14.8102 51.0849 13.8138 51.0849 12.8627 51.0849C12.8627 51.9908 12.8627 52.7607 12.8627 53.576Z" fill="#FABF3B"/>
<path d="M14.4479 35.4143C15.1273 35.4143 15.8066 35.4143 16.486 35.4143C17.2107 35.4143 17.4371 35.6408 17.4824 36.3201C17.4824 37.5883 17.4824 38.9017 17.4824 40.1699C17.4824 40.7587 17.2107 41.121 16.5766 41.121C15.1273 41.121 13.7232 41.121 12.2739 41.121C11.5946 41.121 11.3228 40.8492 11.3228 40.1699C11.3228 38.9017 11.3228 37.6336 11.3228 36.3654C11.3228 35.6861 11.5946 35.4143 12.2739 35.4143C12.9533 35.4143 13.678 35.4143 14.4479 35.4143ZM15.8066 39.5358C15.8066 38.6753 15.8066 37.86 15.8066 37.0448C14.8102 37.0448 13.8138 37.0448 12.8627 37.0448C12.8627 37.9053 12.8627 38.7206 12.8627 39.5358C13.9044 39.5358 14.8102 39.5358 15.8066 39.5358Z" fill="#FABF3B"/>
<path d="M14.312 34.0554C13.5873 34.0554 12.8627 34.0554 12.138 34.0554C11.5039 34.0554 11.2322 33.7384 11.2322 33.1043C11.2322 31.8362 11.2322 30.5227 11.2322 29.2546C11.2322 28.6658 11.5039 28.3035 12.138 28.3035C13.5873 28.3035 15.0366 28.3035 16.5312 28.3035C17.12 28.3035 17.3918 28.6205 17.3918 29.2093C17.3918 30.5227 17.3918 31.8362 17.3918 33.1496C17.3918 33.7837 17.0747 34.0554 16.4407 34.0554C15.7613 34.0554 15.0366 34.0554 14.312 34.0554ZM15.8519 29.9792C14.8555 29.9792 13.8591 29.9792 12.8627 29.9792C12.8627 30.8398 12.8627 31.655 12.8627 32.4703C13.8591 32.4703 14.8102 32.4703 15.8519 32.4703C15.8519 31.6097 15.8519 30.8398 15.8519 29.9792Z" fill="#FABF3B"/>
<path d="M21.8756 48.1862C21.151 48.1862 20.381 48.1862 19.6564 48.1862C19.0676 48.1862 18.7505 47.9144 18.7505 47.3256C18.7505 46.0122 18.7505 44.6535 18.7505 43.34C18.7505 42.7965 19.0676 42.4795 19.6111 42.4795C21.1057 42.4795 22.555 42.4795 24.0496 42.4795C24.6384 42.4795 24.9101 42.7965 24.9101 43.3853C24.9101 44.6988 24.9101 46.0122 24.9101 47.2804C24.9101 47.8691 24.5931 48.1862 24.0043 48.1862C23.325 48.1862 22.6003 48.1862 21.8756 48.1862ZM20.381 46.5557C21.3774 46.5557 22.3285 46.5557 23.325 46.5557C23.325 45.6952 23.325 44.8799 23.325 44.0647C22.3285 44.0647 21.3321 44.0647 20.381 44.0647C20.381 44.9252 20.381 45.7405 20.381 46.5557Z" fill="#FABF3B"/>
<path d="M21.8756 35.4143C22.555 35.4143 23.2797 35.4143 23.959 35.4143C24.6384 35.4143 24.9101 35.6861 24.9554 36.3654C24.9554 37.6336 24.9554 38.947 24.9554 40.2152C24.9554 40.804 24.6384 41.121 24.0496 41.121C22.6003 41.121 21.1963 41.121 19.747 41.121C19.1582 41.121 18.7958 40.8492 18.7958 40.2152C18.7958 38.9017 18.7958 37.5883 18.7958 36.3201C18.7958 35.7313 19.0676 35.4143 19.6564 35.4143C20.381 35.4143 21.1057 35.4143 21.8756 35.4143ZM23.325 39.5358C23.325 38.6753 23.325 37.86 23.325 37.0448C22.3285 37.0448 21.3321 37.0448 20.381 37.0448C20.381 37.9053 20.381 38.7206 20.381 39.5358C21.3774 39.5358 22.3285 39.5358 23.325 39.5358Z" fill="#FABF3B"/>
<path d="M21.8756 28.3489C22.555 28.3489 23.2797 28.3489 23.959 28.3489C24.6384 28.3489 24.9101 28.6206 24.9554 29.3C24.9554 30.5681 24.9554 31.8816 24.9554 33.1497C24.9554 33.7385 24.6384 34.0556 24.0496 34.0556C22.6003 34.0556 21.1963 34.0556 19.747 34.0556C19.1582 34.0556 18.7958 33.7838 18.7958 33.1497C18.7958 31.8363 18.7958 30.5229 18.7958 29.2547C18.7958 28.6206 19.0676 28.3942 19.747 28.3489C20.4263 28.3489 21.151 28.3489 21.8756 28.3489ZM20.381 32.4704C21.4227 32.4704 22.3738 32.4704 23.325 32.4704C23.325 31.6098 23.325 30.7946 23.325 29.9794C22.3285 29.9794 21.3321 29.9794 20.381 29.9794C20.381 30.8399 20.381 31.6098 20.381 32.4704Z" fill="#FABF3B"/>
<path d="M42.619 54.5722C42.619 55.2516 42.619 55.931 42.619 56.6103C42.619 57.2444 42.3472 57.5161 41.7132 57.5161C40.445 57.5161 39.1316 57.5161 37.8634 57.5161C37.2746 57.5161 36.9123 57.1991 36.9123 56.6103C36.9123 55.2516 36.9123 53.8929 36.9123 52.4888C36.9123 51.9 37.2293 51.583 37.8634 51.583C39.1316 51.583 40.445 51.583 41.7132 51.583C42.3925 51.583 42.619 51.9 42.619 52.5794C42.619 53.2135 42.619 53.8929 42.619 54.5722ZM40.9885 53.1682C40.128 53.1682 39.358 53.1682 38.4975 53.1682C38.4975 54.1193 38.4975 55.0251 38.4975 55.8857C39.358 55.8857 40.1733 55.8857 40.9885 55.8857C40.9885 54.9798 40.9885 54.074 40.9885 53.1682Z" fill="#FABF3B"/>
<path d="M42.619 39.2639C42.619 39.898 42.619 40.5773 42.619 41.2114C42.619 41.8455 42.3019 42.1625 41.7132 42.1625C40.3997 42.1625 39.0863 42.1625 37.8181 42.1625C37.2293 42.1625 36.9123 41.8455 36.9123 41.2567C36.9123 39.8527 36.9123 38.4939 36.9123 37.0899C36.9123 36.5011 37.2293 36.1841 37.8181 36.1841C39.1316 36.1841 40.445 36.1841 41.7132 36.1841C42.3019 36.1841 42.619 36.5011 42.619 37.0899C42.619 37.8599 42.619 38.5845 42.619 39.2639ZM40.9885 37.8599C40.128 37.8599 39.3127 37.8599 38.4522 37.8599C38.4522 38.6751 38.4522 39.4903 38.4522 40.3056C38.4522 40.4415 38.6334 40.6226 38.7239 40.6226C39.4939 40.6679 40.2185 40.6226 40.9885 40.6226C40.9885 39.6262 40.9885 38.7657 40.9885 37.8599Z" fill="#FABF3B"/>
<path d="M35.1912 54.5271C35.1912 55.2064 35.1912 55.8858 35.1912 56.5652C35.1912 57.1992 34.9195 57.5163 34.2854 57.5163C32.972 57.5163 31.6585 57.5163 30.3451 57.5163C29.8016 57.5163 29.4846 57.2445 29.4846 56.6557C29.4846 55.2517 29.4846 53.8024 29.4846 52.3984C29.4846 51.8096 29.8016 51.5378 30.3451 51.5378C31.6585 51.5378 32.972 51.5378 34.2854 51.5378C34.9195 51.5378 35.146 51.8096 35.1912 52.489C35.1912 53.1683 35.1912 53.8477 35.1912 54.5271ZM31.115 53.1683C31.115 54.1194 31.115 55.0253 31.115 55.9311C31.9756 55.9311 32.7455 55.9311 33.5608 55.9311C33.5608 54.98 33.5608 54.0741 33.5608 53.1683C32.7455 53.1683 31.9303 53.1683 31.115 53.1683Z" fill="#FABF3B"/>
<path d="M42.619 46.8275C42.619 47.5068 42.619 48.2315 42.619 48.9109C42.619 49.5449 42.3472 49.8167 41.7132 49.8167C40.445 49.8167 39.1316 49.8167 37.8634 49.8167C37.2293 49.8167 36.9576 49.5449 36.9123 48.9109C36.9123 47.5521 36.9123 46.1481 36.9123 44.7894C36.9123 44.2459 37.184 43.8835 37.8181 43.8835C39.1316 43.8835 40.445 43.8835 41.7584 43.8835C42.3925 43.8835 42.6643 44.1553 42.6643 44.8347C42.619 45.514 42.619 46.1481 42.619 46.8275ZM38.4975 45.514C38.4975 46.4198 38.4975 47.3257 38.4975 48.2315C39.358 48.2315 40.1733 48.2315 40.9885 48.2315C40.9885 47.2804 40.9885 46.4198 40.9885 45.514C40.128 45.514 39.3127 45.514 38.4975 45.514Z" fill="#FABF3B"/>
<path d="M35.1912 39.264C35.1912 39.9434 35.1912 40.6227 35.1912 41.3021C35.1912 41.8909 34.8742 42.2079 34.3307 42.2079C33.0173 42.2079 31.7038 42.2079 30.3904 42.2079C29.8016 42.2079 29.4846 41.8909 29.4846 41.3021C29.4846 39.9434 29.4846 38.5393 29.4846 37.1806C29.4846 36.5465 29.7563 36.2748 30.3904 36.2295C31.6585 36.2295 32.972 36.2295 34.2401 36.2295C34.8742 36.2295 35.146 36.5012 35.146 37.1353C35.1912 37.86 35.1912 38.5846 35.1912 39.264ZM33.5608 40.5774C33.5608 39.6263 33.5608 38.7205 33.5608 37.86C32.7002 37.86 31.885 37.86 31.115 37.86C31.115 38.8111 31.115 39.6716 31.115 40.5774C31.9303 40.5774 32.7455 40.5774 33.5608 40.5774Z" fill="#FABF3B"/>
<path d="M29.4846 46.8276C29.4846 46.1482 29.4846 45.4689 29.4846 44.7895C29.4846 44.2007 29.8016 43.929 30.3904 43.929C31.7038 43.929 33.0173 43.929 34.3307 43.929C34.9195 43.929 35.1912 44.246 35.1912 44.8348C35.1912 46.1935 35.1912 47.5975 35.1912 48.9563C35.1912 49.5903 34.9195 49.8621 34.2854 49.8621C33.0173 49.8621 31.7038 49.8621 30.4357 49.8621C29.8016 49.8621 29.5298 49.5903 29.5298 48.9563C29.4846 48.2316 29.4846 47.507 29.4846 46.8276ZM33.5608 48.2316C33.5608 47.2805 33.5608 46.42 33.5608 45.5141C32.7002 45.5141 31.9303 45.5141 31.115 45.5141C31.115 46.4653 31.115 47.3258 31.115 48.2316C31.9303 48.2316 32.7455 48.2316 33.5608 48.2316Z" fill="#FABF3B"/>
</g>
<defs>
<clipPath id="clip0_21_3052">
<rect width="63" height="63" fill="white" transform="translate(0 0.404053)"/>
</clipPath>
</defs>
</svg>
