<svg width="386" height="557" viewBox="0 0 386 557" fill="none" xmlns="http://www.w3.org/2000/svg">
<g clip-path="url(#clip0_11_5697)">
<path d="M214.13 556.927C309.051 556.927 386 479.968 386 385.034C386 290.1 309.051 213.141 214.13 213.141C119.209 213.141 42.2605 290.1 42.2605 385.034C42.2605 479.968 119.209 556.927 214.13 556.927Z" fill="#1F4E9D"/>
<path d="M-20.5478 0C-21.0561 0 -21.4917 0 -22 0V469.42C-21.4917 469.42 -21.0561 469.42 -20.5478 469.42C109.062 469.42 214.13 364.338 214.13 234.71C214.13 105.082 109.062 0 -20.5478 0Z" fill="white"/>
<path d="M214.13 527.371C292.73 527.371 356.447 463.645 356.447 385.034C356.447 306.424 292.73 242.698 214.13 242.698C135.531 242.698 71.8131 306.424 71.8131 385.034C71.8131 463.645 135.531 527.371 214.13 527.371Z" fill="#FABF3B"/>
</g>
<defs>
<clipPath id="clip0_11_5697">
<rect width="408" height="557" fill="white" transform="translate(-22)"/>
</clipPath>
</defs>
</svg>
