<svg width="293" height="626" viewBox="0 0 293 626" fill="none" xmlns="http://www.w3.org/2000/svg">
<g clip-path="url(#clip0_18_112)">
<path d="M221.924 139.276C196.939 115.664 167.277 99.6948 134.192 90.1132C132.595 89.6569 130.998 89.4288 128.716 88.9725C160.66 174.751 152.56 254.94 98.0268 328.856C73.6124 361.935 23.9849 399.121 0.59728 403.341C0.0268457 403.569 -0.543558 403.684 -1.11399 403.684L-1.11398 501.325C-0.99991 501.439 -0.885835 501.439 -0.77176 501.553C-0.657655 501.667 -0.54358 501.667 -0.429506 501.781C-0.315431 501.781 -0.3154 501.895 -0.201326 501.895C0.0268543 502.009 0.140899 502.123 0.255004 502.237C6.7579 504.177 12.6904 506.116 18.737 507.713C47.7148 515.583 77.149 517.18 106.926 512.96C111.261 512.389 113.086 510.45 114.113 506.458C120.16 483.302 126.32 460.147 132.595 437.105C138.071 417.143 156.781 412.239 171.498 426.839C183.591 438.93 195.799 450.907 207.778 463.227C210.63 466.078 212.455 466.534 215.764 463.683C260.143 425.014 286.155 376.536 291.061 317.677C296.765 247.298 273.149 187.64 221.924 139.276Z" fill="white"/>
<path d="M4.93248 2.85145L4.81839 2.85145C3.22118 2.16706 1.85215 1.25453 0.254942 0.570109C-0.201402 0.34199 -0.543672 0.227885 -1.00002 0.113841L-0.999985 367.752C-0.201378 367.41 0.597244 367.068 1.28176 366.611C2.42262 365.927 3.44939 365.128 4.59025 364.672C4.70434 364.558 4.81843 364.444 5.0466 364.444C38.9302 345.737 65.7404 319.73 85.4773 286.308C128.716 212.963 120.274 116.12 64.8277 51.33C47.7148 31.4823 27.9779 15.0566 4.93248 2.85145Z" fill="white"/>
<path d="M108.066 626C100.423 626.114 95.9733 619.612 98.0268 611.97C104.53 587.331 111.147 562.807 117.764 538.168C126.434 505.659 135.219 473.264 143.889 440.755C147.084 428.892 155.184 426.839 163.854 435.508C205.04 476.8 246.339 518.093 287.524 559.385C296.308 568.168 294.369 576.267 282.504 579.461C225.803 594.746 169.102 609.917 112.402 625.087C110.804 625.43 109.207 625.772 108.066 626Z" fill="#1F4E9D"/>
</g>
<defs>
<clipPath id="clip0_18_112">
<rect width="294" height="626" fill="white" transform="translate(293 626) rotate(180)"/>
</clipPath>
</defs>
</svg>
